0
SECTION
2
HEADER
9
$INSUNITS
70
4
0
ENDSEC
0
SECTION
2
TABLES
0
TABLE
2
LTYPE
0
LTYPE
72
65
70
64
2
CONTINUOUS
3
______
73
0
40
0
0
ENDTAB
0
TABLE
2
LAYER
0
ENDTAB
0
ENDSEC
0
SECTION
2
ENTITIES
0
LINE
8
0
10
30.6936413
20
63.8735231
11
-2.2303299
21
53.8107223
0
LINE
8
0
10
-3.6020447
20
52.3138864
11
-16.497101
21
-8.3525838
0
LINE
8
0
10
-14.9566292
20
-10.7247024
11
10.9377792
21
-16.2287288
0
LINE
8
0
10
11.5393386
20
-16.4631262
11
64.3659963
21
-47.6757435
0
LINE
8
0
10
64.8807023
20
-48.1120661
11
73.7182868
21
-58.6442891
0
LINE
8
0
10
74.0347374
20
-59.1663841
11
82.1539174
21
-78.824553
0
LINE
8
0
10
84.0024569
20
-80.0610728
11
139.8981873
21
-80.0610728
0
LINE
8
0
10
141.7467268
20
-78.824553
11
149.8659068
21
-59.1663841
0
LINE
8
0
10
150.1823574
20
-58.6442891
11
159.0199419
21
-48.1120661
0
LINE
8
0
10
159.5346479
20
-47.6757435
11
212.3613056
21
-16.4631262
0
LINE
8
0
10
212.962865
20
-16.2287288
11
238.8572734
21
-10.7247024
0
LINE
8
0
10
240.3977452
20
-8.3525838
11
227.5026889
21
52.3138864
0
LINE
8
0
10
226.1309741
20
53.8107223
11
193.2070029
21
63.8735231
0
LINE
8
0
10
192.8657275
20
63.9460092
11
165.0939064
21
67.3498003
0
LINE
8
0
10
163.9426204
20
67.1466678
11
149.0799924
21
59.5737806
0
LINE
8
0
10
147.7564956
20
59.3994331
11
132.9154778
21
62.5515508
0
LINE
8
0
10
132.307377
20
62.789712
11
127.4182896
21
65.7023836
0
LINE
8
0
10
126.9817054
20
65.8960924
11
98.9989983
21
74.487904
0
LINE
8
0
10
96.7163777
20
73.6366468
11
85.7250864
21
56.0656405
0
LINE
8
0
10
83.1215172
20
55.3442785
11
59.9580238
21
67.1466678
0
LINE
8
0
10
58.8067378
20
67.3498003
11
31.0349167
21
63.9460092
0
ARC
8
0
10
-1.6457495
20
51.898063
40
2
50
106.9951163
51
167.9999995
0
ARC
8
0
10
-14.5408058
20
-8.7684072
40
2
50
167.9999995
51
257.9999995
0
ARC
8
0
10
10.5219558
20
-18.185024
40
2
50
59.4232953
51
77.9999995
0
ARC
8
0
10
63.3486135
20
-49.3976413
40
2
50
40.0000012
51
59.4232953
0
ARC
8
0
10
72.186198
20
-59.9298644
40
2
50
22.4415104
51
40.0000012
0
ARC
8
0
10
84.0024569
20
-78.0610728
40
2
50
202.4415104
51
270
0
ARC
8
0
10
139.8981873
20
-78.0610728
40
2
50
270
51
337.5584896
0
ARC
8
0
10
151.7144462
20
-59.9298644
40
2
50
139.9999988
51
157.5584896
0
ARC
8
0
10
160.5520307
20
-49.3976413
40
2
50
120.5767047
51
139.9999988
0
ARC
8
0
10
213.3786884
20
-18.185024
40
2
50
102.0000005
51
120.5767047
0
ARC
8
0
10
238.44145
20
-8.7684072
40
2
50
282.0000005
51
12.0000005
0
ARC
8
0
10
225.5463937
20
51.898063
40
2
50
12.0000005
51
73.0048837
0
ARC
8
0
10
192.6224226
20
61.9608637
40
2
50
73.0048837
51
83.0125177
0
ARC
8
0
10
164.8506014
20
65.3646548
40
2
50
83.0125177
51
117.0000006
0
ARC
8
0
10
148.1720114
20
61.3557936
40
2
50
258.0090085
51
297.0000006
0
ARC
8
0
10
133.3309936
20
64.5079113
40
2
50
239.2156456
51
258.0090085
0
ARC
8
0
10
126.394673
20
63.9841842
40
2
50
59.2156456
51
72.9314165
0
ARC
8
0
10
98.4119659
20
72.5759958
40
2
50
72.9314165
51
147.9725493
0
ARC
8
0
10
84.0294982
20
57.1262915
40
2
50
242.9999994
51
327.9725493
0
ARC
8
0
10
59.0500428
20
65.3646548
40
2
50
62.9999994
51
96.9874823
0
ARC
8
0
10
31.2782216
20
61.9608637
40
2
50
96.9874823
51
106.9951163
0
ENDSEC
0
EOF