0
SECTION
2
HEADER
9
$INSUNITS
70
4
0
ENDSEC
0
SECTION
2
TABLES
0
TABLE
2
LTYPE
0
LTYPE
72
65
70
64
2
CONTINUOUS
3
______
73
0
40
0
0
ENDTAB
0
TABLE
2
LAYER
0
ENDTAB
0
ENDSEC
0
SECTION
2
ENTITIES
0
LINE
8
0
10
-10.274063
20
-6.2504904
11
6.8435201
21
-9.888945
0
LINE
8
0
10
6.8435201
20
-9.888945
11
10.274063
21
6.2504904
0
LINE
8
0
10
10.274063
20
6.2504904
11
-6.8435201
21
9.888945
0
LINE
8
0
10
-6.8435201
20
9.888945
11
-10.274063
21
-6.2504904
0
LINE
8
0
10
-6.3237409
20
12.334314
11
10.7938422
21
8.6958594
0
LINE
8
0
10
10.7938422
20
8.6958594
11
14.2243851
21
24.8352948
0
LINE
8
0
10
14.2243851
20
24.8352948
11
-2.893198
21
28.4737494
0
LINE
8
0
10
-2.893198
20
28.4737494
11
-6.3237409
21
12.334314
0
LINE
8
0
10
-2.3734187
20
30.9191184
11
14.7441644
21
27.2806638
0
LINE
8
0
10
14.7441644
20
27.2806638
11
18.1747073
21
43.4200992
0
LINE
8
0
10
18.1747073
20
43.4200992
11
1.0571242
21
47.0585538
0
LINE
8
0
10
1.0571242
20
47.0585538
11
-2.3734187
21
30.9191184
0
LINE
8
0
10
13.67949
20
6.3162256
11
29.9052074
21
-0.2393898
0
LINE
8
0
10
29.9052074
20
-0.2393898
11
36.0862162
21
15.0591438
0
LINE
8
0
10
36.0862162
20
15.0591438
11
19.8604988
21
21.6147592
0
LINE
8
0
10
19.8604988
20
21.6147592
11
13.67949
21
6.3162256
0
LINE
8
0
10
20.7970152
20
23.9327188
11
37.0227326
21
17.3771034
0
LINE
8
0
10
37.0227326
20
17.3771034
11
43.2037414
21
32.675637
0
LINE
8
0
10
43.2037414
20
32.675637
11
26.978024
21
39.2312524
0
LINE
8
0
10
26.978024
20
39.2312524
11
20.7970152
21
23.9327188
0
LINE
8
0
10
27.9145405
20
41.549212
11
44.1402579
21
34.9935966
0
LINE
8
0
10
44.1402579
20
34.9935966
11
50.3212667
21
50.2921302
0
LINE
8
0
10
50.3212667
20
50.2921302
11
34.0955493
21
56.8477456
0
LINE
8
0
10
34.0955493
20
56.8477456
11
27.9145405
21
41.549212
0
LINE
8
0
10
37.2762761
20
11.5323702
11
52.8688903
21
3.5875365
0
LINE
8
0
10
52.8688903
20
3.5875365
11
60.3597335
21
18.2891442
0
LINE
8
0
10
60.3597335
20
18.2891442
11
44.7671193
21
26.2339779
0
LINE
8
0
10
44.7671193
20
26.2339779
11
37.2762761
21
11.5323702
0
LINE
8
0
10
45.9020956
20
28.4614942
11
61.4947098
21
20.5166605
0
LINE
8
0
10
61.4947098
20
20.5166605
11
68.985553
21
35.2182682
0
LINE
8
0
10
68.985553
20
35.2182682
11
53.3929388
21
43.1631019
0
LINE
8
0
10
53.3929388
20
43.1631019
11
45.9020956
21
28.4614942
0
LINE
8
0
10
54.5279151
20
45.3906181
11
70.1205293
21
37.4457844
0
LINE
8
0
10
70.1205293
20
37.4457844
11
77.6113725
21
52.1473921
0
LINE
8
0
10
77.6113725
20
52.1473921
11
62.0187583
21
60.0922258
0
LINE
8
0
10
62.0187583
20
60.0922258
11
54.5279151
21
45.3906181
0
LINE
8
0
10
50.3421145
20
-6.7120859
11
65.1829562
21
-15.9856731
0
LINE
8
0
10
65.1829562
20
-15.9856731
11
73.9266241
21
-1.9928795
0
LINE
8
0
10
73.9266241
20
-1.9928795
11
59.0857824
21
7.2807077
0
LINE
8
0
10
59.0857824
20
7.2807077
11
50.3421145
21
-6.7120859
0
LINE
8
0
10
60.4105805
20
9.4008279
11
75.2514222
21
0.1272407
0
LINE
8
0
10
75.2514222
20
0.1272407
11
83.9950901
21
14.1200343
0
LINE
8
0
10
83.9950901
20
14.1200343
11
69.1542484
21
23.3936215
0
LINE
8
0
10
69.1542484
20
23.3936215
11
60.4105805
21
9.4008279
0
LINE
8
0
10
70.4790465
20
25.5137417
11
85.3198882
21
16.2401545
0
LINE
8
0
10
85.3198882
20
16.2401545
11
94.0635561
21
30.2329481
0
LINE
8
0
10
94.0635561
20
30.2329481
11
79.2227144
21
39.5065353
0
LINE
8
0
10
79.2227144
20
39.5065353
11
70.4790465
21
25.5137417
0
LINE
8
0
10
65.3951897
20
-18.4766483
11
80.2360314
21
-27.7502355
0
LINE
8
0
10
80.2360314
20
-27.7502355
11
88.9796993
21
-13.7574419
0
LINE
8
0
10
88.9796993
20
-13.7574419
11
74.1388576
21
-4.4838547
0
LINE
8
0
10
74.1388576
20
-4.4838547
11
65.3951897
21
-18.4766483
0
LINE
8
0
10
75.4636557
20
-2.3637345
11
90.3044974
21
-11.6373217
0
LINE
8
0
10
90.3044974
20
-11.6373217
11
99.0481653
21
2.3554719
0
LINE
8
0
10
99.0481653
20
2.3554719
11
84.2073236
21
11.6290591
0
LINE
8
0
10
84.2073236
20
11.6290591
11
75.4636557
21
-2.3637345
0
LINE
8
0
10
85.5321217
20
13.7491794
11
100.3729634
21
4.4755922
0
LINE
8
0
10
100.3729634
20
4.4755922
11
109.1166313
21
18.4683858
0
LINE
8
0
10
109.1166313
20
18.4683858
11
94.2757896
21
27.741973
0
LINE
8
0
10
94.2757896
20
27.741973
11
85.5321217
21
13.7491794
0
LINE
8
0
10
51.9345313
20
-32.4698851
11
66.775373
21
-41.7434723
0
LINE
8
0
10
66.775373
20
-41.7434723
11
75.5190409
21
-27.7506787
0
LINE
8
0
10
75.5190409
20
-27.7506787
11
60.6781992
21
-18.4770915
0
LINE
8
0
10
60.6781992
20
-18.4770915
11
51.9345313
21
-32.4698851
0
LINE
8
0
10
67.762703
20
-43.2235782
11
79.0114861
21
-56.629356
0
LINE
8
0
10
79.0114861
20
-56.629356
11
91.6512194
21
-46.0233604
0
LINE
8
0
10
91.6512194
20
-46.0233604
11
80.4024363
21
-32.6175826
0
LINE
8
0
10
80.4024363
20
-32.6175826
11
67.762703
21
-43.2235782
0
LINE
8
0
10
79.6272053
20
-58.2615523
11
86.1828207
21
-74.4872697
0
LINE
8
0
10
86.1828207
20
-74.4872697
11
101.4813543
21
-68.3062609
0
LINE
8
0
10
101.4813543
20
-68.3062609
11
94.9257389
21
-52.0805435
0
LINE
8
0
10
94.9257389
20
-52.0805435
11
79.6272053
21
-58.2615523
0
LINE
8
0
10
82.5195271
20
-30.9138803
11
93.7683102
21
-44.3196581
0
LINE
8
0
10
93.7683102
20
-44.3196581
11
106.4080435
21
-33.7136625
0
LINE
8
0
10
106.4080435
20
-33.7136625
11
95.1592604
21
-20.3078847
0
LINE
8
0
10
95.1592604
20
-20.3078847
11
82.5195271
21
-30.9138803
0
LINE
8
0
10
217.0571241
20
-9.888945
11
234.1747072
21
-6.2504904
0
LINE
8
0
10
234.1747072
20
-6.2504904
11
230.7441643
21
9.888945
0
LINE
8
0
10
230.7441643
20
9.888945
11
213.6265812
21
6.2504904
0
LINE
8
0
10
213.6265812
20
6.2504904
11
217.0571241
21
-9.888945
0
LINE
8
0
10
213.106802
20
8.6958594
11
230.2243851
21
12.334314
0
LINE
8
0
10
230.2243851
20
12.334314
11
226.7938422
21
28.4737494
0
LINE
8
0
10
226.7938422
20
28.4737494
11
209.6762591
21
24.8352948
0
LINE
8
0
10
209.6762591
20
24.8352948
11
213.106802
21
8.6958594
0
LINE
8
0
10
209.1564798
20
27.2806638
11
226.2740629
21
30.9191184
0
LINE
8
0
10
226.2740629
20
30.9191184
11
222.84352
21
47.0585538
0
LINE
8
0
10
222.84352
20
47.0585538
11
205.7259369
21
43.4200992
0
LINE
8
0
10
205.7259369
20
43.4200992
11
209.1564798
21
27.2806638
0
LINE
8
0
10
193.9954368
20
-0.2393898
11
210.2211542
21
6.3162256
0
LINE
8
0
10
210.2211542
20
6.3162256
11
204.0401454
21
21.6147592
0
LINE
8
0
10
204.0401454
20
21.6147592
11
187.814428
21
15.0591438
0
LINE
8
0
10
187.814428
20
15.0591438
11
193.9954368
21
-0.2393898
0
LINE
8
0
10
186.8779116
20
17.3771034
11
203.103629
21
23.9327188
0
LINE
8
0
10
203.103629
20
23.9327188
11
196.9226202
21
39.2312524
0
LINE
8
0
10
196.9226202
20
39.2312524
11
180.6969028
21
32.675637
0
LINE
8
0
10
180.6969028
20
32.675637
11
186.8779116
21
17.3771034
0
LINE
8
0
10
179.7603863
20
34.9935966
11
195.9861037
21
41.549212
0
LINE
8
0
10
195.9861037
20
41.549212
11
189.8050949
21
56.8477456
0
LINE
8
0
10
189.8050949
20
56.8477456
11
173.5793775
21
50.2921302
0
LINE
8
0
10
173.5793775
20
50.2921302
11
179.7603863
21
34.9935966
0
LINE
8
0
10
171.0317539
20
3.5875365
11
186.6243681
21
11.5323702
0
LINE
8
0
10
186.6243681
20
11.5323702
11
179.1335249
21
26.2339779
0
LINE
8
0
10
179.1335249
20
26.2339779
11
163.5409107
21
18.2891442
0
LINE
8
0
10
163.5409107
20
18.2891442
11
171.0317539
21
3.5875365
0
LINE
8
0
10
162.4059344
20
20.5166605
11
177.9985486
21
28.4614942
0
LINE
8
0
10
177.9985486
20
28.4614942
11
170.5077054
21
43.1631019
0
LINE
8
0
10
170.5077054
20
43.1631019
11
154.9150912
21
35.2182682
0
LINE
8
0
10
154.9150912
20
35.2182682
11
162.4059344
21
20.5166605
0
LINE
8
0
10
153.7801149
20
37.4457844
11
169.3727291
21
45.3906181
0
LINE
8
0
10
169.3727291
20
45.3906181
11
161.8818859
21
60.0922258
0
LINE
8
0
10
161.8818859
20
60.0922258
11
146.2892717
21
52.1473921
0
LINE
8
0
10
146.2892717
20
52.1473921
11
153.7801149
21
37.4457844
0
LINE
8
0
10
158.717688
20
-15.9856731
11
173.5585297
21
-6.7120859
0
LINE
8
0
10
173.5585297
20
-6.7120859
11
164.8148618
21
7.2807077
0
LINE
8
0
10
164.8148618
20
7.2807077
11
149.9740201
21
-1.9928795
0
LINE
8
0
10
149.9740201
20
-1.9928795
11
158.717688
21
-15.9856731
0
LINE
8
0
10
148.649222
20
0.1272407
11
163.4900637
21
9.4008279
0
LINE
8
0
10
163.4900637
20
9.4008279
11
154.7463958
21
23.3936215
0
LINE
8
0
10
154.7463958
20
23.3936215
11
139.9055541
21
14.1200343
0
LINE
8
0
10
139.9055541
20
14.1200343
11
148.649222
21
0.1272407
0
LINE
8
0
10
138.580756
20
16.2401545
11
153.4215977
21
25.5137417
0
LINE
8
0
10
153.4215977
20
25.5137417
11
144.6779298
21
39.5065353
0
LINE
8
0
10
144.6779298
20
39.5065353
11
129.8370881
21
30.2329481
0
LINE
8
0
10
129.8370881
20
30.2329481
11
138.580756
21
16.2401545
0
LINE
8
0
10
143.6646128
20
-27.7502355
11
158.5054545
21
-18.4766483
0
LINE
8
0
10
158.5054545
20
-18.4766483
11
149.7617866
21
-4.4838547
0
LINE
8
0
10
149.7617866
20
-4.4838547
11
134.9209449
21
-13.7574419
0
LINE
8
0
10
134.9209449
20
-13.7574419
11
143.6646128
21
-27.7502355
0
LINE
8
0
10
133.5961468
20
-11.6373217
11
148.4369885
21
-2.3637345
0
LINE
8
0
10
148.4369885
20
-2.3637345
11
139.6933206
21
11.6290591
0
LINE
8
0
10
139.6933206
20
11.6290591
11
124.8524789
21
2.3554719
0
LINE
8
0
10
124.8524789
20
2.3554719
11
133.5961468
21
-11.6373217
0
LINE
8
0
10
123.5276808
20
4.4755922
11
138.3685225
21
13.7491794
0
LINE
8
0
10
138.3685225
20
13.7491794
11
129.6248546
21
27.741973
0
LINE
8
0
10
129.6248546
20
27.741973
11
114.7840129
21
18.4683858
0
LINE
8
0
10
114.7840129
20
18.4683858
11
123.5276808
21
4.4755922
0
LINE
8
0
10
157.1252712
20
-41.7434723
11
171.9661129
21
-32.4698851
0
LINE
8
0
10
171.9661129
20
-32.4698851
11
163.222445
21
-18.4770915
0
LINE
8
0
10
163.222445
20
-18.4770915
11
148.3816033
21
-27.7506787
0
LINE
8
0
10
148.3816033
20
-27.7506787
11
157.1252712
21
-41.7434723
0
LINE
8
0
10
144.8891581
20
-56.629356
11
156.1379412
21
-43.2235782
0
LINE
8
0
10
156.1379412
20
-43.2235782
11
143.4982079
21
-32.6175826
0
LINE
8
0
10
143.4982079
20
-32.6175826
11
132.2494248
21
-46.0233604
0
LINE
8
0
10
132.2494248
20
-46.0233604
11
144.8891581
21
-56.629356
0
LINE
8
0
10
137.7178235
20
-74.4872697
11
144.2734389
21
-58.2615523
0
LINE
8
0
10
144.2734389
20
-58.2615523
11
128.9749053
21
-52.0805435
0
LINE
8
0
10
128.9749053
20
-52.0805435
11
122.4192899
21
-68.3062609
0
LINE
8
0
10
122.4192899
20
-68.3062609
11
137.7178235
21
-74.4872697
0
LINE
8
0
10
130.132334
20
-44.3196581
11
141.3811171
21
-30.9138803
0
LINE
8
0
10
141.3811171
20
-30.9138803
11
128.7413838
21
-20.3078847
0
LINE
8
0
10
128.7413838
20
-20.3078847
11
117.4926007
21
-33.7136625
0
LINE
8
0
10
117.4926007
20
-33.7136625
11
130.132334
21
-44.3196581
0
ENDSEC
0
EOF