0
SECTION
2
HEADER
9
$INSUNITS
70
4
0
ENDSEC
0
SECTION
2
TABLES
0
TABLE
2
LTYPE
0
LTYPE
72
65
70
64
2
CONTINUOUS
3
______
73
0
40
0
0
ENDTAB
0
TABLE
2
LAYER
0
ENDTAB
0
ENDSEC
0
SECTION
2
ENTITIES
0
LINE
8
0
10
-13.535726
20
-8.3686392
11
8.9616688
21
-13.1506081
0
LINE
8
0
10
8.9616688
20
-13.1506081
11
10.832874
21
-4.3472797
0
LINE
8
0
10
-13.535726
20
-8.3686392
11
-1.0610245
21
50.3202169
0
LINE
8
0
10
21.9796379
20
-0.0032224
11
20.61435
21
-6.4263966
0
LINE
8
0
10
20.61435
20
-6.4263966
11
10.832874
21
-4.3472797
0
LINE
8
0
10
-1.0610245
20
50.3202169
11
16.2226442
21
46.6464597
0
LINE
8
0
10
21.9796379
20
-0.0032224
11
31.4247949
21
-3.8193135
0
LINE
8
0
10
31.4247949
20
-3.8193135
11
34.7962542
21
4.5253411
0
LINE
8
0
10
45.2935771
20
3.8124554
11
44.0680927
21
0.7792752
0
LINE
8
0
10
44.0680927
20
0.7792752
11
34.7962542
21
4.5253411
0
LINE
8
0
10
19.9326639
20
55.8290806
11
29.2045025
21
52.0830146
0
LINE
8
0
10
16.2226442
20
46.6464597
11
19.9326639
21
55.8290806
0
LINE
8
0
10
32.5759618
20
60.4276693
11
45.2673464
21
55.3000171
0
LINE
8
0
10
32.5759618
20
60.4276693
11
29.2045025
21
52.0830146
0
LINE
8
0
10
77.2241998
20
45.3301275
11
86.1342651
21
40.7902225
0
LINE
8
0
10
86.1342651
20
40.7902225
11
85.2222724
21
39.000336
0
LINE
8
0
10
47.8209845
20
60.311814
11
56.7310498
21
55.7719089
0
LINE
8
0
10
45.2673464
20
55.3000171
11
47.8209845
21
60.311814
0
LINE
8
0
10
77.2241998
20
45.3301275
11
81.3101143
21
53.3491861
0
LINE
8
0
10
81.3101143
20
53.3491861
11
60.8169643
21
63.7909676
0
LINE
8
0
10
60.8169643
20
63.7909676
11
56.7310498
21
55.7719089
0
LINE
8
0
10
46.5527043
20
-7.5869402
11
59.2734257
21
-15.5357292
0
LINE
8
0
10
51.3219777
20
0.0454926
11
46.5527043
21
-7.5869402
0
LINE
8
0
10
51.3219777
20
0.0454926
11
45.2935771
21
3.8124554
0
LINE
8
0
10
96.7931277
20
29.4117061
11
97.8529663
21
31.1078024
0
LINE
8
0
10
85.2222724
20
39.000336
11
97.8529663
21
31.1078024
0
LINE
8
0
10
77.7186933
20
-29.4199686
11
78.9889878
21
-30.2137367
0
LINE
8
0
10
85.0960486
20
-25.162052
11
111.9503221
21
17.8137693
0
LINE
8
0
10
96.7931277
20
29.4117061
11
111.9503221
21
19.9404399
0
LINE
8
0
10
48.1451211
20
-33.3447394
11
64.4134237
21
-43.5103031
0
LINE
8
0
10
75.2757264
20
-33.329533
11
77.7186933
21
-29.4199686
0
LINE
8
0
10
59.2734257
20
-15.5357292
11
48.1451211
21
-33.3447394
0
LINE
8
0
10
64.4134237
20
-43.5103031
11
76.540552
21
-57.9628519
0
LINE
8
0
10
89.756518
20
-51.2030737
11
93.3935326
21
-48.1512561
0
LINE
8
0
10
78.9889878
20
-30.2137367
11
75.2757264
21
-33.329533
0
LINE
8
0
10
76.540552
20
-57.9628519
11
84.6632332
21
-78.0671935
0
LINE
8
0
10
84.6632332
20
-78.0671935
11
105.061278
21
-69.8258484
0
LINE
8
0
10
105.061278
20
-69.8258484
11
96.4453264
21
-48.5006197
0
LINE
8
0
10
96.4453264
20
-48.5006197
11
89.756518
21
-51.2030737
0
LINE
8
0
10
93.3935326
20
-48.1512561
11
93.4293539
21
-48.1939462
0
LINE
8
0
10
93.4293539
20
-48.1939462
11
110.2823317
21
-34.0526188
0
LINE
8
0
10
110.2823317
20
-34.0526188
11
95.4982167
21
-16.4335966
0
LINE
8
0
10
95.4982167
20
-16.4335966
11
85.0960486
21
-25.162052
0
LINE
8
0
10
214.9389754
20
-13.1506081
11
237.4363702
21
-8.3686392
0
LINE
8
0
10
224.9616687
20
50.3202169
11
237.4363702
21
-8.3686392
0
LINE
8
0
10
213.0677702
20
-4.3472797
11
214.9389754
21
-13.1506081
0
LINE
8
0
10
213.0677702
20
-4.3472797
11
203.2862942
21
-6.4263966
0
LINE
8
0
10
203.2862942
20
-6.4263966
11
201.9210063
21
-0.0032224
0
LINE
8
0
10
207.678
20
46.6464597
11
224.9616687
21
50.3202169
0
LINE
8
0
10
192.4758493
20
-3.8193135
11
201.9210063
21
-0.0032224
0
LINE
8
0
10
189.10439
20
4.5253411
11
192.4758493
21
-3.8193135
0
LINE
8
0
10
194.6961417
20
52.0830146
11
203.9679803
21
55.8290806
0
LINE
8
0
10
203.9679803
20
55.8290806
11
207.678
21
46.6464597
0
LINE
8
0
10
189.10439
20
4.5253411
11
179.8325515
21
0.7792752
0
LINE
8
0
10
179.8325515
20
0.7792752
11
178.6070671
21
3.8124554
0
LINE
8
0
10
194.6961417
20
52.0830146
11
191.3246824
21
60.4276693
0
LINE
8
0
10
178.6332978
20
55.3000171
11
191.3246824
21
60.4276693
0
LINE
8
0
10
167.1695944
20
55.7719089
11
176.0796597
21
60.311814
0
LINE
8
0
10
176.0796597
20
60.311814
11
178.6332978
21
55.3000171
0
LINE
8
0
10
137.7663791
20
40.7902225
11
146.6764444
21
45.3301275
0
LINE
8
0
10
138.6783718
20
39.000336
11
137.7663791
21
40.7902225
0
LINE
8
0
10
167.1695944
20
55.7719089
11
163.0836799
21
63.7909676
0
LINE
8
0
10
163.0836799
20
63.7909676
11
142.5905299
21
53.3491861
0
LINE
8
0
10
142.5905299
20
53.3491861
11
146.6764444
21
45.3301275
0
LINE
8
0
10
164.6272185
20
-15.5357292
11
177.3479399
21
-7.5869402
0
LINE
8
0
10
177.3479399
20
-7.5869402
11
172.5786665
21
0.0454926
0
LINE
8
0
10
178.6070671
20
3.8124554
11
172.5786665
21
0.0454926
0
LINE
8
0
10
126.0476779
20
31.1078024
11
138.6783718
21
39.000336
0
LINE
8
0
10
126.0476779
20
31.1078024
11
127.1075165
21
29.4117061
0
LINE
8
0
10
144.9116564
20
-30.2137367
11
146.1819509
21
-29.4199686
0
LINE
8
0
10
111.9503221
20
17.8137693
11
138.8045956
21
-25.162052
0
LINE
8
0
10
111.9503221
20
19.9404399
11
127.1075165
21
29.4117061
0
LINE
8
0
10
159.4872205
20
-43.5103031
11
175.7555231
21
-33.3447394
0
LINE
8
0
10
175.7555231
20
-33.3447394
11
164.6272185
21
-15.5357292
0
LINE
8
0
10
146.1819509
20
-29.4199686
11
148.6249178
21
-33.329533
0
LINE
8
0
10
147.3600922
20
-57.9628519
11
159.4872205
21
-43.5103031
0
LINE
8
0
10
148.6249178
20
-33.329533
11
144.9116564
21
-30.2137367
0
LINE
8
0
10
130.5071116
20
-48.1512561
11
134.1441262
21
-51.2030737
0
LINE
8
0
10
139.237411
20
-78.0671935
11
147.3600922
21
-57.9628519
0
LINE
8
0
10
134.1441262
20
-51.2030737
11
127.4553178
21
-48.5006197
0
LINE
8
0
10
127.4553178
20
-48.5006197
11
118.8393662
21
-69.8258484
0
LINE
8
0
10
118.8393662
20
-69.8258484
11
139.237411
21
-78.0671935
0
LINE
8
0
10
130.4712903
20
-48.1939462
11
130.5071116
21
-48.1512561
0
LINE
8
0
10
138.8045956
20
-25.162052
11
128.4024275
21
-16.4335966
0
LINE
8
0
10
128.4024275
20
-16.4335966
11
113.6183125
21
-34.0526188
0
LINE
8
0
10
113.6183125
20
-34.0526188
11
130.4712903
21
-48.1939462
0
ENDSEC
0
EOF