M48
; DRILL file {KiCad 7.0.9} date Mon Nov 27 23:54:16 2023
; FORMAT={-:-/ absolute / inch / decimal}
; #@! TF.CreationDate,2023-11-27T23:54:16-05:00
; #@! TF.GenerationSoftware,Kicad,Pcbnew,7.0.9
; #@! TF.FileFunction,NonPlated,1,2,NPTH
FMAT,2
INCH
; #@! TA.AperFunction,NonPlated,NPTH,ComponentDrill
T1C0.0670
; #@! TA.AperFunction,NonPlated,NPTH,ComponentDrill
T2C0.1350
%
G90
G05
T1
X1.104Y-6.6255
X1.2596Y-5.8938
X1.4151Y-5.1621
X1.5276Y-6.7155
X1.6832Y-5.9838
X1.8387Y-5.2522
X2.0947Y-6.1686
X2.3749Y-5.475
X2.4962Y-6.3308
X2.6551Y-4.7815
X2.7765Y-5.6373
X3.0449Y-5.9852
X3.0567Y-4.9437
X3.3845Y-5.3187
X3.4307Y-6.1818
X3.5784Y-6.7271
X3.6411Y-7.7412
X3.7241Y-4.6522
X3.7703Y-5.5153
X3.9457Y-6.9566
X3.9748Y-6.0927
X4.0084Y-7.9707
X4.1099Y-4.8488
X4.1711Y-7.1903
X4.3147Y-8.2615
X4.3421Y-6.3222
X4.3712Y-5.4584
X4.5383Y-7.4198
X4.5675Y-6.5559
X4.5931Y-8.5932
X4.7385Y-5.6879
X4.7998Y-8.9612
X4.9347Y-6.7854
X4.9621Y-9.3628
X4.9639Y-5.9216
X5.3311Y-6.151
X6.1155Y-6.151
X6.4828Y-5.9216
X6.4846Y-9.3628
X6.5119Y-6.7854
X6.6468Y-8.9612
X6.7082Y-5.6879
X6.8536Y-8.5932
X6.8792Y-6.5559
X6.9083Y-7.4198
X7.0754Y-5.4584
X7.1046Y-6.3222
X7.1319Y-8.2615
X7.2756Y-7.1903
X7.3367Y-4.8488
X7.4383Y-7.9707
X7.4718Y-6.0927
X7.5009Y-6.9566
X7.6763Y-5.5153
X7.7226Y-4.6522
X7.8055Y-7.7412
X7.8682Y-6.7271
X8.0159Y-6.1818
X8.0622Y-5.3187
X8.39Y-4.9437
X8.4018Y-5.9852
X8.6702Y-5.6373
X8.7915Y-4.7815
X8.9504Y-6.3308
X9.0717Y-5.475
X9.3519Y-6.1686
X9.608Y-5.2522
X9.7635Y-5.9838
X9.919Y-6.7155
X10.0316Y-5.1621
X10.1871Y-5.8938
X10.3426Y-6.6255
T2
X1.3158Y-6.6705
X1.4714Y-5.9388
X1.6269Y-5.2071
X2.2955Y-6.2497
X2.5757Y-5.5562
X2.8559Y-4.8626
X3.2378Y-6.0835
X3.5774Y-5.417
X3.7621Y-6.8419
X3.8248Y-7.8559
X3.917Y-4.7505
X4.1585Y-6.2075
X4.3547Y-7.305
X4.4539Y-8.4273
X4.5549Y-5.5731
X4.7511Y-6.6707
X4.881Y-9.162
X5.1475Y-6.0363
X6.2991Y-6.0363
X6.5657Y-9.162
X6.6955Y-6.6707
X6.8918Y-5.5731
X6.9927Y-8.4273
X7.0919Y-7.305
X7.2882Y-6.2075
X7.5296Y-4.7505
X7.6219Y-7.8559
X7.6846Y-6.8419
X7.8692Y-5.417
X8.2088Y-6.0835
X8.5907Y-4.8626
X8.871Y-5.5562
X9.1512Y-6.2497
X9.8198Y-5.2071
X9.9753Y-5.9388
X10.1308Y-6.6705
T0
M30
