%TF.GenerationSoftware,KiCad,Pcbnew,7.0.9*%
%TF.CreationDate,2023-11-27T23:54:22-05:00*%
%TF.ProjectId,main_r2,6d61696e-5f72-4322-9e6b-696361645f70,0.1*%
%TF.SameCoordinates,Original*%
%TF.FileFunction,Soldermask,Bot*%
%TF.FilePolarity,Negative*%
%FSLAX46Y46*%
G04 Gerber Fmt 4.6, Leading zero omitted, Abs format (unit mm)*
G04 Created by KiCad (PCBNEW 7.0.9) date 2023-11-27 23:54:22*
%MOMM*%
%LPD*%
G01*
G04 APERTURE LIST*
G04 Aperture macros list*
%AMRoundRect*
0 Rectangle with rounded corners*
0 $1 Rounding radius*
0 $2 $3 $4 $5 $6 $7 $8 $9 X,Y pos of 4 corners*
0 Add a 4 corners polygon primitive as box body*
4,1,4,$2,$3,$4,$5,$6,$7,$8,$9,$2,$3,0*
0 Add four circle primitives for the rounded corners*
1,1,$1+$1,$2,$3*
1,1,$1+$1,$4,$5*
1,1,$1+$1,$6,$7*
1,1,$1+$1,$8,$9*
0 Add four rect primitives between the rounded corners*
20,1,$1+$1,$2,$3,$4,$5,0*
20,1,$1+$1,$4,$5,$6,$7,0*
20,1,$1+$1,$6,$7,$8,$9,0*
20,1,$1+$1,$8,$9,$2,$3,0*%
%AMFreePoly0*
4,1,16,-0.214644,0.660355,-0.210957,0.656235,0.289043,0.031235,0.299694,-0.005522,0.289043,-0.031235,-0.210957,-0.656235,-0.244478,-0.674693,-0.250000,-0.675001,-0.500000,-0.675000,-0.535355,-0.660355,-0.550000,-0.625000,-0.550000,0.625000,-0.535355,0.660355,-0.500000,0.675000,-0.250000,0.675000,-0.214644,0.660355,-0.214644,0.660355,$1*%
%AMFreePoly1*
4,1,16,0.535355,0.660355,0.550000,0.625000,0.550000,-0.625000,0.535355,-0.660355,0.500000,-0.675000,-0.650000,-0.675000,-0.685355,-0.660355,-0.700000,-0.625000,-0.689043,-0.593765,-0.214031,0.000000,-0.689043,0.593765,-0.699693,0.630522,-0.681235,0.664043,-0.650000,0.675000,0.500000,0.675000,0.535355,0.660355,0.535355,0.660355,$1*%
G04 Aperture macros list end*
%ADD10C,3.529000*%
%ADD11C,1.801800*%
%ADD12C,2.132000*%
%ADD13C,1.800000*%
%ADD14C,0.900000*%
%ADD15FreePoly0,58.000000*%
%ADD16FreePoly1,58.000000*%
%ADD17FreePoly1,238.000000*%
%ADD18FreePoly0,238.000000*%
%ADD19RoundRect,0.050000X0.493328X-0.564913X0.680449X0.315419X-0.493328X0.564913X-0.680449X-0.315419X0*%
%ADD20RoundRect,0.050000X0.684740X-1.054407X1.054407X0.684740X-0.684740X1.054407X-1.054407X-0.684740X0*%
%ADD21C,2.005000*%
%ADD22RoundRect,0.050000X0.387737X-0.641997X0.724883X0.192469X-0.387737X0.641997X-0.724883X-0.192469X0*%
%ADD23RoundRect,0.050000X0.491241X-1.157292X1.157292X0.491241X-0.491241X1.157292X-1.157292X-0.491241X0*%
%ADD24RoundRect,0.050000X0.330308X-0.673347X0.738900X0.128559X-0.330308X0.673347X-0.738900X-0.128559X0*%
%ADD25RoundRect,0.050000X0.388507X-1.195702X1.195702X0.388507X-0.388507X1.195702X-1.195702X-0.388507X0*%
%ADD26RoundRect,0.050000X0.270365X-0.699573X0.747293X0.063670X-0.270365X0.699573X-0.747293X-0.063670X0*%
%ADD27RoundRect,0.050000X0.282817X-1.225013X1.225013X0.282817X-0.282817X1.225013X-1.225013X-0.282817X0*%
%ADD28RoundRect,0.050000X0.040953X-0.748881X0.730393X-0.170372X-0.040953X0.748881X-0.730393X0.170372X0*%
%ADD29RoundRect,0.050000X-0.109575X-1.252452X1.252452X-0.109575X0.109575X1.252452X-1.252452X0.109575X0*%
%ADD30RoundRect,0.050000X-0.192469X-0.724883X0.641997X-0.387737X0.192469X0.724883X-0.641997X0.387737X0*%
%ADD31RoundRect,0.050000X-0.491241X-1.157292X1.157292X-0.491241X0.491241X1.157292X-1.157292X0.491241X0*%
%ADD32RoundRect,0.050000X0.680449X-0.315419X0.493328X0.564913X-0.680449X0.315419X-0.493328X-0.564913X0*%
%ADD33RoundRect,0.050000X1.054407X-0.684740X0.684740X1.054407X-1.054407X0.684740X-0.684740X-1.054407X0*%
%ADD34RoundRect,0.050000X0.724883X-0.192469X0.387737X0.641997X-0.724883X0.192469X-0.387737X-0.641997X0*%
%ADD35RoundRect,0.050000X1.157292X-0.491241X0.491241X1.157292X-1.157292X0.491241X-0.491241X-1.157292X0*%
%ADD36RoundRect,0.050000X0.738900X-0.128559X0.330308X0.673347X-0.738900X0.128559X-0.330308X-0.673347X0*%
%ADD37RoundRect,0.050000X1.195702X-0.388507X0.388507X1.195702X-1.195702X0.388507X-0.388507X-1.195702X0*%
%ADD38RoundRect,0.050000X0.747293X-0.063670X0.270365X0.699573X-0.747293X0.063670X-0.270365X-0.699573X0*%
%ADD39RoundRect,0.050000X1.225013X-0.282817X0.282817X1.225013X-1.225013X0.282817X-0.282817X-1.225013X0*%
%ADD40RoundRect,0.050000X0.730393X0.170372X0.040953X0.748881X-0.730393X-0.170372X-0.040953X-0.748881X0*%
%ADD41RoundRect,0.050000X1.252452X0.109575X-0.109575X1.252452X-1.252452X-0.109575X0.109575X-1.252452X0*%
%ADD42RoundRect,0.050000X0.641997X0.387737X-0.192469X0.724883X-0.641997X-0.387737X0.192469X-0.724883X0*%
%ADD43RoundRect,0.050000X1.157292X0.491241X-0.491241X1.157292X-1.157292X-0.491241X0.491241X-1.157292X0*%
%ADD44RoundRect,0.050000X-1.054699X0.010501X0.471788X-0.943354X1.054699X-0.010501X-0.471788X0.943354X0*%
%ADD45RoundRect,0.050000X-0.788659X-0.343536X0.580747X-0.634612X0.788659X0.343536X-0.580747X0.634612X0*%
%ADD46RoundRect,0.050000X-0.836332X-0.201367X0.461725X-0.725817X0.836332X0.201367X-0.461725X0.725817X0*%
%ADD47RoundRect,0.050000X-0.850700X-0.127710X0.396709X-0.763297X0.850700X0.127710X-0.396709X0.763297X0*%
%ADD48RoundRect,0.050000X-0.858593X-0.053081X0.328674X-0.794968X0.858593X0.053081X-0.328674X0.794968X0*%
%ADD49RoundRect,0.050000X-0.832974X0.214837X0.066929X-0.857625X0.832974X-0.214837X-0.066929X0.857625X0*%
%ADD50RoundRect,0.050000X-0.725817X0.461725X-0.201367X-0.836332X0.725817X-0.461725X0.201367X0.836332X0*%
%ADD51RoundRect,0.050000X-0.580747X-0.634612X0.788659X-0.343536X0.580747X0.634612X-0.788659X0.343536X0*%
%ADD52RoundRect,0.050000X-0.461725X-0.725817X0.836332X-0.201367X0.461725X0.725817X-0.836332X0.201367X0*%
%ADD53RoundRect,0.050000X-0.396709X-0.763297X0.850700X-0.127710X0.396709X0.763297X-0.850700X0.127710X0*%
%ADD54RoundRect,0.050000X-0.328674X-0.794968X0.858593X-0.053081X0.328674X0.794968X-0.858593X0.053081X0*%
%ADD55RoundRect,0.050000X-0.066929X-0.857625X0.832974X0.214837X0.066929X0.857625X-0.832974X-0.214837X0*%
%ADD56RoundRect,0.050000X0.201367X-0.836332X0.725817X0.461725X-0.201367X0.836332X-0.725817X-0.461725X0*%
%ADD57C,3.900000*%
G04 APERTURE END LIST*
D10*
%TO.C,S33*%
X159998333Y-153321934D03*
D11*
X155334068Y-156236490D03*
X164662598Y-150407378D03*
D12*
X157771786Y-159194113D03*
X163124857Y-158325418D03*
X166252267Y-153894920D03*
X163124857Y-158325418D03*
%TD*%
D13*
%TO.C,MCU1*%
X123778479Y-113144431D03*
X131854449Y-100220178D03*
D14*
X126087868Y-109448637D03*
X129545061Y-103915971D03*
D15*
X124901908Y-111346569D03*
D16*
X125286100Y-110731734D03*
D17*
X130346829Y-102632875D03*
D18*
X130731020Y-102018040D03*
D13*
X125932522Y-114490426D03*
X134008491Y-101566173D03*
D14*
X128241910Y-110794632D03*
X131699103Y-105261966D03*
D15*
X127055950Y-112692564D03*
D16*
X127440142Y-112077729D03*
D17*
X132500871Y-103978870D03*
D18*
X132885062Y-103364035D03*
D13*
X128086564Y-115836421D03*
X136162533Y-102912168D03*
D14*
X130395952Y-112140627D03*
X133853145Y-106607961D03*
D15*
X129209993Y-114038559D03*
D16*
X129594184Y-113423724D03*
D17*
X134654913Y-105324865D03*
D18*
X135039104Y-104710030D03*
D13*
X130240606Y-117182416D03*
X138316575Y-104258163D03*
D14*
X132549994Y-113486622D03*
X136007187Y-107953956D03*
D15*
X131364035Y-115384554D03*
D16*
X131748226Y-114769719D03*
D17*
X136808955Y-106670859D03*
D18*
X137193147Y-106056025D03*
D13*
X132394648Y-118528411D03*
X140470618Y-105604158D03*
D14*
X134704036Y-114832617D03*
X138161229Y-109299951D03*
D15*
X133518077Y-116730549D03*
D16*
X133902268Y-116115714D03*
D17*
X138962997Y-108016854D03*
D18*
X139347189Y-107402020D03*
D13*
X134548690Y-119874405D03*
X142624660Y-106950153D03*
D14*
X136858078Y-116178612D03*
X140315272Y-110645946D03*
D15*
X135672119Y-118076544D03*
D16*
X136056311Y-117461709D03*
D17*
X141117039Y-109362849D03*
D18*
X141501231Y-108748014D03*
D13*
X136702732Y-121220400D03*
X144778702Y-108296147D03*
D14*
X139012121Y-117524607D03*
X142469314Y-111991941D03*
D15*
X137826161Y-119422538D03*
D16*
X138210353Y-118807704D03*
D17*
X143271082Y-110708844D03*
D18*
X143655273Y-110094009D03*
D13*
X138856775Y-122566395D03*
X146932744Y-109642142D03*
D14*
X141166163Y-118870602D03*
X144623356Y-113337936D03*
D15*
X139980203Y-120768533D03*
D16*
X140364395Y-120153699D03*
D17*
X145425124Y-112054839D03*
D18*
X145809315Y-111440004D03*
D13*
X141010817Y-123912390D03*
X149086786Y-110988137D03*
D14*
X143320205Y-120216597D03*
X146777398Y-114683931D03*
D15*
X142134246Y-122114528D03*
D16*
X142518437Y-121499693D03*
D17*
X147579166Y-113400834D03*
D18*
X147963357Y-112785999D03*
D13*
X143164859Y-125258385D03*
X151240828Y-112334132D03*
D14*
X145474247Y-121562592D03*
X148931440Y-116029926D03*
D15*
X144288288Y-123460523D03*
D16*
X144672479Y-122845688D03*
D17*
X149733208Y-114746829D03*
D18*
X150117400Y-114131994D03*
D13*
X145318901Y-126604380D03*
X153394871Y-113680127D03*
D14*
X147628289Y-122908587D03*
X151085482Y-117375921D03*
D15*
X146442330Y-124806518D03*
D16*
X146826521Y-124191683D03*
D17*
X151887250Y-116092824D03*
D18*
X152271442Y-115477989D03*
D13*
X147472943Y-127950375D03*
X155548913Y-115026122D03*
D14*
X149782331Y-124254581D03*
X153239525Y-118721916D03*
D15*
X148596372Y-126152513D03*
D16*
X148980563Y-125537678D03*
D17*
X154041292Y-117438819D03*
D18*
X154425484Y-116823984D03*
%TD*%
D10*
%TO.C,S1*%
X33422064Y-169430720D03*
D11*
X28042252Y-168287206D03*
X38801876Y-170574234D03*
D12*
X27741262Y-172108122D03*
X32195385Y-175201791D03*
X37522738Y-174187239D03*
X32195385Y-175201791D03*
%TD*%
D10*
%TO.C,S2*%
X37372387Y-150845913D03*
D11*
X31992575Y-149702399D03*
X42752199Y-151989427D03*
D12*
X31691585Y-153523315D03*
X36145708Y-156616984D03*
X41473061Y-155602432D03*
X36145708Y-156616984D03*
%TD*%
D10*
%TO.C,S3*%
X41322710Y-132261109D03*
D11*
X35942898Y-131117595D03*
X46702522Y-133404623D03*
D12*
X35641908Y-134938511D03*
X40096031Y-138032180D03*
X45423384Y-137017628D03*
X40096031Y-138032180D03*
%TD*%
D10*
%TO.C,S4*%
X58304918Y-158743033D03*
D11*
X53205407Y-156682697D03*
X63404429Y-160803369D03*
D12*
X52245494Y-160393299D03*
X56094739Y-164213418D03*
X61517332Y-164139365D03*
X56094739Y-164213418D03*
%TD*%
D10*
%TO.C,S5*%
X65422442Y-141126541D03*
D11*
X60322931Y-139066205D03*
X70521953Y-143186877D03*
D12*
X59363018Y-142776807D03*
X63212263Y-146596926D03*
X68634856Y-146522873D03*
X63212263Y-146596926D03*
%TD*%
D10*
%TO.C,S6*%
X72539969Y-123510048D03*
D11*
X67440458Y-121449712D03*
X77639480Y-125570384D03*
D12*
X66480545Y-125160314D03*
X70329790Y-128980433D03*
X75752383Y-128906380D03*
X70329790Y-128980433D03*
%TD*%
D10*
%TO.C,S7*%
X82240070Y-154519961D03*
D11*
X77339534Y-152023013D03*
X87140606Y-157016909D03*
D12*
X76059873Y-155635833D03*
X79561526Y-159776899D03*
X84969939Y-160175738D03*
X79561526Y-159776899D03*
%TD*%
D10*
%TO.C,S8*%
X90865892Y-137590837D03*
D11*
X85965356Y-135093889D03*
X95766428Y-140087785D03*
D12*
X84685695Y-138706709D03*
X88187348Y-142847775D03*
X93595761Y-143246614D03*
X88187348Y-142847775D03*
%TD*%
D10*
%TO.C,S9*%
X99491710Y-120661712D03*
D11*
X94591174Y-118164764D03*
X104392246Y-123158660D03*
D12*
X93311513Y-121777584D03*
X96813166Y-125918650D03*
X102221579Y-126317489D03*
X96813166Y-125918650D03*
%TD*%
D10*
%TO.C,S10*%
X95556433Y-173783198D03*
D11*
X90892168Y-170868642D03*
X100220698Y-176697754D03*
D12*
X89302499Y-174356184D03*
X92429909Y-178786682D03*
X97782980Y-179655377D03*
X92429909Y-178786682D03*
%TD*%
D10*
%TO.C,S11*%
X105624899Y-157670286D03*
D11*
X100960634Y-154755730D03*
X110289164Y-160584842D03*
D12*
X99370965Y-158243272D03*
X102498375Y-162673770D03*
X107851446Y-163542465D03*
X102498375Y-162673770D03*
%TD*%
D10*
%TO.C,S12*%
X115693366Y-141557374D03*
D11*
X111029101Y-138642818D03*
X120357631Y-144471930D03*
D12*
X109439432Y-142130360D03*
X112566842Y-146560858D03*
X117919913Y-147429553D03*
X112566842Y-146560858D03*
%TD*%
D10*
%TO.C,S13*%
X110609510Y-185547762D03*
D11*
X105945245Y-182633206D03*
X115273775Y-188462318D03*
D12*
X104355576Y-186120748D03*
X107482986Y-190551246D03*
X112836057Y-191419941D03*
X107482986Y-190551246D03*
%TD*%
D10*
%TO.C,S14*%
X120677976Y-169434849D03*
D11*
X116013711Y-166520293D03*
X125342241Y-172349405D03*
D12*
X114424042Y-170007835D03*
X117551452Y-174438333D03*
X122904523Y-175307028D03*
X117551452Y-174438333D03*
%TD*%
D10*
%TO.C,S15*%
X130746442Y-153321934D03*
D11*
X126082177Y-150407378D03*
X135410707Y-156236490D03*
D12*
X124492508Y-153894920D03*
X127619918Y-158325418D03*
X132972989Y-159194113D03*
X127619918Y-158325418D03*
%TD*%
D10*
%TO.C,S16*%
X97148852Y-199541000D03*
D11*
X92484587Y-196626444D03*
X101813117Y-202455556D03*
D12*
X90894918Y-200113986D03*
X94022328Y-204544484D03*
X99375399Y-205413179D03*
X94022328Y-204544484D03*
%TD*%
D10*
%TO.C,S17*%
X113129027Y-214054188D03*
D11*
X109593695Y-209840944D03*
X116664359Y-218267432D03*
D12*
X107004120Y-212666559D03*
X108609365Y-217846635D03*
X113431996Y-220327003D03*
X108609365Y-217846635D03*
%TD*%
D10*
%TO.C,S18*%
X123976344Y-232714625D03*
D11*
X121916008Y-227615114D03*
X126036680Y-237814136D03*
D12*
X118580012Y-229502211D03*
X118505959Y-234924804D03*
X122326078Y-238774049D03*
X118505959Y-234924804D03*
%TD*%
D10*
%TO.C,S19*%
X257322707Y-169430719D03*
D11*
X251942895Y-170574233D03*
X262702519Y-168287205D03*
D12*
X253222033Y-174187238D03*
X258549386Y-175201790D03*
X263003509Y-172108121D03*
X258549386Y-175201790D03*
%TD*%
D10*
%TO.C,S20*%
X253372387Y-150845913D03*
D11*
X247992575Y-151989427D03*
X258752199Y-149702399D03*
D12*
X249271713Y-155602432D03*
X254599066Y-156616984D03*
X259053189Y-153523315D03*
X254599066Y-156616984D03*
%TD*%
D10*
%TO.C,S21*%
X249422066Y-132261107D03*
D11*
X244042254Y-133404621D03*
X254801878Y-131117593D03*
D12*
X245321392Y-137017626D03*
X250648745Y-138032178D03*
X255102868Y-134938509D03*
X250648745Y-138032178D03*
%TD*%
D10*
%TO.C,S22*%
X232439856Y-158743032D03*
D11*
X227340345Y-160803368D03*
X237539367Y-156682696D03*
D12*
X229227442Y-164139364D03*
X234650035Y-164213417D03*
X238499280Y-160393298D03*
X234650035Y-164213417D03*
%TD*%
D10*
%TO.C,S23*%
X225322331Y-141126540D03*
D11*
X220222820Y-143186876D03*
X230421842Y-139066204D03*
D12*
X222109917Y-146522872D03*
X227532510Y-146596925D03*
X231381755Y-142776806D03*
X227532510Y-146596925D03*
%TD*%
D10*
%TO.C,S24*%
X218204805Y-123510046D03*
D11*
X213105294Y-125570382D03*
X223304316Y-121449710D03*
D12*
X214992391Y-128906378D03*
X220414984Y-128980431D03*
X224264229Y-125160312D03*
X220414984Y-128980431D03*
%TD*%
D10*
%TO.C,S25*%
X208504705Y-154519959D03*
D11*
X203604169Y-157016907D03*
X213405241Y-152023011D03*
D12*
X205774836Y-160175736D03*
X211183249Y-159776897D03*
X214684902Y-155635831D03*
X211183249Y-159776897D03*
%TD*%
D10*
%TO.C,S26*%
X199878886Y-137590837D03*
D11*
X194978350Y-140087785D03*
X204779422Y-135093889D03*
D12*
X197149017Y-143246614D03*
X202557430Y-142847775D03*
X206059083Y-138706709D03*
X202557430Y-142847775D03*
%TD*%
D10*
%TO.C,S27*%
X191253065Y-120661713D03*
D11*
X186352529Y-123158661D03*
X196153601Y-118164765D03*
D12*
X188523196Y-126317490D03*
X193931609Y-125918651D03*
X197433262Y-121777585D03*
X193931609Y-125918651D03*
%TD*%
D10*
%TO.C,S28*%
X195188341Y-173783201D03*
D11*
X190524076Y-176697757D03*
X199852606Y-170868645D03*
D12*
X192961794Y-179655380D03*
X198314865Y-178786685D03*
X201442275Y-174356187D03*
X198314865Y-178786685D03*
%TD*%
D10*
%TO.C,S29*%
X185119873Y-157670285D03*
D11*
X180455608Y-160584841D03*
X189784138Y-154755729D03*
D12*
X182893326Y-163542464D03*
X188246397Y-162673769D03*
X191373807Y-158243271D03*
X188246397Y-162673769D03*
%TD*%
D10*
%TO.C,S30*%
X175051408Y-141557373D03*
D11*
X170387143Y-144471929D03*
X179715673Y-138642817D03*
D12*
X172824861Y-147429552D03*
X178177932Y-146560857D03*
X181305342Y-142130359D03*
X178177932Y-146560857D03*
%TD*%
D10*
%TO.C,S31*%
X180135266Y-185547764D03*
D11*
X175471001Y-188462320D03*
X184799531Y-182633208D03*
D12*
X177908719Y-191419943D03*
X183261790Y-190551248D03*
X186389200Y-186120750D03*
X183261790Y-190551248D03*
%TD*%
D10*
%TO.C,S32*%
X170066797Y-169434849D03*
D11*
X165402532Y-172349405D03*
X174731062Y-166520293D03*
D12*
X167840250Y-175307028D03*
X173193321Y-174438333D03*
X176320731Y-170007835D03*
X173193321Y-174438333D03*
%TD*%
D10*
%TO.C,S34*%
X193595924Y-199541000D03*
D11*
X188931659Y-202455556D03*
X198260189Y-196626444D03*
D12*
X191369377Y-205413179D03*
X196722448Y-204544484D03*
X199849858Y-200113986D03*
X196722448Y-204544484D03*
%TD*%
D10*
%TO.C,S35*%
X177615748Y-214054186D03*
D11*
X174080416Y-218267430D03*
X181151080Y-209840942D03*
D12*
X177312779Y-220327001D03*
X182135410Y-217846633D03*
X183740655Y-212666557D03*
X182135410Y-217846633D03*
%TD*%
D10*
%TO.C,S36*%
X166768431Y-232714624D03*
D11*
X164708095Y-237814135D03*
X168828767Y-227615113D03*
D12*
X168418697Y-238774048D03*
X172238816Y-234924803D03*
X172164763Y-229502210D03*
X172238816Y-234924803D03*
%TD*%
D19*
%TO.C,D1*%
X42360535Y-170666125D03*
X41674427Y-173894013D03*
D20*
X41225337Y-176006811D03*
D21*
X42809625Y-168553327D03*
%TD*%
D19*
%TO.C,D2*%
X46310859Y-152081322D03*
X45624751Y-155309210D03*
D20*
X45175661Y-157422008D03*
D21*
X46759949Y-149968524D03*
%TD*%
D19*
%TO.C,D3*%
X50261180Y-133496521D03*
X49575072Y-136724409D03*
D20*
X49125982Y-138837207D03*
D21*
X50710270Y-131383723D03*
%TD*%
D22*
%TO.C,D4*%
X66893067Y-161511824D03*
X65656865Y-164571530D03*
D23*
X64847715Y-166574247D03*
D21*
X67702217Y-159509107D03*
%TD*%
D22*
%TO.C,D5*%
X74010591Y-143895331D03*
X72774389Y-146955037D03*
D23*
X71965239Y-148957754D03*
D21*
X74819741Y-141892614D03*
%TD*%
D22*
%TO.C,D6*%
X81128117Y-126278837D03*
X79891915Y-129338543D03*
D23*
X79082765Y-131341260D03*
D21*
X81937267Y-124276120D03*
%TD*%
D24*
%TO.C,D7*%
X90554221Y-158026721D03*
X89056053Y-160967043D03*
D25*
X88075433Y-162891617D03*
D21*
X91534841Y-156102147D03*
%TD*%
D24*
%TO.C,D8*%
X99180042Y-141097595D03*
X97681874Y-144037917D03*
D25*
X96701254Y-145962491D03*
D21*
X100160662Y-139173021D03*
%TD*%
D24*
%TO.C,D9*%
X107805859Y-124168472D03*
X106307691Y-127108794D03*
D25*
X105327071Y-129033368D03*
D21*
X108786479Y-122243898D03*
%TD*%
D26*
%TO.C,D10*%
X103533313Y-178001242D03*
X101784579Y-180799800D03*
D27*
X100639954Y-182631584D03*
D21*
X104677938Y-176169458D03*
%TD*%
D26*
%TO.C,D11*%
X113601781Y-161888329D03*
X111853047Y-164686887D03*
D27*
X110708422Y-166518671D03*
D21*
X114746406Y-160056545D03*
%TD*%
D26*
%TO.C,D12*%
X123670250Y-145775416D03*
X121921516Y-148573974D03*
D27*
X120776891Y-150405758D03*
D21*
X124814875Y-143943632D03*
%TD*%
D26*
%TO.C,D13*%
X118586392Y-189765806D03*
X116837658Y-192564364D03*
D27*
X115693033Y-194396148D03*
D21*
X119731017Y-187934022D03*
%TD*%
D26*
%TO.C,D14*%
X128654857Y-173652892D03*
X126906123Y-176451450D03*
D27*
X125761498Y-178283234D03*
D21*
X129799482Y-171821108D03*
%TD*%
D26*
%TO.C,D15*%
X138723321Y-157539977D03*
X136974587Y-160338535D03*
D27*
X135829962Y-162170319D03*
D21*
X139867946Y-155708193D03*
%TD*%
D26*
%TO.C,D16*%
X105125734Y-203759042D03*
X103377000Y-206557600D03*
D27*
X102232375Y-208389384D03*
D21*
X106270359Y-201927258D03*
%TD*%
D28*
%TO.C,D17*%
X119412044Y-220530774D03*
X116884098Y-222651974D03*
D29*
X115229442Y-224040395D03*
D21*
X121066700Y-219142353D03*
%TD*%
D30*
%TO.C,D18*%
X127950473Y-240815786D03*
X124890767Y-242051988D03*
D31*
X122888050Y-242861138D03*
D21*
X129953190Y-240006636D03*
%TD*%
D32*
%TO.C,D19*%
X248384239Y-170666127D03*
X249070347Y-173894015D03*
D33*
X249519437Y-176006813D03*
D21*
X247935149Y-168553329D03*
%TD*%
D32*
%TO.C,D20*%
X244433915Y-152081322D03*
X245120023Y-155309210D03*
D33*
X245569113Y-157422008D03*
D21*
X243984825Y-149968524D03*
%TD*%
D32*
%TO.C,D21*%
X240483595Y-133496518D03*
X241169703Y-136724406D03*
D33*
X241618793Y-138837204D03*
D21*
X240034505Y-131383720D03*
%TD*%
D34*
%TO.C,D22*%
X223851707Y-161511824D03*
X225087909Y-164571530D03*
D35*
X225897059Y-166574247D03*
D21*
X223042557Y-159509107D03*
%TD*%
D34*
%TO.C,D23*%
X216734183Y-143895332D03*
X217970385Y-146955038D03*
D35*
X218779535Y-148957755D03*
D21*
X215925033Y-141892615D03*
%TD*%
D34*
%TO.C,D24*%
X209616657Y-126278836D03*
X210852859Y-129338542D03*
D35*
X211662009Y-131341259D03*
D21*
X208807507Y-124276119D03*
%TD*%
D36*
%TO.C,D25*%
X200190552Y-158026719D03*
X201688720Y-160967041D03*
D37*
X202669340Y-162891615D03*
D21*
X199209932Y-156102145D03*
%TD*%
D36*
%TO.C,D26*%
X191564730Y-141097595D03*
X193062898Y-144037917D03*
D37*
X194043518Y-145962491D03*
D21*
X190584110Y-139173021D03*
%TD*%
D36*
%TO.C,D27*%
X182938913Y-124168473D03*
X184437081Y-127108795D03*
D37*
X185417701Y-129033369D03*
D21*
X181958293Y-122243899D03*
%TD*%
D38*
%TO.C,D28*%
X187211459Y-178001244D03*
X188960193Y-180799802D03*
D39*
X190104818Y-182631586D03*
D21*
X186066834Y-176169460D03*
%TD*%
D38*
%TO.C,D29*%
X177142993Y-161888330D03*
X178891727Y-164686888D03*
D39*
X180036352Y-166518672D03*
D21*
X175998368Y-160056546D03*
%TD*%
D38*
%TO.C,D30*%
X167074527Y-145775415D03*
X168823261Y-148573973D03*
D39*
X169967886Y-150405757D03*
D21*
X165929902Y-143943631D03*
%TD*%
D38*
%TO.C,D31*%
X172158385Y-189765804D03*
X173907119Y-192564362D03*
D39*
X175051744Y-194396146D03*
D21*
X171013760Y-187934020D03*
%TD*%
D38*
%TO.C,D32*%
X162089918Y-173652893D03*
X163838652Y-176451451D03*
D39*
X164983277Y-178283235D03*
D21*
X160945293Y-171821109D03*
%TD*%
D38*
%TO.C,D33*%
X152021452Y-157539979D03*
X153770186Y-160338537D03*
D39*
X154914811Y-162170321D03*
D21*
X150876827Y-155708195D03*
%TD*%
D38*
%TO.C,D34*%
X185619041Y-203759044D03*
X187367775Y-206557602D03*
D39*
X188512400Y-208389386D03*
D21*
X184474416Y-201927260D03*
%TD*%
D40*
%TO.C,D35*%
X171332732Y-220530772D03*
X173860678Y-222651972D03*
D41*
X175515334Y-224040393D03*
D21*
X169678076Y-219142351D03*
%TD*%
D42*
%TO.C,D36*%
X162794302Y-240815785D03*
X165854008Y-242051987D03*
D43*
X167856725Y-242861137D03*
D21*
X160791585Y-240006635D03*
%TD*%
D44*
%TO.C,B2*%
X158031611Y-105693667D03*
X163289509Y-108979167D03*
X156070909Y-108831445D03*
X161328807Y-112116945D03*
%TD*%
D45*
%TO.C,LED1*%
X37185787Y-164710082D03*
X36894710Y-166079489D03*
X31903790Y-163587359D03*
X31612713Y-164956766D03*
%TD*%
%TO.C,LED2*%
X41136108Y-146125278D03*
X40845031Y-147494685D03*
X35854111Y-145002555D03*
X35563034Y-146371962D03*
%TD*%
%TO.C,LED3*%
X45086431Y-127540475D03*
X44795354Y-128909882D03*
X39804434Y-126417752D03*
X39513357Y-127787159D03*
%TD*%
D46*
%TO.C,LED4*%
X62831193Y-154747678D03*
X62306744Y-156045736D03*
X57824400Y-152724802D03*
X57299951Y-154022860D03*
%TD*%
%TO.C,LED5*%
X69948715Y-137131185D03*
X69424266Y-138429243D03*
X64941922Y-135108309D03*
X64417473Y-136406367D03*
%TD*%
%TO.C,LED6*%
X77066240Y-119514691D03*
X76541791Y-120812749D03*
X72059447Y-117491815D03*
X71534998Y-118789873D03*
%TD*%
D47*
%TO.C,LED7*%
X87097337Y-150934301D03*
X86461750Y-152181710D03*
X82285902Y-148482752D03*
X81650315Y-149730161D03*
%TD*%
%TO.C,LED8*%
X95723155Y-134005176D03*
X95087568Y-135252585D03*
X90911720Y-131553627D03*
X90276133Y-132801036D03*
%TD*%
%TO.C,LED9*%
X104348977Y-117076051D03*
X103713390Y-118323460D03*
X99537542Y-114624502D03*
X98901955Y-115871911D03*
%TD*%
D48*
%TO.C,LED10*%
X100707727Y-170634522D03*
X99965840Y-171821790D03*
X96128268Y-167772958D03*
X95386381Y-168960226D03*
%TD*%
%TO.C,LED11*%
X110776195Y-154521609D03*
X110034308Y-155708877D03*
X106196736Y-151660045D03*
X105454849Y-152847313D03*
%TD*%
%TO.C,LED12*%
X120844661Y-138408696D03*
X120102774Y-139595964D03*
X116265202Y-135547132D03*
X115523315Y-136734400D03*
%TD*%
%TO.C,LED13*%
X115760802Y-182399087D03*
X115018915Y-183586355D03*
X111181343Y-179537523D03*
X110439456Y-180724791D03*
%TD*%
%TO.C,LED14*%
X125829267Y-166286172D03*
X125087380Y-167473440D03*
X121249808Y-163424608D03*
X120507921Y-164611876D03*
%TD*%
%TO.C,LED15*%
X135897735Y-150173257D03*
X135155848Y-151360525D03*
X131318276Y-147311693D03*
X130576389Y-148498961D03*
%TD*%
%TO.C,LED16*%
X102300144Y-196392318D03*
X101558257Y-197579586D03*
X97720685Y-193530754D03*
X96978798Y-194718022D03*
%TD*%
D49*
%TO.C,LED17*%
X119001193Y-212651455D03*
X117928730Y-213551357D03*
X115530140Y-208514815D03*
X114457677Y-209414717D03*
%TD*%
D50*
%TO.C,LED18*%
X129994578Y-233195146D03*
X128696520Y-233719595D03*
X127971702Y-228188353D03*
X126673644Y-228712802D03*
%TD*%
D51*
%TO.C,LED19*%
X258840984Y-163587361D03*
X259132061Y-164956768D03*
X253558987Y-164710084D03*
X253850064Y-166079491D03*
%TD*%
%TO.C,LED20*%
X254890662Y-145002554D03*
X255181739Y-146371961D03*
X249608665Y-146125277D03*
X249899742Y-147494684D03*
%TD*%
%TO.C,LED21*%
X250940340Y-126417748D03*
X251231417Y-127787155D03*
X245658343Y-127540471D03*
X245949420Y-128909878D03*
%TD*%
D52*
%TO.C,LED22*%
X232920376Y-152724802D03*
X233444825Y-154022860D03*
X227913583Y-154747678D03*
X228438032Y-156045736D03*
%TD*%
%TO.C,LED23*%
X225802853Y-135108310D03*
X226327302Y-136406368D03*
X220796060Y-137131186D03*
X221320509Y-138429244D03*
%TD*%
%TO.C,LED24*%
X218685327Y-117491817D03*
X219209776Y-118789875D03*
X213678534Y-119514693D03*
X214202983Y-120812751D03*
%TD*%
D53*
%TO.C,LED25*%
X208458875Y-148482751D03*
X209094462Y-149730160D03*
X203647440Y-150934300D03*
X204283027Y-152181709D03*
%TD*%
%TO.C,LED26*%
X199833053Y-131553626D03*
X200468640Y-132801035D03*
X195021618Y-134005175D03*
X195657205Y-135252584D03*
%TD*%
%TO.C,LED27*%
X191207237Y-114624502D03*
X191842824Y-115871911D03*
X186395802Y-117076051D03*
X187031389Y-118323460D03*
%TD*%
D54*
%TO.C,LED28*%
X194616505Y-167772959D03*
X195358392Y-168960227D03*
X190037046Y-170634523D03*
X190778933Y-171821791D03*
%TD*%
%TO.C,LED29*%
X184548041Y-151660044D03*
X185289928Y-152847312D03*
X179968582Y-154521608D03*
X180710469Y-155708876D03*
%TD*%
%TO.C,LED30*%
X174479571Y-135547132D03*
X175221458Y-136734400D03*
X169900112Y-138408696D03*
X170641999Y-139595964D03*
%TD*%
%TO.C,LED31*%
X179563432Y-179537520D03*
X180305319Y-180724788D03*
X174983973Y-182399084D03*
X175725860Y-183586352D03*
%TD*%
%TO.C,LED32*%
X169494965Y-163424608D03*
X170236852Y-164611876D03*
X164915506Y-166286172D03*
X165657393Y-167473440D03*
%TD*%
%TO.C,LED33*%
X159426500Y-147311693D03*
X160168387Y-148498961D03*
X154847041Y-150173257D03*
X155588928Y-151360525D03*
%TD*%
%TO.C,LED34*%
X193024088Y-193530754D03*
X193765975Y-194718022D03*
X188444629Y-196392318D03*
X189186516Y-197579586D03*
%TD*%
D55*
%TO.C,LED35*%
X175214635Y-208514814D03*
X176287098Y-209414716D03*
X171743582Y-212651454D03*
X172816045Y-213551356D03*
%TD*%
D56*
%TO.C,LED36*%
X162773074Y-228188353D03*
X164071132Y-228712802D03*
X160750198Y-233195146D03*
X162048256Y-233719595D03*
%TD*%
D57*
%TO.C,H1*%
X57365216Y-119313599D03*
%TD*%
%TO.C,H2*%
X233379559Y-119313600D03*
%TD*%
%TO.C,H3*%
X119083784Y-124809089D03*
%TD*%
%TO.C,H4*%
X171660987Y-124809089D03*
%TD*%
%TO.C,H5*%
X48032866Y-177648045D03*
%TD*%
%TO.C,H6*%
X242711906Y-177648041D03*
%TD*%
%TO.C,H7*%
X136085730Y-244000136D03*
%TD*%
%TO.C,H8*%
X154659044Y-244000135D03*
%TD*%
M02*
