%TF.GenerationSoftware,KiCad,Pcbnew,7.0.9*%
%TF.CreationDate,2023-11-27T23:54:22-05:00*%
%TF.ProjectId,main_r2,6d61696e-5f72-4322-9e6b-696361645f70,0.1*%
%TF.SameCoordinates,Original*%
%TF.FileFunction,Legend,Bot*%
%TF.FilePolarity,Positive*%
%FSLAX46Y46*%
G04 Gerber Fmt 4.6, Leading zero omitted, Abs format (unit mm)*
G04 Created by KiCad (PCBNEW 7.0.9) date 2023-11-27 23:54:22*
%MOMM*%
%LPD*%
G01*
G04 APERTURE LIST*
%ADD10C,0.150000*%
%ADD11C,0.120000*%
%ADD12C,0.100000*%
G04 APERTURE END LIST*
D10*
X125413736Y-109681268D02*
X125889926Y-109681268D01*
X125889926Y-109681268D02*
X125889926Y-108681268D01*
X125080402Y-109157458D02*
X124747069Y-109157458D01*
X124604212Y-109681268D02*
X125080402Y-109681268D01*
X125080402Y-109681268D02*
X125080402Y-108681268D01*
X125080402Y-108681268D02*
X124604212Y-108681268D01*
X124175640Y-109681268D02*
X124175640Y-108681268D01*
X124175640Y-108681268D02*
X123937545Y-108681268D01*
X123937545Y-108681268D02*
X123794688Y-108728887D01*
X123794688Y-108728887D02*
X123699450Y-108824125D01*
X123699450Y-108824125D02*
X123651831Y-108919363D01*
X123651831Y-108919363D02*
X123604212Y-109109839D01*
X123604212Y-109109839D02*
X123604212Y-109252696D01*
X123604212Y-109252696D02*
X123651831Y-109443172D01*
X123651831Y-109443172D02*
X123699450Y-109538410D01*
X123699450Y-109538410D02*
X123794688Y-109633649D01*
X123794688Y-109633649D02*
X123937545Y-109681268D01*
X123937545Y-109681268D02*
X124175640Y-109681268D01*
X131695382Y-104592979D02*
X132028715Y-104116788D01*
X132266810Y-104592979D02*
X132266810Y-103592979D01*
X132266810Y-103592979D02*
X131885858Y-103592979D01*
X131885858Y-103592979D02*
X131790620Y-103640598D01*
X131790620Y-103640598D02*
X131743001Y-103688217D01*
X131743001Y-103688217D02*
X131695382Y-103783455D01*
X131695382Y-103783455D02*
X131695382Y-103926312D01*
X131695382Y-103926312D02*
X131743001Y-104021550D01*
X131743001Y-104021550D02*
X131790620Y-104069169D01*
X131790620Y-104069169D02*
X131885858Y-104116788D01*
X131885858Y-104116788D02*
X132266810Y-104116788D01*
X131314429Y-104307264D02*
X130838239Y-104307264D01*
X131409667Y-104592979D02*
X131076334Y-103592979D01*
X131076334Y-103592979D02*
X130743001Y-104592979D01*
X130504905Y-103592979D02*
X130266810Y-104592979D01*
X130266810Y-104592979D02*
X130076334Y-103878693D01*
X130076334Y-103878693D02*
X129885858Y-104592979D01*
X129885858Y-104592979D02*
X129647763Y-103592979D01*
X128043969Y-111027263D02*
X128043969Y-110027263D01*
X128043969Y-110027263D02*
X127805874Y-110027263D01*
X127805874Y-110027263D02*
X127663017Y-110074882D01*
X127663017Y-110074882D02*
X127567779Y-110170120D01*
X127567779Y-110170120D02*
X127520160Y-110265358D01*
X127520160Y-110265358D02*
X127472541Y-110455834D01*
X127472541Y-110455834D02*
X127472541Y-110598691D01*
X127472541Y-110598691D02*
X127520160Y-110789167D01*
X127520160Y-110789167D02*
X127567779Y-110884405D01*
X127567779Y-110884405D02*
X127663017Y-110979644D01*
X127663017Y-110979644D02*
X127805874Y-111027263D01*
X127805874Y-111027263D02*
X128043969Y-111027263D01*
X127091588Y-110741548D02*
X126615398Y-110741548D01*
X127186826Y-111027263D02*
X126853493Y-110027263D01*
X126853493Y-110027263D02*
X126520160Y-111027263D01*
X126329683Y-110027263D02*
X125758255Y-110027263D01*
X126043969Y-111027263D02*
X126043969Y-110027263D01*
X133944662Y-104986593D02*
X134039900Y-104938974D01*
X134039900Y-104938974D02*
X134182757Y-104938974D01*
X134182757Y-104938974D02*
X134325614Y-104986593D01*
X134325614Y-104986593D02*
X134420852Y-105081831D01*
X134420852Y-105081831D02*
X134468471Y-105177069D01*
X134468471Y-105177069D02*
X134516090Y-105367545D01*
X134516090Y-105367545D02*
X134516090Y-105510402D01*
X134516090Y-105510402D02*
X134468471Y-105700878D01*
X134468471Y-105700878D02*
X134420852Y-105796116D01*
X134420852Y-105796116D02*
X134325614Y-105891355D01*
X134325614Y-105891355D02*
X134182757Y-105938974D01*
X134182757Y-105938974D02*
X134087519Y-105938974D01*
X134087519Y-105938974D02*
X133944662Y-105891355D01*
X133944662Y-105891355D02*
X133897043Y-105843735D01*
X133897043Y-105843735D02*
X133897043Y-105510402D01*
X133897043Y-105510402D02*
X134087519Y-105510402D01*
X133468471Y-105938974D02*
X133468471Y-104938974D01*
X133468471Y-104938974D02*
X132897043Y-105938974D01*
X132897043Y-105938974D02*
X132897043Y-104938974D01*
X132420852Y-105938974D02*
X132420852Y-104938974D01*
X132420852Y-104938974D02*
X132182757Y-104938974D01*
X132182757Y-104938974D02*
X132039900Y-104986593D01*
X132039900Y-104986593D02*
X131944662Y-105081831D01*
X131944662Y-105081831D02*
X131897043Y-105177069D01*
X131897043Y-105177069D02*
X131849424Y-105367545D01*
X131849424Y-105367545D02*
X131849424Y-105510402D01*
X131849424Y-105510402D02*
X131897043Y-105700878D01*
X131897043Y-105700878D02*
X131944662Y-105796116D01*
X131944662Y-105796116D02*
X132039900Y-105891355D01*
X132039900Y-105891355D02*
X132182757Y-105938974D01*
X132182757Y-105938974D02*
X132420852Y-105938974D01*
X129674202Y-111420876D02*
X129769440Y-111373257D01*
X129769440Y-111373257D02*
X129912297Y-111373257D01*
X129912297Y-111373257D02*
X130055154Y-111420876D01*
X130055154Y-111420876D02*
X130150392Y-111516114D01*
X130150392Y-111516114D02*
X130198011Y-111611352D01*
X130198011Y-111611352D02*
X130245630Y-111801828D01*
X130245630Y-111801828D02*
X130245630Y-111944685D01*
X130245630Y-111944685D02*
X130198011Y-112135161D01*
X130198011Y-112135161D02*
X130150392Y-112230399D01*
X130150392Y-112230399D02*
X130055154Y-112325638D01*
X130055154Y-112325638D02*
X129912297Y-112373257D01*
X129912297Y-112373257D02*
X129817059Y-112373257D01*
X129817059Y-112373257D02*
X129674202Y-112325638D01*
X129674202Y-112325638D02*
X129626583Y-112278018D01*
X129626583Y-112278018D02*
X129626583Y-111944685D01*
X129626583Y-111944685D02*
X129817059Y-111944685D01*
X129198011Y-112373257D02*
X129198011Y-111373257D01*
X129198011Y-111373257D02*
X128626583Y-112373257D01*
X128626583Y-112373257D02*
X128626583Y-111373257D01*
X128150392Y-112373257D02*
X128150392Y-111373257D01*
X128150392Y-111373257D02*
X127912297Y-111373257D01*
X127912297Y-111373257D02*
X127769440Y-111420876D01*
X127769440Y-111420876D02*
X127674202Y-111516114D01*
X127674202Y-111516114D02*
X127626583Y-111611352D01*
X127626583Y-111611352D02*
X127578964Y-111801828D01*
X127578964Y-111801828D02*
X127578964Y-111944685D01*
X127578964Y-111944685D02*
X127626583Y-112135161D01*
X127626583Y-112135161D02*
X127674202Y-112230399D01*
X127674202Y-112230399D02*
X127769440Y-112325638D01*
X127769440Y-112325638D02*
X127912297Y-112373257D01*
X127912297Y-112373257D02*
X128150392Y-112373257D01*
X135717752Y-107284969D02*
X136051085Y-106808778D01*
X136289180Y-107284969D02*
X136289180Y-106284969D01*
X136289180Y-106284969D02*
X135908228Y-106284969D01*
X135908228Y-106284969D02*
X135812990Y-106332588D01*
X135812990Y-106332588D02*
X135765371Y-106380207D01*
X135765371Y-106380207D02*
X135717752Y-106475445D01*
X135717752Y-106475445D02*
X135717752Y-106618302D01*
X135717752Y-106618302D02*
X135765371Y-106713540D01*
X135765371Y-106713540D02*
X135812990Y-106761159D01*
X135812990Y-106761159D02*
X135908228Y-106808778D01*
X135908228Y-106808778D02*
X136289180Y-106808778D01*
X135336799Y-107237350D02*
X135193942Y-107284969D01*
X135193942Y-107284969D02*
X134955847Y-107284969D01*
X134955847Y-107284969D02*
X134860609Y-107237350D01*
X134860609Y-107237350D02*
X134812990Y-107189730D01*
X134812990Y-107189730D02*
X134765371Y-107094492D01*
X134765371Y-107094492D02*
X134765371Y-106999254D01*
X134765371Y-106999254D02*
X134812990Y-106904016D01*
X134812990Y-106904016D02*
X134860609Y-106856397D01*
X134860609Y-106856397D02*
X134955847Y-106808778D01*
X134955847Y-106808778D02*
X135146323Y-106761159D01*
X135146323Y-106761159D02*
X135241561Y-106713540D01*
X135241561Y-106713540D02*
X135289180Y-106665921D01*
X135289180Y-106665921D02*
X135336799Y-106570683D01*
X135336799Y-106570683D02*
X135336799Y-106475445D01*
X135336799Y-106475445D02*
X135289180Y-106380207D01*
X135289180Y-106380207D02*
X135241561Y-106332588D01*
X135241561Y-106332588D02*
X135146323Y-106284969D01*
X135146323Y-106284969D02*
X134908228Y-106284969D01*
X134908228Y-106284969D02*
X134765371Y-106332588D01*
X134479656Y-106284969D02*
X133908228Y-106284969D01*
X134193942Y-107284969D02*
X134193942Y-106284969D01*
X131828244Y-112766871D02*
X131923482Y-112719252D01*
X131923482Y-112719252D02*
X132066339Y-112719252D01*
X132066339Y-112719252D02*
X132209196Y-112766871D01*
X132209196Y-112766871D02*
X132304434Y-112862109D01*
X132304434Y-112862109D02*
X132352053Y-112957347D01*
X132352053Y-112957347D02*
X132399672Y-113147823D01*
X132399672Y-113147823D02*
X132399672Y-113290680D01*
X132399672Y-113290680D02*
X132352053Y-113481156D01*
X132352053Y-113481156D02*
X132304434Y-113576394D01*
X132304434Y-113576394D02*
X132209196Y-113671633D01*
X132209196Y-113671633D02*
X132066339Y-113719252D01*
X132066339Y-113719252D02*
X131971101Y-113719252D01*
X131971101Y-113719252D02*
X131828244Y-113671633D01*
X131828244Y-113671633D02*
X131780625Y-113624013D01*
X131780625Y-113624013D02*
X131780625Y-113290680D01*
X131780625Y-113290680D02*
X131971101Y-113290680D01*
X131352053Y-113719252D02*
X131352053Y-112719252D01*
X131352053Y-112719252D02*
X130780625Y-113719252D01*
X130780625Y-113719252D02*
X130780625Y-112719252D01*
X130304434Y-113719252D02*
X130304434Y-112719252D01*
X130304434Y-112719252D02*
X130066339Y-112719252D01*
X130066339Y-112719252D02*
X129923482Y-112766871D01*
X129923482Y-112766871D02*
X129828244Y-112862109D01*
X129828244Y-112862109D02*
X129780625Y-112957347D01*
X129780625Y-112957347D02*
X129733006Y-113147823D01*
X129733006Y-113147823D02*
X129733006Y-113290680D01*
X129733006Y-113290680D02*
X129780625Y-113481156D01*
X129780625Y-113481156D02*
X129828244Y-113576394D01*
X129828244Y-113576394D02*
X129923482Y-113671633D01*
X129923482Y-113671633D02*
X130066339Y-113719252D01*
X130066339Y-113719252D02*
X130304434Y-113719252D01*
X138728936Y-107630964D02*
X138395603Y-108630964D01*
X138395603Y-108630964D02*
X138062270Y-107630964D01*
X137157508Y-108535725D02*
X137205127Y-108583345D01*
X137205127Y-108583345D02*
X137347984Y-108630964D01*
X137347984Y-108630964D02*
X137443222Y-108630964D01*
X137443222Y-108630964D02*
X137586079Y-108583345D01*
X137586079Y-108583345D02*
X137681317Y-108488106D01*
X137681317Y-108488106D02*
X137728936Y-108392868D01*
X137728936Y-108392868D02*
X137776555Y-108202392D01*
X137776555Y-108202392D02*
X137776555Y-108059535D01*
X137776555Y-108059535D02*
X137728936Y-107869059D01*
X137728936Y-107869059D02*
X137681317Y-107773821D01*
X137681317Y-107773821D02*
X137586079Y-107678583D01*
X137586079Y-107678583D02*
X137443222Y-107630964D01*
X137443222Y-107630964D02*
X137347984Y-107630964D01*
X137347984Y-107630964D02*
X137205127Y-107678583D01*
X137205127Y-107678583D02*
X137157508Y-107726202D01*
X136157508Y-108535725D02*
X136205127Y-108583345D01*
X136205127Y-108583345D02*
X136347984Y-108630964D01*
X136347984Y-108630964D02*
X136443222Y-108630964D01*
X136443222Y-108630964D02*
X136586079Y-108583345D01*
X136586079Y-108583345D02*
X136681317Y-108488106D01*
X136681317Y-108488106D02*
X136728936Y-108392868D01*
X136728936Y-108392868D02*
X136776555Y-108202392D01*
X136776555Y-108202392D02*
X136776555Y-108059535D01*
X136776555Y-108059535D02*
X136728936Y-107869059D01*
X136728936Y-107869059D02*
X136681317Y-107773821D01*
X136681317Y-107773821D02*
X136586079Y-107678583D01*
X136586079Y-107678583D02*
X136443222Y-107630964D01*
X136443222Y-107630964D02*
X136347984Y-107630964D01*
X136347984Y-107630964D02*
X136205127Y-107678583D01*
X136205127Y-107678583D02*
X136157508Y-107726202D01*
X134553714Y-115017628D02*
X134410857Y-115065247D01*
X134410857Y-115065247D02*
X134172762Y-115065247D01*
X134172762Y-115065247D02*
X134077524Y-115017628D01*
X134077524Y-115017628D02*
X134029905Y-114970008D01*
X134029905Y-114970008D02*
X133982286Y-114874770D01*
X133982286Y-114874770D02*
X133982286Y-114779532D01*
X133982286Y-114779532D02*
X134029905Y-114684294D01*
X134029905Y-114684294D02*
X134077524Y-114636675D01*
X134077524Y-114636675D02*
X134172762Y-114589056D01*
X134172762Y-114589056D02*
X134363238Y-114541437D01*
X134363238Y-114541437D02*
X134458476Y-114493818D01*
X134458476Y-114493818D02*
X134506095Y-114446199D01*
X134506095Y-114446199D02*
X134553714Y-114350961D01*
X134553714Y-114350961D02*
X134553714Y-114255723D01*
X134553714Y-114255723D02*
X134506095Y-114160485D01*
X134506095Y-114160485D02*
X134458476Y-114112866D01*
X134458476Y-114112866D02*
X134363238Y-114065247D01*
X134363238Y-114065247D02*
X134125143Y-114065247D01*
X134125143Y-114065247D02*
X133982286Y-114112866D01*
X133553714Y-115065247D02*
X133553714Y-114065247D01*
X133553714Y-114065247D02*
X133315619Y-114065247D01*
X133315619Y-114065247D02*
X133172762Y-114112866D01*
X133172762Y-114112866D02*
X133077524Y-114208104D01*
X133077524Y-114208104D02*
X133029905Y-114303342D01*
X133029905Y-114303342D02*
X132982286Y-114493818D01*
X132982286Y-114493818D02*
X132982286Y-114636675D01*
X132982286Y-114636675D02*
X133029905Y-114827151D01*
X133029905Y-114827151D02*
X133077524Y-114922389D01*
X133077524Y-114922389D02*
X133172762Y-115017628D01*
X133172762Y-115017628D02*
X133315619Y-115065247D01*
X133315619Y-115065247D02*
X133553714Y-115065247D01*
X132601333Y-114779532D02*
X132125143Y-114779532D01*
X132696571Y-115065247D02*
X132363238Y-114065247D01*
X132363238Y-114065247D02*
X132029905Y-115065247D01*
X139263932Y-109881720D02*
X139311551Y-109929340D01*
X139311551Y-109929340D02*
X139454408Y-109976959D01*
X139454408Y-109976959D02*
X139549646Y-109976959D01*
X139549646Y-109976959D02*
X139692503Y-109929340D01*
X139692503Y-109929340D02*
X139787741Y-109834101D01*
X139787741Y-109834101D02*
X139835360Y-109738863D01*
X139835360Y-109738863D02*
X139882979Y-109548387D01*
X139882979Y-109548387D02*
X139882979Y-109405530D01*
X139882979Y-109405530D02*
X139835360Y-109215054D01*
X139835360Y-109215054D02*
X139787741Y-109119816D01*
X139787741Y-109119816D02*
X139692503Y-109024578D01*
X139692503Y-109024578D02*
X139549646Y-108976959D01*
X139549646Y-108976959D02*
X139454408Y-108976959D01*
X139454408Y-108976959D02*
X139311551Y-109024578D01*
X139311551Y-109024578D02*
X139263932Y-109072197D01*
X138644884Y-108976959D02*
X138549646Y-108976959D01*
X138549646Y-108976959D02*
X138454408Y-109024578D01*
X138454408Y-109024578D02*
X138406789Y-109072197D01*
X138406789Y-109072197D02*
X138359170Y-109167435D01*
X138359170Y-109167435D02*
X138311551Y-109357911D01*
X138311551Y-109357911D02*
X138311551Y-109596006D01*
X138311551Y-109596006D02*
X138359170Y-109786482D01*
X138359170Y-109786482D02*
X138406789Y-109881720D01*
X138406789Y-109881720D02*
X138454408Y-109929340D01*
X138454408Y-109929340D02*
X138549646Y-109976959D01*
X138549646Y-109976959D02*
X138644884Y-109976959D01*
X138644884Y-109976959D02*
X138740122Y-109929340D01*
X138740122Y-109929340D02*
X138787741Y-109881720D01*
X138787741Y-109881720D02*
X138835360Y-109786482D01*
X138835360Y-109786482D02*
X138882979Y-109596006D01*
X138882979Y-109596006D02*
X138882979Y-109357911D01*
X138882979Y-109357911D02*
X138835360Y-109167435D01*
X138835360Y-109167435D02*
X138787741Y-109072197D01*
X138787741Y-109072197D02*
X138740122Y-109024578D01*
X138740122Y-109024578D02*
X138644884Y-108976959D01*
X136707756Y-116363623D02*
X136564899Y-116411242D01*
X136564899Y-116411242D02*
X136326804Y-116411242D01*
X136326804Y-116411242D02*
X136231566Y-116363623D01*
X136231566Y-116363623D02*
X136183947Y-116316003D01*
X136183947Y-116316003D02*
X136136328Y-116220765D01*
X136136328Y-116220765D02*
X136136328Y-116125527D01*
X136136328Y-116125527D02*
X136183947Y-116030289D01*
X136183947Y-116030289D02*
X136231566Y-115982670D01*
X136231566Y-115982670D02*
X136326804Y-115935051D01*
X136326804Y-115935051D02*
X136517280Y-115887432D01*
X136517280Y-115887432D02*
X136612518Y-115839813D01*
X136612518Y-115839813D02*
X136660137Y-115792194D01*
X136660137Y-115792194D02*
X136707756Y-115696956D01*
X136707756Y-115696956D02*
X136707756Y-115601718D01*
X136707756Y-115601718D02*
X136660137Y-115506480D01*
X136660137Y-115506480D02*
X136612518Y-115458861D01*
X136612518Y-115458861D02*
X136517280Y-115411242D01*
X136517280Y-115411242D02*
X136279185Y-115411242D01*
X136279185Y-115411242D02*
X136136328Y-115458861D01*
X135136328Y-116316003D02*
X135183947Y-116363623D01*
X135183947Y-116363623D02*
X135326804Y-116411242D01*
X135326804Y-116411242D02*
X135422042Y-116411242D01*
X135422042Y-116411242D02*
X135564899Y-116363623D01*
X135564899Y-116363623D02*
X135660137Y-116268384D01*
X135660137Y-116268384D02*
X135707756Y-116173146D01*
X135707756Y-116173146D02*
X135755375Y-115982670D01*
X135755375Y-115982670D02*
X135755375Y-115839813D01*
X135755375Y-115839813D02*
X135707756Y-115649337D01*
X135707756Y-115649337D02*
X135660137Y-115554099D01*
X135660137Y-115554099D02*
X135564899Y-115458861D01*
X135564899Y-115458861D02*
X135422042Y-115411242D01*
X135422042Y-115411242D02*
X135326804Y-115411242D01*
X135326804Y-115411242D02*
X135183947Y-115458861D01*
X135183947Y-115458861D02*
X135136328Y-115506480D01*
X134231566Y-116411242D02*
X134707756Y-116411242D01*
X134707756Y-116411242D02*
X134707756Y-115411242D01*
X141417974Y-111227715D02*
X141465593Y-111275335D01*
X141465593Y-111275335D02*
X141608450Y-111322954D01*
X141608450Y-111322954D02*
X141703688Y-111322954D01*
X141703688Y-111322954D02*
X141846545Y-111275335D01*
X141846545Y-111275335D02*
X141941783Y-111180096D01*
X141941783Y-111180096D02*
X141989402Y-111084858D01*
X141989402Y-111084858D02*
X142037021Y-110894382D01*
X142037021Y-110894382D02*
X142037021Y-110751525D01*
X142037021Y-110751525D02*
X141989402Y-110561049D01*
X141989402Y-110561049D02*
X141941783Y-110465811D01*
X141941783Y-110465811D02*
X141846545Y-110370573D01*
X141846545Y-110370573D02*
X141703688Y-110322954D01*
X141703688Y-110322954D02*
X141608450Y-110322954D01*
X141608450Y-110322954D02*
X141465593Y-110370573D01*
X141465593Y-110370573D02*
X141417974Y-110418192D01*
X140465593Y-111322954D02*
X141037021Y-111322954D01*
X140751307Y-111322954D02*
X140751307Y-110322954D01*
X140751307Y-110322954D02*
X140846545Y-110465811D01*
X140846545Y-110465811D02*
X140941783Y-110561049D01*
X140941783Y-110561049D02*
X141037021Y-110608668D01*
X138242751Y-117661998D02*
X138290370Y-117709618D01*
X138290370Y-117709618D02*
X138433227Y-117757237D01*
X138433227Y-117757237D02*
X138528465Y-117757237D01*
X138528465Y-117757237D02*
X138671322Y-117709618D01*
X138671322Y-117709618D02*
X138766560Y-117614379D01*
X138766560Y-117614379D02*
X138814179Y-117519141D01*
X138814179Y-117519141D02*
X138861798Y-117328665D01*
X138861798Y-117328665D02*
X138861798Y-117185808D01*
X138861798Y-117185808D02*
X138814179Y-116995332D01*
X138814179Y-116995332D02*
X138766560Y-116900094D01*
X138766560Y-116900094D02*
X138671322Y-116804856D01*
X138671322Y-116804856D02*
X138528465Y-116757237D01*
X138528465Y-116757237D02*
X138433227Y-116757237D01*
X138433227Y-116757237D02*
X138290370Y-116804856D01*
X138290370Y-116804856D02*
X138242751Y-116852475D01*
X137861798Y-117709618D02*
X137718941Y-117757237D01*
X137718941Y-117757237D02*
X137480846Y-117757237D01*
X137480846Y-117757237D02*
X137385608Y-117709618D01*
X137385608Y-117709618D02*
X137337989Y-117661998D01*
X137337989Y-117661998D02*
X137290370Y-117566760D01*
X137290370Y-117566760D02*
X137290370Y-117471522D01*
X137290370Y-117471522D02*
X137337989Y-117376284D01*
X137337989Y-117376284D02*
X137385608Y-117328665D01*
X137385608Y-117328665D02*
X137480846Y-117281046D01*
X137480846Y-117281046D02*
X137671322Y-117233427D01*
X137671322Y-117233427D02*
X137766560Y-117185808D01*
X137766560Y-117185808D02*
X137814179Y-117138189D01*
X137814179Y-117138189D02*
X137861798Y-117042951D01*
X137861798Y-117042951D02*
X137861798Y-116947713D01*
X137861798Y-116947713D02*
X137814179Y-116852475D01*
X137814179Y-116852475D02*
X137766560Y-116804856D01*
X137766560Y-116804856D02*
X137671322Y-116757237D01*
X137671322Y-116757237D02*
X137433227Y-116757237D01*
X137433227Y-116757237D02*
X137290370Y-116804856D01*
X143572016Y-112573710D02*
X143619635Y-112621330D01*
X143619635Y-112621330D02*
X143762492Y-112668949D01*
X143762492Y-112668949D02*
X143857730Y-112668949D01*
X143857730Y-112668949D02*
X144000587Y-112621330D01*
X144000587Y-112621330D02*
X144095825Y-112526091D01*
X144095825Y-112526091D02*
X144143444Y-112430853D01*
X144143444Y-112430853D02*
X144191063Y-112240377D01*
X144191063Y-112240377D02*
X144191063Y-112097520D01*
X144191063Y-112097520D02*
X144143444Y-111907044D01*
X144143444Y-111907044D02*
X144095825Y-111811806D01*
X144095825Y-111811806D02*
X144000587Y-111716568D01*
X144000587Y-111716568D02*
X143857730Y-111668949D01*
X143857730Y-111668949D02*
X143762492Y-111668949D01*
X143762492Y-111668949D02*
X143619635Y-111716568D01*
X143619635Y-111716568D02*
X143572016Y-111764187D01*
X143191063Y-111764187D02*
X143143444Y-111716568D01*
X143143444Y-111716568D02*
X143048206Y-111668949D01*
X143048206Y-111668949D02*
X142810111Y-111668949D01*
X142810111Y-111668949D02*
X142714873Y-111716568D01*
X142714873Y-111716568D02*
X142667254Y-111764187D01*
X142667254Y-111764187D02*
X142619635Y-111859425D01*
X142619635Y-111859425D02*
X142619635Y-111954663D01*
X142619635Y-111954663D02*
X142667254Y-112097520D01*
X142667254Y-112097520D02*
X143238682Y-112668949D01*
X143238682Y-112668949D02*
X142619635Y-112668949D01*
X140396794Y-119103232D02*
X140730127Y-118627041D01*
X140968222Y-119103232D02*
X140968222Y-118103232D01*
X140968222Y-118103232D02*
X140587270Y-118103232D01*
X140587270Y-118103232D02*
X140492032Y-118150851D01*
X140492032Y-118150851D02*
X140444413Y-118198470D01*
X140444413Y-118198470D02*
X140396794Y-118293708D01*
X140396794Y-118293708D02*
X140396794Y-118436565D01*
X140396794Y-118436565D02*
X140444413Y-118531803D01*
X140444413Y-118531803D02*
X140492032Y-118579422D01*
X140492032Y-118579422D02*
X140587270Y-118627041D01*
X140587270Y-118627041D02*
X140968222Y-118627041D01*
X139777746Y-118103232D02*
X139682508Y-118103232D01*
X139682508Y-118103232D02*
X139587270Y-118150851D01*
X139587270Y-118150851D02*
X139539651Y-118198470D01*
X139539651Y-118198470D02*
X139492032Y-118293708D01*
X139492032Y-118293708D02*
X139444413Y-118484184D01*
X139444413Y-118484184D02*
X139444413Y-118722279D01*
X139444413Y-118722279D02*
X139492032Y-118912755D01*
X139492032Y-118912755D02*
X139539651Y-119007993D01*
X139539651Y-119007993D02*
X139587270Y-119055613D01*
X139587270Y-119055613D02*
X139682508Y-119103232D01*
X139682508Y-119103232D02*
X139777746Y-119103232D01*
X139777746Y-119103232D02*
X139872984Y-119055613D01*
X139872984Y-119055613D02*
X139920603Y-119007993D01*
X139920603Y-119007993D02*
X139968222Y-118912755D01*
X139968222Y-118912755D02*
X140015841Y-118722279D01*
X140015841Y-118722279D02*
X140015841Y-118484184D01*
X140015841Y-118484184D02*
X139968222Y-118293708D01*
X139968222Y-118293708D02*
X139920603Y-118198470D01*
X139920603Y-118198470D02*
X139872984Y-118150851D01*
X139872984Y-118150851D02*
X139777746Y-118103232D01*
X145726058Y-113919705D02*
X145773677Y-113967325D01*
X145773677Y-113967325D02*
X145916534Y-114014944D01*
X145916534Y-114014944D02*
X146011772Y-114014944D01*
X146011772Y-114014944D02*
X146154629Y-113967325D01*
X146154629Y-113967325D02*
X146249867Y-113872086D01*
X146249867Y-113872086D02*
X146297486Y-113776848D01*
X146297486Y-113776848D02*
X146345105Y-113586372D01*
X146345105Y-113586372D02*
X146345105Y-113443515D01*
X146345105Y-113443515D02*
X146297486Y-113253039D01*
X146297486Y-113253039D02*
X146249867Y-113157801D01*
X146249867Y-113157801D02*
X146154629Y-113062563D01*
X146154629Y-113062563D02*
X146011772Y-113014944D01*
X146011772Y-113014944D02*
X145916534Y-113014944D01*
X145916534Y-113014944D02*
X145773677Y-113062563D01*
X145773677Y-113062563D02*
X145726058Y-113110182D01*
X145392724Y-113014944D02*
X144773677Y-113014944D01*
X144773677Y-113014944D02*
X145107010Y-113395896D01*
X145107010Y-113395896D02*
X144964153Y-113395896D01*
X144964153Y-113395896D02*
X144868915Y-113443515D01*
X144868915Y-113443515D02*
X144821296Y-113491134D01*
X144821296Y-113491134D02*
X144773677Y-113586372D01*
X144773677Y-113586372D02*
X144773677Y-113824467D01*
X144773677Y-113824467D02*
X144821296Y-113919705D01*
X144821296Y-113919705D02*
X144868915Y-113967325D01*
X144868915Y-113967325D02*
X144964153Y-114014944D01*
X144964153Y-114014944D02*
X145249867Y-114014944D01*
X145249867Y-114014944D02*
X145345105Y-113967325D01*
X145345105Y-113967325D02*
X145392724Y-113919705D01*
X142550836Y-120449227D02*
X142884169Y-119973036D01*
X143122264Y-120449227D02*
X143122264Y-119449227D01*
X143122264Y-119449227D02*
X142741312Y-119449227D01*
X142741312Y-119449227D02*
X142646074Y-119496846D01*
X142646074Y-119496846D02*
X142598455Y-119544465D01*
X142598455Y-119544465D02*
X142550836Y-119639703D01*
X142550836Y-119639703D02*
X142550836Y-119782560D01*
X142550836Y-119782560D02*
X142598455Y-119877798D01*
X142598455Y-119877798D02*
X142646074Y-119925417D01*
X142646074Y-119925417D02*
X142741312Y-119973036D01*
X142741312Y-119973036D02*
X143122264Y-119973036D01*
X141598455Y-120449227D02*
X142169883Y-120449227D01*
X141884169Y-120449227D02*
X141884169Y-119449227D01*
X141884169Y-119449227D02*
X141979407Y-119592084D01*
X141979407Y-119592084D02*
X142074645Y-119687322D01*
X142074645Y-119687322D02*
X142169883Y-119734941D01*
X147880100Y-115265700D02*
X147927719Y-115313320D01*
X147927719Y-115313320D02*
X148070576Y-115360939D01*
X148070576Y-115360939D02*
X148165814Y-115360939D01*
X148165814Y-115360939D02*
X148308671Y-115313320D01*
X148308671Y-115313320D02*
X148403909Y-115218081D01*
X148403909Y-115218081D02*
X148451528Y-115122843D01*
X148451528Y-115122843D02*
X148499147Y-114932367D01*
X148499147Y-114932367D02*
X148499147Y-114789510D01*
X148499147Y-114789510D02*
X148451528Y-114599034D01*
X148451528Y-114599034D02*
X148403909Y-114503796D01*
X148403909Y-114503796D02*
X148308671Y-114408558D01*
X148308671Y-114408558D02*
X148165814Y-114360939D01*
X148165814Y-114360939D02*
X148070576Y-114360939D01*
X148070576Y-114360939D02*
X147927719Y-114408558D01*
X147927719Y-114408558D02*
X147880100Y-114456177D01*
X147022957Y-114694272D02*
X147022957Y-115360939D01*
X147261052Y-114313320D02*
X147499147Y-115027605D01*
X147499147Y-115027605D02*
X146880100Y-115027605D01*
X144704878Y-121795222D02*
X145038211Y-121319031D01*
X145276306Y-121795222D02*
X145276306Y-120795222D01*
X145276306Y-120795222D02*
X144895354Y-120795222D01*
X144895354Y-120795222D02*
X144800116Y-120842841D01*
X144800116Y-120842841D02*
X144752497Y-120890460D01*
X144752497Y-120890460D02*
X144704878Y-120985698D01*
X144704878Y-120985698D02*
X144704878Y-121128555D01*
X144704878Y-121128555D02*
X144752497Y-121223793D01*
X144752497Y-121223793D02*
X144800116Y-121271412D01*
X144800116Y-121271412D02*
X144895354Y-121319031D01*
X144895354Y-121319031D02*
X145276306Y-121319031D01*
X144323925Y-120890460D02*
X144276306Y-120842841D01*
X144276306Y-120842841D02*
X144181068Y-120795222D01*
X144181068Y-120795222D02*
X143942973Y-120795222D01*
X143942973Y-120795222D02*
X143847735Y-120842841D01*
X143847735Y-120842841D02*
X143800116Y-120890460D01*
X143800116Y-120890460D02*
X143752497Y-120985698D01*
X143752497Y-120985698D02*
X143752497Y-121080936D01*
X143752497Y-121080936D02*
X143800116Y-121223793D01*
X143800116Y-121223793D02*
X144371544Y-121795222D01*
X144371544Y-121795222D02*
X143752497Y-121795222D01*
X150034142Y-116611694D02*
X150081761Y-116659314D01*
X150081761Y-116659314D02*
X150224618Y-116706933D01*
X150224618Y-116706933D02*
X150319856Y-116706933D01*
X150319856Y-116706933D02*
X150462713Y-116659314D01*
X150462713Y-116659314D02*
X150557951Y-116564075D01*
X150557951Y-116564075D02*
X150605570Y-116468837D01*
X150605570Y-116468837D02*
X150653189Y-116278361D01*
X150653189Y-116278361D02*
X150653189Y-116135504D01*
X150653189Y-116135504D02*
X150605570Y-115945028D01*
X150605570Y-115945028D02*
X150557951Y-115849790D01*
X150557951Y-115849790D02*
X150462713Y-115754552D01*
X150462713Y-115754552D02*
X150319856Y-115706933D01*
X150319856Y-115706933D02*
X150224618Y-115706933D01*
X150224618Y-115706933D02*
X150081761Y-115754552D01*
X150081761Y-115754552D02*
X150034142Y-115802171D01*
X149129380Y-115706933D02*
X149605570Y-115706933D01*
X149605570Y-115706933D02*
X149653189Y-116183123D01*
X149653189Y-116183123D02*
X149605570Y-116135504D01*
X149605570Y-116135504D02*
X149510332Y-116087885D01*
X149510332Y-116087885D02*
X149272237Y-116087885D01*
X149272237Y-116087885D02*
X149176999Y-116135504D01*
X149176999Y-116135504D02*
X149129380Y-116183123D01*
X149129380Y-116183123D02*
X149081761Y-116278361D01*
X149081761Y-116278361D02*
X149081761Y-116516456D01*
X149081761Y-116516456D02*
X149129380Y-116611694D01*
X149129380Y-116611694D02*
X149176999Y-116659314D01*
X149176999Y-116659314D02*
X149272237Y-116706933D01*
X149272237Y-116706933D02*
X149510332Y-116706933D01*
X149510332Y-116706933D02*
X149605570Y-116659314D01*
X149605570Y-116659314D02*
X149653189Y-116611694D01*
X146858920Y-123141217D02*
X147192253Y-122665026D01*
X147430348Y-123141217D02*
X147430348Y-122141217D01*
X147430348Y-122141217D02*
X147049396Y-122141217D01*
X147049396Y-122141217D02*
X146954158Y-122188836D01*
X146954158Y-122188836D02*
X146906539Y-122236455D01*
X146906539Y-122236455D02*
X146858920Y-122331693D01*
X146858920Y-122331693D02*
X146858920Y-122474550D01*
X146858920Y-122474550D02*
X146906539Y-122569788D01*
X146906539Y-122569788D02*
X146954158Y-122617407D01*
X146954158Y-122617407D02*
X147049396Y-122665026D01*
X147049396Y-122665026D02*
X147430348Y-122665026D01*
X146525586Y-122141217D02*
X145906539Y-122141217D01*
X145906539Y-122141217D02*
X146239872Y-122522169D01*
X146239872Y-122522169D02*
X146097015Y-122522169D01*
X146097015Y-122522169D02*
X146001777Y-122569788D01*
X146001777Y-122569788D02*
X145954158Y-122617407D01*
X145954158Y-122617407D02*
X145906539Y-122712645D01*
X145906539Y-122712645D02*
X145906539Y-122950740D01*
X145906539Y-122950740D02*
X145954158Y-123045978D01*
X145954158Y-123045978D02*
X146001777Y-123093598D01*
X146001777Y-123093598D02*
X146097015Y-123141217D01*
X146097015Y-123141217D02*
X146382729Y-123141217D01*
X146382729Y-123141217D02*
X146477967Y-123093598D01*
X146477967Y-123093598D02*
X146525586Y-123045978D01*
X153711994Y-118052928D02*
X153711994Y-117052928D01*
X153711994Y-117052928D02*
X153331042Y-117052928D01*
X153331042Y-117052928D02*
X153235804Y-117100547D01*
X153235804Y-117100547D02*
X153188185Y-117148166D01*
X153188185Y-117148166D02*
X153140566Y-117243404D01*
X153140566Y-117243404D02*
X153140566Y-117386261D01*
X153140566Y-117386261D02*
X153188185Y-117481499D01*
X153188185Y-117481499D02*
X153235804Y-117529118D01*
X153235804Y-117529118D02*
X153331042Y-117576737D01*
X153331042Y-117576737D02*
X153711994Y-117576737D01*
X152188185Y-118052928D02*
X152759613Y-118052928D01*
X152473899Y-118052928D02*
X152473899Y-117052928D01*
X152473899Y-117052928D02*
X152569137Y-117195785D01*
X152569137Y-117195785D02*
X152664375Y-117291023D01*
X152664375Y-117291023D02*
X152759613Y-117338642D01*
X151331042Y-117052928D02*
X151521518Y-117052928D01*
X151521518Y-117052928D02*
X151616756Y-117100547D01*
X151616756Y-117100547D02*
X151664375Y-117148166D01*
X151664375Y-117148166D02*
X151759613Y-117291023D01*
X151759613Y-117291023D02*
X151807232Y-117481499D01*
X151807232Y-117481499D02*
X151807232Y-117862451D01*
X151807232Y-117862451D02*
X151759613Y-117957689D01*
X151759613Y-117957689D02*
X151711994Y-118005309D01*
X151711994Y-118005309D02*
X151616756Y-118052928D01*
X151616756Y-118052928D02*
X151426280Y-118052928D01*
X151426280Y-118052928D02*
X151331042Y-118005309D01*
X151331042Y-118005309D02*
X151283423Y-117957689D01*
X151283423Y-117957689D02*
X151235804Y-117862451D01*
X151235804Y-117862451D02*
X151235804Y-117624356D01*
X151235804Y-117624356D02*
X151283423Y-117529118D01*
X151283423Y-117529118D02*
X151331042Y-117481499D01*
X151331042Y-117481499D02*
X151426280Y-117433880D01*
X151426280Y-117433880D02*
X151616756Y-117433880D01*
X151616756Y-117433880D02*
X151711994Y-117481499D01*
X151711994Y-117481499D02*
X151759613Y-117529118D01*
X151759613Y-117529118D02*
X151807232Y-117624356D01*
X149584390Y-124487212D02*
X149584390Y-123487212D01*
X149584390Y-123487212D02*
X149203438Y-123487212D01*
X149203438Y-123487212D02*
X149108200Y-123534831D01*
X149108200Y-123534831D02*
X149060581Y-123582450D01*
X149060581Y-123582450D02*
X149012962Y-123677688D01*
X149012962Y-123677688D02*
X149012962Y-123820545D01*
X149012962Y-123820545D02*
X149060581Y-123915783D01*
X149060581Y-123915783D02*
X149108200Y-123963402D01*
X149108200Y-123963402D02*
X149203438Y-124011021D01*
X149203438Y-124011021D02*
X149584390Y-124011021D01*
X148536771Y-124487212D02*
X148346295Y-124487212D01*
X148346295Y-124487212D02*
X148251057Y-124439593D01*
X148251057Y-124439593D02*
X148203438Y-124391973D01*
X148203438Y-124391973D02*
X148108200Y-124249116D01*
X148108200Y-124249116D02*
X148060581Y-124058640D01*
X148060581Y-124058640D02*
X148060581Y-123677688D01*
X148060581Y-123677688D02*
X148108200Y-123582450D01*
X148108200Y-123582450D02*
X148155819Y-123534831D01*
X148155819Y-123534831D02*
X148251057Y-123487212D01*
X148251057Y-123487212D02*
X148441533Y-123487212D01*
X148441533Y-123487212D02*
X148536771Y-123534831D01*
X148536771Y-123534831D02*
X148584390Y-123582450D01*
X148584390Y-123582450D02*
X148632009Y-123677688D01*
X148632009Y-123677688D02*
X148632009Y-123915783D01*
X148632009Y-123915783D02*
X148584390Y-124011021D01*
X148584390Y-124011021D02*
X148536771Y-124058640D01*
X148536771Y-124058640D02*
X148441533Y-124106259D01*
X148441533Y-124106259D02*
X148251057Y-124106259D01*
X148251057Y-124106259D02*
X148155819Y-124058640D01*
X148155819Y-124058640D02*
X148108200Y-124011021D01*
X148108200Y-124011021D02*
X148060581Y-123915783D01*
X155866036Y-119398923D02*
X155866036Y-118398923D01*
X155866036Y-118398923D02*
X155485084Y-118398923D01*
X155485084Y-118398923D02*
X155389846Y-118446542D01*
X155389846Y-118446542D02*
X155342227Y-118494161D01*
X155342227Y-118494161D02*
X155294608Y-118589399D01*
X155294608Y-118589399D02*
X155294608Y-118732256D01*
X155294608Y-118732256D02*
X155342227Y-118827494D01*
X155342227Y-118827494D02*
X155389846Y-118875113D01*
X155389846Y-118875113D02*
X155485084Y-118922732D01*
X155485084Y-118922732D02*
X155866036Y-118922732D01*
X154342227Y-119398923D02*
X154913655Y-119398923D01*
X154627941Y-119398923D02*
X154627941Y-118398923D01*
X154627941Y-118398923D02*
X154723179Y-118541780D01*
X154723179Y-118541780D02*
X154818417Y-118637018D01*
X154818417Y-118637018D02*
X154913655Y-118684637D01*
X153723179Y-118398923D02*
X153627941Y-118398923D01*
X153627941Y-118398923D02*
X153532703Y-118446542D01*
X153532703Y-118446542D02*
X153485084Y-118494161D01*
X153485084Y-118494161D02*
X153437465Y-118589399D01*
X153437465Y-118589399D02*
X153389846Y-118779875D01*
X153389846Y-118779875D02*
X153389846Y-119017970D01*
X153389846Y-119017970D02*
X153437465Y-119208446D01*
X153437465Y-119208446D02*
X153485084Y-119303684D01*
X153485084Y-119303684D02*
X153532703Y-119351304D01*
X153532703Y-119351304D02*
X153627941Y-119398923D01*
X153627941Y-119398923D02*
X153723179Y-119398923D01*
X153723179Y-119398923D02*
X153818417Y-119351304D01*
X153818417Y-119351304D02*
X153866036Y-119303684D01*
X153866036Y-119303684D02*
X153913655Y-119208446D01*
X153913655Y-119208446D02*
X153961274Y-119017970D01*
X153961274Y-119017970D02*
X153961274Y-118779875D01*
X153961274Y-118779875D02*
X153913655Y-118589399D01*
X153913655Y-118589399D02*
X153866036Y-118494161D01*
X153866036Y-118494161D02*
X153818417Y-118446542D01*
X153818417Y-118446542D02*
X153723179Y-118398923D01*
D11*
%TO.C,MCU1*%
X124150708Y-114945332D02*
X125560293Y-112689524D01*
X123355368Y-111311734D02*
X121945783Y-113567542D01*
X123355368Y-111311734D02*
X149305640Y-127527264D01*
X149305640Y-127527264D02*
X147896055Y-129783072D01*
X121945783Y-113567542D02*
X147896055Y-129783072D01*
X131431338Y-98387481D02*
X130021752Y-100643289D01*
X131431338Y-98387481D02*
X157381609Y-114603011D01*
X157381609Y-114603011D02*
X155972024Y-116858819D01*
X130021752Y-100643289D02*
X155972024Y-116858819D01*
D12*
%TO.C,D1*%
X42069459Y-172035532D02*
X42173415Y-171546458D01*
X42460718Y-172118697D02*
X41944712Y-172622421D01*
X41678200Y-171952367D02*
X42460718Y-172118697D01*
X41944712Y-172622421D02*
X41678200Y-171952367D01*
X41944712Y-172622421D02*
X42482693Y-172736772D01*
X41944712Y-172622421D02*
X41406731Y-172508069D01*
X41861547Y-173013680D02*
X41944712Y-172622421D01*
%TO.C,D2*%
X46019783Y-153450729D02*
X46123739Y-152961655D01*
X46411042Y-153533894D02*
X45895036Y-154037618D01*
X45628524Y-153367564D02*
X46411042Y-153533894D01*
X45895036Y-154037618D02*
X45628524Y-153367564D01*
X45895036Y-154037618D02*
X46433017Y-154151969D01*
X45895036Y-154037618D02*
X45357055Y-153923266D01*
X45811871Y-154428877D02*
X45895036Y-154037618D01*
%TO.C,D3*%
X49970104Y-134865928D02*
X50074060Y-134376854D01*
X50361363Y-134949093D02*
X49845357Y-135452817D01*
X49578845Y-134782763D02*
X50361363Y-134949093D01*
X49845357Y-135452817D02*
X49578845Y-134782763D01*
X49845357Y-135452817D02*
X50383338Y-135567168D01*
X49845357Y-135452817D02*
X49307376Y-135338465D01*
X49762192Y-135844076D02*
X49845357Y-135452817D01*
%TO.C,D4*%
X66368618Y-162809881D02*
X66555921Y-162346289D01*
X66739491Y-162959724D02*
X66143854Y-163366191D01*
X65997744Y-162660038D02*
X66739491Y-162959724D01*
X66143854Y-163366191D02*
X65997744Y-162660038D01*
X66143854Y-163366191D02*
X66653805Y-163572225D01*
X66143854Y-163366191D02*
X65633903Y-163160158D01*
X65994011Y-163737065D02*
X66143854Y-163366191D01*
%TO.C,D5*%
X73486142Y-145193388D02*
X73673445Y-144729796D01*
X73857015Y-145343231D02*
X73261378Y-145749698D01*
X73115268Y-145043545D02*
X73857015Y-145343231D01*
X73261378Y-145749698D02*
X73115268Y-145043545D01*
X73261378Y-145749698D02*
X73771329Y-145955732D01*
X73261378Y-145749698D02*
X72751427Y-145543665D01*
X73111535Y-146120572D02*
X73261378Y-145749698D01*
%TO.C,D6*%
X80603668Y-127576894D02*
X80790971Y-127113302D01*
X80974541Y-127726737D02*
X80378904Y-128133204D01*
X80232794Y-127427051D02*
X80974541Y-127726737D01*
X80378904Y-128133204D02*
X80232794Y-127427051D01*
X80378904Y-128133204D02*
X80888855Y-128339238D01*
X80378904Y-128133204D02*
X79868953Y-127927171D01*
X80229061Y-128504078D02*
X80378904Y-128133204D01*
%TO.C,D7*%
X89918635Y-159274130D02*
X90145630Y-158828627D01*
X90275037Y-159455727D02*
X89646240Y-159808734D01*
X89562232Y-159092534D02*
X90275037Y-159455727D01*
X89646240Y-159808734D02*
X89562232Y-159092534D01*
X89646240Y-159808734D02*
X90136294Y-160058429D01*
X89646240Y-159808734D02*
X89156187Y-159559040D01*
X89464644Y-160165137D02*
X89646240Y-159808734D01*
%TO.C,D8*%
X98544456Y-142345004D02*
X98771451Y-141899501D01*
X98900858Y-142526601D02*
X98272061Y-142879608D01*
X98188053Y-142163408D02*
X98900858Y-142526601D01*
X98272061Y-142879608D02*
X98188053Y-142163408D01*
X98272061Y-142879608D02*
X98762115Y-143129303D01*
X98272061Y-142879608D02*
X97782008Y-142629914D01*
X98090465Y-143236011D02*
X98272061Y-142879608D01*
%TO.C,D9*%
X107170273Y-125415881D02*
X107397268Y-124970378D01*
X107526675Y-125597478D02*
X106897878Y-125950485D01*
X106813870Y-125234285D02*
X107526675Y-125597478D01*
X106897878Y-125950485D02*
X106813870Y-125234285D01*
X106897878Y-125950485D02*
X107387932Y-126200180D01*
X106897878Y-125950485D02*
X106407825Y-125700791D01*
X106716282Y-126306888D02*
X106897878Y-125950485D01*
%TO.C,D10*%
X102791426Y-179188509D02*
X103056385Y-178764485D01*
X103130645Y-179400477D02*
X102473474Y-179697338D01*
X102452207Y-178976541D02*
X103130645Y-179400477D01*
X102473474Y-179697338D02*
X102452207Y-178976541D01*
X102473474Y-179697338D02*
X102939901Y-179988793D01*
X102473474Y-179697338D02*
X102007048Y-179405882D01*
X102261507Y-180036557D02*
X102473474Y-179697338D01*
%TO.C,D11*%
X112859894Y-163075596D02*
X113124853Y-162651572D01*
X113199113Y-163287564D02*
X112541942Y-163584425D01*
X112520675Y-162863628D02*
X113199113Y-163287564D01*
X112541942Y-163584425D02*
X112520675Y-162863628D01*
X112541942Y-163584425D02*
X113008369Y-163875880D01*
X112541942Y-163584425D02*
X112075516Y-163292969D01*
X112329975Y-163923644D02*
X112541942Y-163584425D01*
%TO.C,D12*%
X122928363Y-146962683D02*
X123193322Y-146538659D01*
X123267582Y-147174651D02*
X122610411Y-147471512D01*
X122589144Y-146750715D02*
X123267582Y-147174651D01*
X122610411Y-147471512D02*
X122589144Y-146750715D01*
X122610411Y-147471512D02*
X123076838Y-147762967D01*
X122610411Y-147471512D02*
X122143985Y-147180056D01*
X122398444Y-147810731D02*
X122610411Y-147471512D01*
%TO.C,D13*%
X117844505Y-190953073D02*
X118109464Y-190529049D01*
X118183724Y-191165041D02*
X117526553Y-191461902D01*
X117505286Y-190741105D02*
X118183724Y-191165041D01*
X117526553Y-191461902D02*
X117505286Y-190741105D01*
X117526553Y-191461902D02*
X117992980Y-191753357D01*
X117526553Y-191461902D02*
X117060127Y-191170446D01*
X117314586Y-191801121D02*
X117526553Y-191461902D01*
%TO.C,D14*%
X127912970Y-174840159D02*
X128177929Y-174416135D01*
X128252189Y-175052127D02*
X127595018Y-175348988D01*
X127573751Y-174628191D02*
X128252189Y-175052127D01*
X127595018Y-175348988D02*
X127573751Y-174628191D01*
X127595018Y-175348988D02*
X128061445Y-175640443D01*
X127595018Y-175348988D02*
X127128592Y-175057532D01*
X127383051Y-175688207D02*
X127595018Y-175348988D01*
%TO.C,D15*%
X137981434Y-158727244D02*
X138246393Y-158303220D01*
X138320653Y-158939212D02*
X137663482Y-159236073D01*
X137642215Y-158515276D02*
X138320653Y-158939212D01*
X137663482Y-159236073D02*
X137642215Y-158515276D01*
X137663482Y-159236073D02*
X138129909Y-159527528D01*
X137663482Y-159236073D02*
X137197056Y-158944617D01*
X137451515Y-159575292D02*
X137663482Y-159236073D01*
%TO.C,D16*%
X104383847Y-204946309D02*
X104648806Y-204522285D01*
X104723066Y-205158277D02*
X104065895Y-205455138D01*
X104044628Y-204734341D02*
X104723066Y-205158277D01*
X104065895Y-205455138D02*
X104044628Y-204734341D01*
X104065895Y-205455138D02*
X104532322Y-205746593D01*
X104065895Y-205455138D02*
X103599469Y-205163682D01*
X103853928Y-205794357D02*
X104065895Y-205455138D01*
%TO.C,D17*%
X118339582Y-221430677D02*
X118722604Y-221109283D01*
X118596697Y-221737095D02*
X117879955Y-221816350D01*
X118082467Y-221124259D02*
X118596697Y-221737095D01*
X117879955Y-221816350D02*
X118082467Y-221124259D01*
X117879955Y-221816350D02*
X118233489Y-222237674D01*
X117879955Y-221816350D02*
X117526422Y-221395025D01*
X117573538Y-222073465D02*
X117879955Y-221816350D01*
%TO.C,D18*%
X126652416Y-241340235D02*
X127116008Y-241152932D01*
X126802259Y-241711109D02*
X126096106Y-241564999D01*
X126502573Y-240969362D02*
X126802259Y-241711109D01*
X126096106Y-241564999D02*
X126502573Y-240969362D01*
X126096106Y-241564999D02*
X126302139Y-242074950D01*
X126096106Y-241564999D02*
X125890072Y-241055048D01*
X125725232Y-241714842D02*
X126096106Y-241564999D01*
%TO.C,D19*%
X248675315Y-172035534D02*
X248571359Y-171546460D01*
X249066574Y-171952369D02*
X248800062Y-172622423D01*
X248284056Y-172118699D02*
X249066574Y-171952369D01*
X248800062Y-172622423D02*
X248284056Y-172118699D01*
X248800062Y-172622423D02*
X249338043Y-172508071D01*
X248800062Y-172622423D02*
X248262081Y-172736774D01*
X248883227Y-173013682D02*
X248800062Y-172622423D01*
%TO.C,D20*%
X244724991Y-153450729D02*
X244621035Y-152961655D01*
X245116250Y-153367564D02*
X244849738Y-154037618D01*
X244333732Y-153533894D02*
X245116250Y-153367564D01*
X244849738Y-154037618D02*
X244333732Y-153533894D01*
X244849738Y-154037618D02*
X245387719Y-153923266D01*
X244849738Y-154037618D02*
X244311757Y-154151969D01*
X244932903Y-154428877D02*
X244849738Y-154037618D01*
%TO.C,D21*%
X240774671Y-134865925D02*
X240670715Y-134376851D01*
X241165930Y-134782760D02*
X240899418Y-135452814D01*
X240383412Y-134949090D02*
X241165930Y-134782760D01*
X240899418Y-135452814D02*
X240383412Y-134949090D01*
X240899418Y-135452814D02*
X241437399Y-135338462D01*
X240899418Y-135452814D02*
X240361437Y-135567165D01*
X240982583Y-135844073D02*
X240899418Y-135452814D01*
%TO.C,D22*%
X224376156Y-162809881D02*
X224188853Y-162346289D01*
X224747030Y-162660038D02*
X224600920Y-163366191D01*
X224005283Y-162959724D02*
X224747030Y-162660038D01*
X224600920Y-163366191D02*
X224005283Y-162959724D01*
X224600920Y-163366191D02*
X225110871Y-163160158D01*
X224600920Y-163366191D02*
X224090969Y-163572225D01*
X224750763Y-163737065D02*
X224600920Y-163366191D01*
%TO.C,D23*%
X217258632Y-145193389D02*
X217071329Y-144729797D01*
X217629506Y-145043546D02*
X217483396Y-145749699D01*
X216887759Y-145343232D02*
X217629506Y-145043546D01*
X217483396Y-145749699D02*
X216887759Y-145343232D01*
X217483396Y-145749699D02*
X217993347Y-145543666D01*
X217483396Y-145749699D02*
X216973445Y-145955733D01*
X217633239Y-146120573D02*
X217483396Y-145749699D01*
%TO.C,D24*%
X210141106Y-127576893D02*
X209953803Y-127113301D01*
X210511980Y-127427050D02*
X210365870Y-128133203D01*
X209770233Y-127726736D02*
X210511980Y-127427050D01*
X210365870Y-128133203D02*
X209770233Y-127726736D01*
X210365870Y-128133203D02*
X210875821Y-127927170D01*
X210365870Y-128133203D02*
X209855919Y-128339237D01*
X210515713Y-128504077D02*
X210365870Y-128133203D01*
%TO.C,D25*%
X200826138Y-159274128D02*
X200599143Y-158828625D01*
X201182541Y-159092532D02*
X201098533Y-159808732D01*
X200469736Y-159455725D02*
X201182541Y-159092532D01*
X201098533Y-159808732D02*
X200469736Y-159455725D01*
X201098533Y-159808732D02*
X201588586Y-159559038D01*
X201098533Y-159808732D02*
X200608479Y-160058427D01*
X201280129Y-160165135D02*
X201098533Y-159808732D01*
%TO.C,D26*%
X192200316Y-142345004D02*
X191973321Y-141899501D01*
X192556719Y-142163408D02*
X192472711Y-142879608D01*
X191843914Y-142526601D02*
X192556719Y-142163408D01*
X192472711Y-142879608D02*
X191843914Y-142526601D01*
X192472711Y-142879608D02*
X192962764Y-142629914D01*
X192472711Y-142879608D02*
X191982657Y-143129303D01*
X192654307Y-143236011D02*
X192472711Y-142879608D01*
%TO.C,D27*%
X183574499Y-125415882D02*
X183347504Y-124970379D01*
X183930902Y-125234286D02*
X183846894Y-125950486D01*
X183218097Y-125597479D02*
X183930902Y-125234286D01*
X183846894Y-125950486D02*
X183218097Y-125597479D01*
X183846894Y-125950486D02*
X184336947Y-125700792D01*
X183846894Y-125950486D02*
X183356840Y-126200181D01*
X184028490Y-126306889D02*
X183846894Y-125950486D01*
%TO.C,D28*%
X187953346Y-179188511D02*
X187688387Y-178764487D01*
X188292565Y-178976543D02*
X188271298Y-179697340D01*
X187614127Y-179400479D02*
X188292565Y-178976543D01*
X188271298Y-179697340D02*
X187614127Y-179400479D01*
X188271298Y-179697340D02*
X188737724Y-179405884D01*
X188271298Y-179697340D02*
X187804871Y-179988795D01*
X188483265Y-180036559D02*
X188271298Y-179697340D01*
%TO.C,D29*%
X177884880Y-163075597D02*
X177619921Y-162651573D01*
X178224099Y-162863629D02*
X178202832Y-163584426D01*
X177545661Y-163287565D02*
X178224099Y-162863629D01*
X178202832Y-163584426D02*
X177545661Y-163287565D01*
X178202832Y-163584426D02*
X178669258Y-163292970D01*
X178202832Y-163584426D02*
X177736405Y-163875881D01*
X178414799Y-163923645D02*
X178202832Y-163584426D01*
%TO.C,D30*%
X167816414Y-146962682D02*
X167551455Y-146538658D01*
X168155633Y-146750714D02*
X168134366Y-147471511D01*
X167477195Y-147174650D02*
X168155633Y-146750714D01*
X168134366Y-147471511D02*
X167477195Y-147174650D01*
X168134366Y-147471511D02*
X168600792Y-147180055D01*
X168134366Y-147471511D02*
X167667939Y-147762966D01*
X168346333Y-147810730D02*
X168134366Y-147471511D01*
%TO.C,D31*%
X172900272Y-190953071D02*
X172635313Y-190529047D01*
X173239491Y-190741103D02*
X173218224Y-191461900D01*
X172561053Y-191165039D02*
X173239491Y-190741103D01*
X173218224Y-191461900D02*
X172561053Y-191165039D01*
X173218224Y-191461900D02*
X173684650Y-191170444D01*
X173218224Y-191461900D02*
X172751797Y-191753355D01*
X173430191Y-191801119D02*
X173218224Y-191461900D01*
%TO.C,D32*%
X162831805Y-174840160D02*
X162566846Y-174416136D01*
X163171024Y-174628192D02*
X163149757Y-175348989D01*
X162492586Y-175052128D02*
X163171024Y-174628192D01*
X163149757Y-175348989D02*
X162492586Y-175052128D01*
X163149757Y-175348989D02*
X163616183Y-175057533D01*
X163149757Y-175348989D02*
X162683330Y-175640444D01*
X163361724Y-175688208D02*
X163149757Y-175348989D01*
%TO.C,D33*%
X152763339Y-158727246D02*
X152498380Y-158303222D01*
X153102558Y-158515278D02*
X153081291Y-159236075D01*
X152424120Y-158939214D02*
X153102558Y-158515278D01*
X153081291Y-159236075D02*
X152424120Y-158939214D01*
X153081291Y-159236075D02*
X153547717Y-158944619D01*
X153081291Y-159236075D02*
X152614864Y-159527530D01*
X153293258Y-159575294D02*
X153081291Y-159236075D01*
%TO.C,D34*%
X186360928Y-204946311D02*
X186095969Y-204522287D01*
X186700147Y-204734343D02*
X186678880Y-205455140D01*
X186021709Y-205158279D02*
X186700147Y-204734343D01*
X186678880Y-205455140D02*
X186021709Y-205158279D01*
X186678880Y-205455140D02*
X187145306Y-205163684D01*
X186678880Y-205455140D02*
X186212453Y-205746595D01*
X186890847Y-205794359D02*
X186678880Y-205455140D01*
%TO.C,D35*%
X172405194Y-221430675D02*
X172022172Y-221109281D01*
X172662309Y-221124257D02*
X172864821Y-221816348D01*
X172148079Y-221737093D02*
X172662309Y-221124257D01*
X172864821Y-221816348D02*
X172148079Y-221737093D01*
X172864821Y-221816348D02*
X173218354Y-221395023D01*
X172864821Y-221816348D02*
X172511287Y-222237672D01*
X173171238Y-222073463D02*
X172864821Y-221816348D01*
%TO.C,D36*%
X164092359Y-241340234D02*
X163628767Y-241152931D01*
X164242202Y-240969361D02*
X164648669Y-241564998D01*
X163942516Y-241711108D02*
X164242202Y-240969361D01*
X164648669Y-241564998D02*
X163942516Y-241711108D01*
X164648669Y-241564998D02*
X164854703Y-241055047D01*
X164648669Y-241564998D02*
X164442636Y-242074949D01*
X165019543Y-241714841D02*
X164648669Y-241564998D01*
D10*
%TO.C,B2*%
X161349942Y-111422644D02*
X159282991Y-111899837D01*
X162674740Y-109302524D02*
X162197547Y-107235573D01*
X162674740Y-109302524D02*
X161349942Y-111422644D01*
X157162871Y-110575039D02*
X159282991Y-111899837D01*
X160077427Y-105910775D02*
X162197547Y-107235573D01*
X156685678Y-108508088D02*
X157162871Y-110575039D01*
X158010476Y-106387968D02*
X160077427Y-105910775D01*
X158010476Y-106387968D02*
X156685678Y-108508088D01*
D11*
%TO.C,LED1*%
X31014948Y-162478323D02*
X32579984Y-162810982D01*
X30682289Y-164043360D02*
X31014948Y-162478323D01*
%TO.C,LED2*%
X34965269Y-143893519D02*
X36530305Y-144226178D01*
X34632610Y-145458556D02*
X34965269Y-143893519D01*
%TO.C,LED3*%
X38915592Y-125308716D02*
X40480628Y-125641375D01*
X38582933Y-126873753D02*
X38915592Y-125308716D01*
%TO.C,LED4*%
X57141644Y-151478270D02*
X58625138Y-152077640D01*
X56542273Y-152961764D02*
X57141644Y-151478270D01*
%TO.C,LED5*%
X64259166Y-133861777D02*
X65742660Y-134461147D01*
X63659795Y-135345271D02*
X64259166Y-133861777D01*
%TO.C,LED6*%
X71376691Y-116245283D02*
X72860185Y-116844653D01*
X70777320Y-117728777D02*
X71376691Y-116245283D01*
%TO.C,LED7*%
X81714386Y-147181457D02*
X83139996Y-147907841D01*
X80988001Y-148607067D02*
X81714386Y-147181457D01*
%TO.C,LED8*%
X90340204Y-130252332D02*
X91765814Y-130978716D01*
X89613819Y-131677942D02*
X90340204Y-130252332D01*
%TO.C,LED9*%
X98966026Y-113323207D02*
X100391636Y-114049591D01*
X98239641Y-114748817D02*
X98966026Y-113323207D01*
%TO.C,LED10*%
X95672342Y-166426804D02*
X97029219Y-167274675D01*
X94824471Y-167783681D02*
X95672342Y-166426804D01*
%TO.C,LED11*%
X105740810Y-150313891D02*
X107097687Y-151161762D01*
X104892939Y-151670768D02*
X105740810Y-150313891D01*
%TO.C,LED12*%
X115809276Y-134200978D02*
X117166153Y-135048849D01*
X114961405Y-135557855D02*
X115809276Y-134200978D01*
%TO.C,LED13*%
X110725417Y-178191369D02*
X112082294Y-179039240D01*
X109877546Y-179548246D02*
X110725417Y-178191369D01*
%TO.C,LED14*%
X120793882Y-162078454D02*
X122150759Y-162926325D01*
X119946011Y-163435331D02*
X120793882Y-162078454D01*
%TO.C,LED15*%
X130862350Y-145965539D02*
X132219227Y-146813410D01*
X130014479Y-147322416D02*
X130862350Y-145965539D01*
%TO.C,LED16*%
X97264759Y-192184600D02*
X98621636Y-193032471D01*
X96416888Y-193541477D02*
X97264759Y-192184600D01*
%TO.C,LED17*%
X115512513Y-207093657D02*
X116540973Y-208319328D01*
X114286842Y-208122117D02*
X115512513Y-207093657D01*
%TO.C,LED18*%
X128394100Y-226831305D02*
X128993471Y-228314799D01*
X126910606Y-227430675D02*
X128394100Y-226831305D01*
%TO.C,LED19*%
X252295904Y-164058454D02*
X253860941Y-163725796D01*
X252628563Y-165623490D02*
X252295904Y-164058454D01*
%TO.C,LED20*%
X248345582Y-145473647D02*
X249910619Y-145140989D01*
X248678241Y-147038683D02*
X248345582Y-145473647D01*
%TO.C,LED21*%
X244395260Y-126888841D02*
X245960297Y-126556183D01*
X244727919Y-128453877D02*
X244395260Y-126888841D01*
%TO.C,LED22*%
X226556535Y-154325280D02*
X228040029Y-153725909D01*
X227155905Y-155808774D02*
X226556535Y-154325280D01*
%TO.C,LED23*%
X219439012Y-136708788D02*
X220922506Y-136109417D01*
X220038382Y-138192282D02*
X219439012Y-136708788D01*
%TO.C,LED24*%
X212321486Y-119092295D02*
X213804980Y-118492924D01*
X212920856Y-120575789D02*
X212321486Y-119092295D01*
%TO.C,LED25*%
X202258741Y-150631783D02*
X203684352Y-149905399D01*
X202985126Y-152057394D02*
X202258741Y-150631783D01*
%TO.C,LED26*%
X193632919Y-133702658D02*
X195058530Y-132976274D01*
X194359304Y-135128269D02*
X193632919Y-133702658D01*
%TO.C,LED27*%
X185007103Y-116773534D02*
X186432714Y-116047150D01*
X185733488Y-118199145D02*
X185007103Y-116773534D01*
%TO.C,LED28*%
X188627265Y-170454191D02*
X189984142Y-169606320D01*
X189475136Y-171811068D02*
X188627265Y-170454191D01*
%TO.C,LED29*%
X178558801Y-154341276D02*
X179915678Y-153493405D01*
X179406672Y-155698153D02*
X178558801Y-154341276D01*
%TO.C,LED30*%
X168490331Y-138228364D02*
X169847208Y-137380493D01*
X169338202Y-139585241D02*
X168490331Y-138228364D01*
%TO.C,LED31*%
X173574192Y-182218752D02*
X174931069Y-181370881D01*
X174422063Y-183575629D02*
X173574192Y-182218752D01*
%TO.C,LED32*%
X163505725Y-166105840D02*
X164862602Y-165257969D01*
X164353596Y-167462717D02*
X163505725Y-166105840D01*
%TO.C,LED33*%
X153437260Y-149992925D02*
X154794137Y-149145054D01*
X154285131Y-151349802D02*
X153437260Y-149992925D01*
%TO.C,LED34*%
X187034848Y-196211986D02*
X188391725Y-195364115D01*
X187882719Y-197568863D02*
X187034848Y-196211986D01*
%TO.C,LED35*%
X170347076Y-212915594D02*
X171375536Y-211689923D01*
X171572747Y-213944054D02*
X170347076Y-212915594D01*
%TO.C,LED36*%
X159503666Y-233877902D02*
X160103036Y-232394408D01*
X160987160Y-234477273D02*
X159503666Y-233877902D01*
%TD*%
M02*
