%TF.GenerationSoftware,KiCad,Pcbnew,7.0.9*%
%TF.CreationDate,2023-11-27T23:54:21-05:00*%
%TF.ProjectId,main_r2,6d61696e-5f72-4322-9e6b-696361645f70,0.1*%
%TF.SameCoordinates,Original*%
%TF.FileFunction,Legend,Top*%
%TF.FilePolarity,Positive*%
%FSLAX46Y46*%
G04 Gerber Fmt 4.6, Leading zero omitted, Abs format (unit mm)*
G04 Created by KiCad (PCBNEW 7.0.9) date 2023-11-27 23:54:21*
%MOMM*%
%LPD*%
G01*
G04 APERTURE LIST*
%ADD10C,0.150000*%
%ADD11C,0.100000*%
%ADD12C,0.120000*%
G04 APERTURE END LIST*
D10*
X127134913Y-109681268D02*
X126801580Y-109205077D01*
X126563485Y-109681268D02*
X126563485Y-108681268D01*
X126563485Y-108681268D02*
X126944437Y-108681268D01*
X126944437Y-108681268D02*
X127039675Y-108728887D01*
X127039675Y-108728887D02*
X127087294Y-108776506D01*
X127087294Y-108776506D02*
X127134913Y-108871744D01*
X127134913Y-108871744D02*
X127134913Y-109014601D01*
X127134913Y-109014601D02*
X127087294Y-109109839D01*
X127087294Y-109109839D02*
X127039675Y-109157458D01*
X127039675Y-109157458D02*
X126944437Y-109205077D01*
X126944437Y-109205077D02*
X126563485Y-109205077D01*
X127515866Y-109395553D02*
X127992056Y-109395553D01*
X127420628Y-109681268D02*
X127753961Y-108681268D01*
X127753961Y-108681268D02*
X128087294Y-109681268D01*
X128325390Y-108681268D02*
X128563485Y-109681268D01*
X128563485Y-109681268D02*
X128753961Y-108966982D01*
X128753961Y-108966982D02*
X128944437Y-109681268D01*
X128944437Y-109681268D02*
X129182533Y-108681268D01*
X127307537Y-104592979D02*
X126831347Y-104592979D01*
X126831347Y-104592979D02*
X126831347Y-103592979D01*
X127640871Y-104069169D02*
X127974204Y-104069169D01*
X128117061Y-104592979D02*
X127640871Y-104592979D01*
X127640871Y-104592979D02*
X127640871Y-103592979D01*
X127640871Y-103592979D02*
X128117061Y-103592979D01*
X128545633Y-104592979D02*
X128545633Y-103592979D01*
X128545633Y-103592979D02*
X128783728Y-103592979D01*
X128783728Y-103592979D02*
X128926585Y-103640598D01*
X128926585Y-103640598D02*
X129021823Y-103735836D01*
X129021823Y-103735836D02*
X129069442Y-103831074D01*
X129069442Y-103831074D02*
X129117061Y-104021550D01*
X129117061Y-104021550D02*
X129117061Y-104164407D01*
X129117061Y-104164407D02*
X129069442Y-104354883D01*
X129069442Y-104354883D02*
X129021823Y-104450121D01*
X129021823Y-104450121D02*
X128926585Y-104545360D01*
X128926585Y-104545360D02*
X128783728Y-104592979D01*
X128783728Y-104592979D02*
X128545633Y-104592979D01*
X129241337Y-110074882D02*
X129146099Y-110027263D01*
X129146099Y-110027263D02*
X129003242Y-110027263D01*
X129003242Y-110027263D02*
X128860385Y-110074882D01*
X128860385Y-110074882D02*
X128765147Y-110170120D01*
X128765147Y-110170120D02*
X128717528Y-110265358D01*
X128717528Y-110265358D02*
X128669909Y-110455834D01*
X128669909Y-110455834D02*
X128669909Y-110598691D01*
X128669909Y-110598691D02*
X128717528Y-110789167D01*
X128717528Y-110789167D02*
X128765147Y-110884405D01*
X128765147Y-110884405D02*
X128860385Y-110979644D01*
X128860385Y-110979644D02*
X129003242Y-111027263D01*
X129003242Y-111027263D02*
X129098480Y-111027263D01*
X129098480Y-111027263D02*
X129241337Y-110979644D01*
X129241337Y-110979644D02*
X129288956Y-110932024D01*
X129288956Y-110932024D02*
X129288956Y-110598691D01*
X129288956Y-110598691D02*
X129098480Y-110598691D01*
X129717528Y-111027263D02*
X129717528Y-110027263D01*
X129717528Y-110027263D02*
X130288956Y-111027263D01*
X130288956Y-111027263D02*
X130288956Y-110027263D01*
X130765147Y-111027263D02*
X130765147Y-110027263D01*
X130765147Y-110027263D02*
X131003242Y-110027263D01*
X131003242Y-110027263D02*
X131146099Y-110074882D01*
X131146099Y-110074882D02*
X131241337Y-110170120D01*
X131241337Y-110170120D02*
X131288956Y-110265358D01*
X131288956Y-110265358D02*
X131336575Y-110455834D01*
X131336575Y-110455834D02*
X131336575Y-110598691D01*
X131336575Y-110598691D02*
X131288956Y-110789167D01*
X131288956Y-110789167D02*
X131241337Y-110884405D01*
X131241337Y-110884405D02*
X131146099Y-110979644D01*
X131146099Y-110979644D02*
X131003242Y-111027263D01*
X131003242Y-111027263D02*
X130765147Y-111027263D01*
X129080627Y-105938974D02*
X129080627Y-104938974D01*
X129080627Y-104938974D02*
X129318722Y-104938974D01*
X129318722Y-104938974D02*
X129461579Y-104986593D01*
X129461579Y-104986593D02*
X129556817Y-105081831D01*
X129556817Y-105081831D02*
X129604436Y-105177069D01*
X129604436Y-105177069D02*
X129652055Y-105367545D01*
X129652055Y-105367545D02*
X129652055Y-105510402D01*
X129652055Y-105510402D02*
X129604436Y-105700878D01*
X129604436Y-105700878D02*
X129556817Y-105796116D01*
X129556817Y-105796116D02*
X129461579Y-105891355D01*
X129461579Y-105891355D02*
X129318722Y-105938974D01*
X129318722Y-105938974D02*
X129080627Y-105938974D01*
X130033008Y-105653259D02*
X130509198Y-105653259D01*
X129937770Y-105938974D02*
X130271103Y-104938974D01*
X130271103Y-104938974D02*
X130604436Y-105938974D01*
X130794913Y-104938974D02*
X131366341Y-104938974D01*
X131080627Y-105938974D02*
X131080627Y-104938974D01*
X131442998Y-112373257D02*
X131109665Y-111897066D01*
X130871570Y-112373257D02*
X130871570Y-111373257D01*
X130871570Y-111373257D02*
X131252522Y-111373257D01*
X131252522Y-111373257D02*
X131347760Y-111420876D01*
X131347760Y-111420876D02*
X131395379Y-111468495D01*
X131395379Y-111468495D02*
X131442998Y-111563733D01*
X131442998Y-111563733D02*
X131442998Y-111706590D01*
X131442998Y-111706590D02*
X131395379Y-111801828D01*
X131395379Y-111801828D02*
X131347760Y-111849447D01*
X131347760Y-111849447D02*
X131252522Y-111897066D01*
X131252522Y-111897066D02*
X130871570Y-111897066D01*
X131823951Y-112325638D02*
X131966808Y-112373257D01*
X131966808Y-112373257D02*
X132204903Y-112373257D01*
X132204903Y-112373257D02*
X132300141Y-112325638D01*
X132300141Y-112325638D02*
X132347760Y-112278018D01*
X132347760Y-112278018D02*
X132395379Y-112182780D01*
X132395379Y-112182780D02*
X132395379Y-112087542D01*
X132395379Y-112087542D02*
X132347760Y-111992304D01*
X132347760Y-111992304D02*
X132300141Y-111944685D01*
X132300141Y-111944685D02*
X132204903Y-111897066D01*
X132204903Y-111897066D02*
X132014427Y-111849447D01*
X132014427Y-111849447D02*
X131919189Y-111801828D01*
X131919189Y-111801828D02*
X131871570Y-111754209D01*
X131871570Y-111754209D02*
X131823951Y-111658971D01*
X131823951Y-111658971D02*
X131823951Y-111563733D01*
X131823951Y-111563733D02*
X131871570Y-111468495D01*
X131871570Y-111468495D02*
X131919189Y-111420876D01*
X131919189Y-111420876D02*
X132014427Y-111373257D01*
X132014427Y-111373257D02*
X132252522Y-111373257D01*
X132252522Y-111373257D02*
X132395379Y-111420876D01*
X132681094Y-111373257D02*
X133252522Y-111373257D01*
X132966808Y-112373257D02*
X132966808Y-111373257D01*
X131329907Y-106332588D02*
X131234669Y-106284969D01*
X131234669Y-106284969D02*
X131091812Y-106284969D01*
X131091812Y-106284969D02*
X130948955Y-106332588D01*
X130948955Y-106332588D02*
X130853717Y-106427826D01*
X130853717Y-106427826D02*
X130806098Y-106523064D01*
X130806098Y-106523064D02*
X130758479Y-106713540D01*
X130758479Y-106713540D02*
X130758479Y-106856397D01*
X130758479Y-106856397D02*
X130806098Y-107046873D01*
X130806098Y-107046873D02*
X130853717Y-107142111D01*
X130853717Y-107142111D02*
X130948955Y-107237350D01*
X130948955Y-107237350D02*
X131091812Y-107284969D01*
X131091812Y-107284969D02*
X131187050Y-107284969D01*
X131187050Y-107284969D02*
X131329907Y-107237350D01*
X131329907Y-107237350D02*
X131377526Y-107189730D01*
X131377526Y-107189730D02*
X131377526Y-106856397D01*
X131377526Y-106856397D02*
X131187050Y-106856397D01*
X131806098Y-107284969D02*
X131806098Y-106284969D01*
X131806098Y-106284969D02*
X132377526Y-107284969D01*
X132377526Y-107284969D02*
X132377526Y-106284969D01*
X132853717Y-107284969D02*
X132853717Y-106284969D01*
X132853717Y-106284969D02*
X133091812Y-106284969D01*
X133091812Y-106284969D02*
X133234669Y-106332588D01*
X133234669Y-106332588D02*
X133329907Y-106427826D01*
X133329907Y-106427826D02*
X133377526Y-106523064D01*
X133377526Y-106523064D02*
X133425145Y-106713540D01*
X133425145Y-106713540D02*
X133425145Y-106856397D01*
X133425145Y-106856397D02*
X133377526Y-107046873D01*
X133377526Y-107046873D02*
X133329907Y-107142111D01*
X133329907Y-107142111D02*
X133234669Y-107237350D01*
X133234669Y-107237350D02*
X133091812Y-107284969D01*
X133091812Y-107284969D02*
X132853717Y-107284969D01*
X132882755Y-112719252D02*
X133216088Y-113719252D01*
X133216088Y-113719252D02*
X133549421Y-112719252D01*
X134454183Y-113624013D02*
X134406564Y-113671633D01*
X134406564Y-113671633D02*
X134263707Y-113719252D01*
X134263707Y-113719252D02*
X134168469Y-113719252D01*
X134168469Y-113719252D02*
X134025612Y-113671633D01*
X134025612Y-113671633D02*
X133930374Y-113576394D01*
X133930374Y-113576394D02*
X133882755Y-113481156D01*
X133882755Y-113481156D02*
X133835136Y-113290680D01*
X133835136Y-113290680D02*
X133835136Y-113147823D01*
X133835136Y-113147823D02*
X133882755Y-112957347D01*
X133882755Y-112957347D02*
X133930374Y-112862109D01*
X133930374Y-112862109D02*
X134025612Y-112766871D01*
X134025612Y-112766871D02*
X134168469Y-112719252D01*
X134168469Y-112719252D02*
X134263707Y-112719252D01*
X134263707Y-112719252D02*
X134406564Y-112766871D01*
X134406564Y-112766871D02*
X134454183Y-112814490D01*
X135454183Y-113624013D02*
X135406564Y-113671633D01*
X135406564Y-113671633D02*
X135263707Y-113719252D01*
X135263707Y-113719252D02*
X135168469Y-113719252D01*
X135168469Y-113719252D02*
X135025612Y-113671633D01*
X135025612Y-113671633D02*
X134930374Y-113576394D01*
X134930374Y-113576394D02*
X134882755Y-113481156D01*
X134882755Y-113481156D02*
X134835136Y-113290680D01*
X134835136Y-113290680D02*
X134835136Y-113147823D01*
X134835136Y-113147823D02*
X134882755Y-112957347D01*
X134882755Y-112957347D02*
X134930374Y-112862109D01*
X134930374Y-112862109D02*
X135025612Y-112766871D01*
X135025612Y-112766871D02*
X135168469Y-112719252D01*
X135168469Y-112719252D02*
X135263707Y-112719252D01*
X135263707Y-112719252D02*
X135406564Y-112766871D01*
X135406564Y-112766871D02*
X135454183Y-112814490D01*
X133483949Y-107678583D02*
X133388711Y-107630964D01*
X133388711Y-107630964D02*
X133245854Y-107630964D01*
X133245854Y-107630964D02*
X133102997Y-107678583D01*
X133102997Y-107678583D02*
X133007759Y-107773821D01*
X133007759Y-107773821D02*
X132960140Y-107869059D01*
X132960140Y-107869059D02*
X132912521Y-108059535D01*
X132912521Y-108059535D02*
X132912521Y-108202392D01*
X132912521Y-108202392D02*
X132960140Y-108392868D01*
X132960140Y-108392868D02*
X133007759Y-108488106D01*
X133007759Y-108488106D02*
X133102997Y-108583345D01*
X133102997Y-108583345D02*
X133245854Y-108630964D01*
X133245854Y-108630964D02*
X133341092Y-108630964D01*
X133341092Y-108630964D02*
X133483949Y-108583345D01*
X133483949Y-108583345D02*
X133531568Y-108535725D01*
X133531568Y-108535725D02*
X133531568Y-108202392D01*
X133531568Y-108202392D02*
X133341092Y-108202392D01*
X133960140Y-108630964D02*
X133960140Y-107630964D01*
X133960140Y-107630964D02*
X134531568Y-108630964D01*
X134531568Y-108630964D02*
X134531568Y-107630964D01*
X135007759Y-108630964D02*
X135007759Y-107630964D01*
X135007759Y-107630964D02*
X135245854Y-107630964D01*
X135245854Y-107630964D02*
X135388711Y-107678583D01*
X135388711Y-107678583D02*
X135483949Y-107773821D01*
X135483949Y-107773821D02*
X135531568Y-107869059D01*
X135531568Y-107869059D02*
X135579187Y-108059535D01*
X135579187Y-108059535D02*
X135579187Y-108202392D01*
X135579187Y-108202392D02*
X135531568Y-108392868D01*
X135531568Y-108392868D02*
X135483949Y-108488106D01*
X135483949Y-108488106D02*
X135388711Y-108583345D01*
X135388711Y-108583345D02*
X135245854Y-108630964D01*
X135245854Y-108630964D02*
X135007759Y-108630964D01*
X135751082Y-114970008D02*
X135703463Y-115017628D01*
X135703463Y-115017628D02*
X135560606Y-115065247D01*
X135560606Y-115065247D02*
X135465368Y-115065247D01*
X135465368Y-115065247D02*
X135322511Y-115017628D01*
X135322511Y-115017628D02*
X135227273Y-114922389D01*
X135227273Y-114922389D02*
X135179654Y-114827151D01*
X135179654Y-114827151D02*
X135132035Y-114636675D01*
X135132035Y-114636675D02*
X135132035Y-114493818D01*
X135132035Y-114493818D02*
X135179654Y-114303342D01*
X135179654Y-114303342D02*
X135227273Y-114208104D01*
X135227273Y-114208104D02*
X135322511Y-114112866D01*
X135322511Y-114112866D02*
X135465368Y-114065247D01*
X135465368Y-114065247D02*
X135560606Y-114065247D01*
X135560606Y-114065247D02*
X135703463Y-114112866D01*
X135703463Y-114112866D02*
X135751082Y-114160485D01*
X136370130Y-114065247D02*
X136465368Y-114065247D01*
X136465368Y-114065247D02*
X136560606Y-114112866D01*
X136560606Y-114112866D02*
X136608225Y-114160485D01*
X136608225Y-114160485D02*
X136655844Y-114255723D01*
X136655844Y-114255723D02*
X136703463Y-114446199D01*
X136703463Y-114446199D02*
X136703463Y-114684294D01*
X136703463Y-114684294D02*
X136655844Y-114874770D01*
X136655844Y-114874770D02*
X136608225Y-114970008D01*
X136608225Y-114970008D02*
X136560606Y-115017628D01*
X136560606Y-115017628D02*
X136465368Y-115065247D01*
X136465368Y-115065247D02*
X136370130Y-115065247D01*
X136370130Y-115065247D02*
X136274892Y-115017628D01*
X136274892Y-115017628D02*
X136227273Y-114970008D01*
X136227273Y-114970008D02*
X136179654Y-114874770D01*
X136179654Y-114874770D02*
X136132035Y-114684294D01*
X136132035Y-114684294D02*
X136132035Y-114446199D01*
X136132035Y-114446199D02*
X136179654Y-114255723D01*
X136179654Y-114255723D02*
X136227273Y-114160485D01*
X136227273Y-114160485D02*
X136274892Y-114112866D01*
X136274892Y-114112866D02*
X136370130Y-114065247D01*
X135304659Y-109929340D02*
X135447516Y-109976959D01*
X135447516Y-109976959D02*
X135685611Y-109976959D01*
X135685611Y-109976959D02*
X135780849Y-109929340D01*
X135780849Y-109929340D02*
X135828468Y-109881720D01*
X135828468Y-109881720D02*
X135876087Y-109786482D01*
X135876087Y-109786482D02*
X135876087Y-109691244D01*
X135876087Y-109691244D02*
X135828468Y-109596006D01*
X135828468Y-109596006D02*
X135780849Y-109548387D01*
X135780849Y-109548387D02*
X135685611Y-109500768D01*
X135685611Y-109500768D02*
X135495135Y-109453149D01*
X135495135Y-109453149D02*
X135399897Y-109405530D01*
X135399897Y-109405530D02*
X135352278Y-109357911D01*
X135352278Y-109357911D02*
X135304659Y-109262673D01*
X135304659Y-109262673D02*
X135304659Y-109167435D01*
X135304659Y-109167435D02*
X135352278Y-109072197D01*
X135352278Y-109072197D02*
X135399897Y-109024578D01*
X135399897Y-109024578D02*
X135495135Y-108976959D01*
X135495135Y-108976959D02*
X135733230Y-108976959D01*
X135733230Y-108976959D02*
X135876087Y-109024578D01*
X136304659Y-109976959D02*
X136304659Y-108976959D01*
X136304659Y-108976959D02*
X136542754Y-108976959D01*
X136542754Y-108976959D02*
X136685611Y-109024578D01*
X136685611Y-109024578D02*
X136780849Y-109119816D01*
X136780849Y-109119816D02*
X136828468Y-109215054D01*
X136828468Y-109215054D02*
X136876087Y-109405530D01*
X136876087Y-109405530D02*
X136876087Y-109548387D01*
X136876087Y-109548387D02*
X136828468Y-109738863D01*
X136828468Y-109738863D02*
X136780849Y-109834101D01*
X136780849Y-109834101D02*
X136685611Y-109929340D01*
X136685611Y-109929340D02*
X136542754Y-109976959D01*
X136542754Y-109976959D02*
X136304659Y-109976959D01*
X137257040Y-109691244D02*
X137733230Y-109691244D01*
X137161802Y-109976959D02*
X137495135Y-108976959D01*
X137495135Y-108976959D02*
X137828468Y-109976959D01*
X137905124Y-116316003D02*
X137857505Y-116363623D01*
X137857505Y-116363623D02*
X137714648Y-116411242D01*
X137714648Y-116411242D02*
X137619410Y-116411242D01*
X137619410Y-116411242D02*
X137476553Y-116363623D01*
X137476553Y-116363623D02*
X137381315Y-116268384D01*
X137381315Y-116268384D02*
X137333696Y-116173146D01*
X137333696Y-116173146D02*
X137286077Y-115982670D01*
X137286077Y-115982670D02*
X137286077Y-115839813D01*
X137286077Y-115839813D02*
X137333696Y-115649337D01*
X137333696Y-115649337D02*
X137381315Y-115554099D01*
X137381315Y-115554099D02*
X137476553Y-115458861D01*
X137476553Y-115458861D02*
X137619410Y-115411242D01*
X137619410Y-115411242D02*
X137714648Y-115411242D01*
X137714648Y-115411242D02*
X137857505Y-115458861D01*
X137857505Y-115458861D02*
X137905124Y-115506480D01*
X138857505Y-116411242D02*
X138286077Y-116411242D01*
X138571791Y-116411242D02*
X138571791Y-115411242D01*
X138571791Y-115411242D02*
X138476553Y-115554099D01*
X138476553Y-115554099D02*
X138381315Y-115649337D01*
X138381315Y-115649337D02*
X138286077Y-115696956D01*
X137506320Y-111275335D02*
X137649177Y-111322954D01*
X137649177Y-111322954D02*
X137887272Y-111322954D01*
X137887272Y-111322954D02*
X137982510Y-111275335D01*
X137982510Y-111275335D02*
X138030129Y-111227715D01*
X138030129Y-111227715D02*
X138077748Y-111132477D01*
X138077748Y-111132477D02*
X138077748Y-111037239D01*
X138077748Y-111037239D02*
X138030129Y-110942001D01*
X138030129Y-110942001D02*
X137982510Y-110894382D01*
X137982510Y-110894382D02*
X137887272Y-110846763D01*
X137887272Y-110846763D02*
X137696796Y-110799144D01*
X137696796Y-110799144D02*
X137601558Y-110751525D01*
X137601558Y-110751525D02*
X137553939Y-110703906D01*
X137553939Y-110703906D02*
X137506320Y-110608668D01*
X137506320Y-110608668D02*
X137506320Y-110513430D01*
X137506320Y-110513430D02*
X137553939Y-110418192D01*
X137553939Y-110418192D02*
X137601558Y-110370573D01*
X137601558Y-110370573D02*
X137696796Y-110322954D01*
X137696796Y-110322954D02*
X137934891Y-110322954D01*
X137934891Y-110322954D02*
X138077748Y-110370573D01*
X139077748Y-111227715D02*
X139030129Y-111275335D01*
X139030129Y-111275335D02*
X138887272Y-111322954D01*
X138887272Y-111322954D02*
X138792034Y-111322954D01*
X138792034Y-111322954D02*
X138649177Y-111275335D01*
X138649177Y-111275335D02*
X138553939Y-111180096D01*
X138553939Y-111180096D02*
X138506320Y-111084858D01*
X138506320Y-111084858D02*
X138458701Y-110894382D01*
X138458701Y-110894382D02*
X138458701Y-110751525D01*
X138458701Y-110751525D02*
X138506320Y-110561049D01*
X138506320Y-110561049D02*
X138553939Y-110465811D01*
X138553939Y-110465811D02*
X138649177Y-110370573D01*
X138649177Y-110370573D02*
X138792034Y-110322954D01*
X138792034Y-110322954D02*
X138887272Y-110322954D01*
X138887272Y-110322954D02*
X139030129Y-110370573D01*
X139030129Y-110370573D02*
X139077748Y-110418192D01*
X139982510Y-111322954D02*
X139506320Y-111322954D01*
X139506320Y-111322954D02*
X139506320Y-110322954D01*
X140059166Y-117661998D02*
X140011547Y-117709618D01*
X140011547Y-117709618D02*
X139868690Y-117757237D01*
X139868690Y-117757237D02*
X139773452Y-117757237D01*
X139773452Y-117757237D02*
X139630595Y-117709618D01*
X139630595Y-117709618D02*
X139535357Y-117614379D01*
X139535357Y-117614379D02*
X139487738Y-117519141D01*
X139487738Y-117519141D02*
X139440119Y-117328665D01*
X139440119Y-117328665D02*
X139440119Y-117185808D01*
X139440119Y-117185808D02*
X139487738Y-116995332D01*
X139487738Y-116995332D02*
X139535357Y-116900094D01*
X139535357Y-116900094D02*
X139630595Y-116804856D01*
X139630595Y-116804856D02*
X139773452Y-116757237D01*
X139773452Y-116757237D02*
X139868690Y-116757237D01*
X139868690Y-116757237D02*
X140011547Y-116804856D01*
X140011547Y-116804856D02*
X140059166Y-116852475D01*
X140440119Y-116852475D02*
X140487738Y-116804856D01*
X140487738Y-116804856D02*
X140582976Y-116757237D01*
X140582976Y-116757237D02*
X140821071Y-116757237D01*
X140821071Y-116757237D02*
X140916309Y-116804856D01*
X140916309Y-116804856D02*
X140963928Y-116852475D01*
X140963928Y-116852475D02*
X141011547Y-116947713D01*
X141011547Y-116947713D02*
X141011547Y-117042951D01*
X141011547Y-117042951D02*
X140963928Y-117185808D01*
X140963928Y-117185808D02*
X140392500Y-117757237D01*
X140392500Y-117757237D02*
X141011547Y-117757237D01*
X141088933Y-112573710D02*
X141041314Y-112621330D01*
X141041314Y-112621330D02*
X140898457Y-112668949D01*
X140898457Y-112668949D02*
X140803219Y-112668949D01*
X140803219Y-112668949D02*
X140660362Y-112621330D01*
X140660362Y-112621330D02*
X140565124Y-112526091D01*
X140565124Y-112526091D02*
X140517505Y-112430853D01*
X140517505Y-112430853D02*
X140469886Y-112240377D01*
X140469886Y-112240377D02*
X140469886Y-112097520D01*
X140469886Y-112097520D02*
X140517505Y-111907044D01*
X140517505Y-111907044D02*
X140565124Y-111811806D01*
X140565124Y-111811806D02*
X140660362Y-111716568D01*
X140660362Y-111716568D02*
X140803219Y-111668949D01*
X140803219Y-111668949D02*
X140898457Y-111668949D01*
X140898457Y-111668949D02*
X141041314Y-111716568D01*
X141041314Y-111716568D02*
X141088933Y-111764187D01*
X141469886Y-112621330D02*
X141612743Y-112668949D01*
X141612743Y-112668949D02*
X141850838Y-112668949D01*
X141850838Y-112668949D02*
X141946076Y-112621330D01*
X141946076Y-112621330D02*
X141993695Y-112573710D01*
X141993695Y-112573710D02*
X142041314Y-112478472D01*
X142041314Y-112478472D02*
X142041314Y-112383234D01*
X142041314Y-112383234D02*
X141993695Y-112287996D01*
X141993695Y-112287996D02*
X141946076Y-112240377D01*
X141946076Y-112240377D02*
X141850838Y-112192758D01*
X141850838Y-112192758D02*
X141660362Y-112145139D01*
X141660362Y-112145139D02*
X141565124Y-112097520D01*
X141565124Y-112097520D02*
X141517505Y-112049901D01*
X141517505Y-112049901D02*
X141469886Y-111954663D01*
X141469886Y-111954663D02*
X141469886Y-111859425D01*
X141469886Y-111859425D02*
X141517505Y-111764187D01*
X141517505Y-111764187D02*
X141565124Y-111716568D01*
X141565124Y-111716568D02*
X141660362Y-111668949D01*
X141660362Y-111668949D02*
X141898457Y-111668949D01*
X141898457Y-111668949D02*
X142041314Y-111716568D01*
X142213209Y-119007993D02*
X142165590Y-119055613D01*
X142165590Y-119055613D02*
X142022733Y-119103232D01*
X142022733Y-119103232D02*
X141927495Y-119103232D01*
X141927495Y-119103232D02*
X141784638Y-119055613D01*
X141784638Y-119055613D02*
X141689400Y-118960374D01*
X141689400Y-118960374D02*
X141641781Y-118865136D01*
X141641781Y-118865136D02*
X141594162Y-118674660D01*
X141594162Y-118674660D02*
X141594162Y-118531803D01*
X141594162Y-118531803D02*
X141641781Y-118341327D01*
X141641781Y-118341327D02*
X141689400Y-118246089D01*
X141689400Y-118246089D02*
X141784638Y-118150851D01*
X141784638Y-118150851D02*
X141927495Y-118103232D01*
X141927495Y-118103232D02*
X142022733Y-118103232D01*
X142022733Y-118103232D02*
X142165590Y-118150851D01*
X142165590Y-118150851D02*
X142213209Y-118198470D01*
X142546543Y-118103232D02*
X143165590Y-118103232D01*
X143165590Y-118103232D02*
X142832257Y-118484184D01*
X142832257Y-118484184D02*
X142975114Y-118484184D01*
X142975114Y-118484184D02*
X143070352Y-118531803D01*
X143070352Y-118531803D02*
X143117971Y-118579422D01*
X143117971Y-118579422D02*
X143165590Y-118674660D01*
X143165590Y-118674660D02*
X143165590Y-118912755D01*
X143165590Y-118912755D02*
X143117971Y-119007993D01*
X143117971Y-119007993D02*
X143070352Y-119055613D01*
X143070352Y-119055613D02*
X142975114Y-119103232D01*
X142975114Y-119103232D02*
X142689400Y-119103232D01*
X142689400Y-119103232D02*
X142594162Y-119055613D01*
X142594162Y-119055613D02*
X142546543Y-119007993D01*
X143242975Y-114014944D02*
X142909642Y-113538753D01*
X142671547Y-114014944D02*
X142671547Y-113014944D01*
X142671547Y-113014944D02*
X143052499Y-113014944D01*
X143052499Y-113014944D02*
X143147737Y-113062563D01*
X143147737Y-113062563D02*
X143195356Y-113110182D01*
X143195356Y-113110182D02*
X143242975Y-113205420D01*
X143242975Y-113205420D02*
X143242975Y-113348277D01*
X143242975Y-113348277D02*
X143195356Y-113443515D01*
X143195356Y-113443515D02*
X143147737Y-113491134D01*
X143147737Y-113491134D02*
X143052499Y-113538753D01*
X143052499Y-113538753D02*
X142671547Y-113538753D01*
X143862023Y-113014944D02*
X143957261Y-113014944D01*
X143957261Y-113014944D02*
X144052499Y-113062563D01*
X144052499Y-113062563D02*
X144100118Y-113110182D01*
X144100118Y-113110182D02*
X144147737Y-113205420D01*
X144147737Y-113205420D02*
X144195356Y-113395896D01*
X144195356Y-113395896D02*
X144195356Y-113633991D01*
X144195356Y-113633991D02*
X144147737Y-113824467D01*
X144147737Y-113824467D02*
X144100118Y-113919705D01*
X144100118Y-113919705D02*
X144052499Y-113967325D01*
X144052499Y-113967325D02*
X143957261Y-114014944D01*
X143957261Y-114014944D02*
X143862023Y-114014944D01*
X143862023Y-114014944D02*
X143766785Y-113967325D01*
X143766785Y-113967325D02*
X143719166Y-113919705D01*
X143719166Y-113919705D02*
X143671547Y-113824467D01*
X143671547Y-113824467D02*
X143623928Y-113633991D01*
X143623928Y-113633991D02*
X143623928Y-113395896D01*
X143623928Y-113395896D02*
X143671547Y-113205420D01*
X143671547Y-113205420D02*
X143719166Y-113110182D01*
X143719166Y-113110182D02*
X143766785Y-113062563D01*
X143766785Y-113062563D02*
X143862023Y-113014944D01*
X144367251Y-120353988D02*
X144319632Y-120401608D01*
X144319632Y-120401608D02*
X144176775Y-120449227D01*
X144176775Y-120449227D02*
X144081537Y-120449227D01*
X144081537Y-120449227D02*
X143938680Y-120401608D01*
X143938680Y-120401608D02*
X143843442Y-120306369D01*
X143843442Y-120306369D02*
X143795823Y-120211131D01*
X143795823Y-120211131D02*
X143748204Y-120020655D01*
X143748204Y-120020655D02*
X143748204Y-119877798D01*
X143748204Y-119877798D02*
X143795823Y-119687322D01*
X143795823Y-119687322D02*
X143843442Y-119592084D01*
X143843442Y-119592084D02*
X143938680Y-119496846D01*
X143938680Y-119496846D02*
X144081537Y-119449227D01*
X144081537Y-119449227D02*
X144176775Y-119449227D01*
X144176775Y-119449227D02*
X144319632Y-119496846D01*
X144319632Y-119496846D02*
X144367251Y-119544465D01*
X145224394Y-119782560D02*
X145224394Y-120449227D01*
X144986299Y-119401608D02*
X144748204Y-120115893D01*
X144748204Y-120115893D02*
X145367251Y-120115893D01*
X145397017Y-115360939D02*
X145063684Y-114884748D01*
X144825589Y-115360939D02*
X144825589Y-114360939D01*
X144825589Y-114360939D02*
X145206541Y-114360939D01*
X145206541Y-114360939D02*
X145301779Y-114408558D01*
X145301779Y-114408558D02*
X145349398Y-114456177D01*
X145349398Y-114456177D02*
X145397017Y-114551415D01*
X145397017Y-114551415D02*
X145397017Y-114694272D01*
X145397017Y-114694272D02*
X145349398Y-114789510D01*
X145349398Y-114789510D02*
X145301779Y-114837129D01*
X145301779Y-114837129D02*
X145206541Y-114884748D01*
X145206541Y-114884748D02*
X144825589Y-114884748D01*
X146349398Y-115360939D02*
X145777970Y-115360939D01*
X146063684Y-115360939D02*
X146063684Y-114360939D01*
X146063684Y-114360939D02*
X145968446Y-114503796D01*
X145968446Y-114503796D02*
X145873208Y-114599034D01*
X145873208Y-114599034D02*
X145777970Y-114646653D01*
X146521293Y-121699983D02*
X146473674Y-121747603D01*
X146473674Y-121747603D02*
X146330817Y-121795222D01*
X146330817Y-121795222D02*
X146235579Y-121795222D01*
X146235579Y-121795222D02*
X146092722Y-121747603D01*
X146092722Y-121747603D02*
X145997484Y-121652364D01*
X145997484Y-121652364D02*
X145949865Y-121557126D01*
X145949865Y-121557126D02*
X145902246Y-121366650D01*
X145902246Y-121366650D02*
X145902246Y-121223793D01*
X145902246Y-121223793D02*
X145949865Y-121033317D01*
X145949865Y-121033317D02*
X145997484Y-120938079D01*
X145997484Y-120938079D02*
X146092722Y-120842841D01*
X146092722Y-120842841D02*
X146235579Y-120795222D01*
X146235579Y-120795222D02*
X146330817Y-120795222D01*
X146330817Y-120795222D02*
X146473674Y-120842841D01*
X146473674Y-120842841D02*
X146521293Y-120890460D01*
X147426055Y-120795222D02*
X146949865Y-120795222D01*
X146949865Y-120795222D02*
X146902246Y-121271412D01*
X146902246Y-121271412D02*
X146949865Y-121223793D01*
X146949865Y-121223793D02*
X147045103Y-121176174D01*
X147045103Y-121176174D02*
X147283198Y-121176174D01*
X147283198Y-121176174D02*
X147378436Y-121223793D01*
X147378436Y-121223793D02*
X147426055Y-121271412D01*
X147426055Y-121271412D02*
X147473674Y-121366650D01*
X147473674Y-121366650D02*
X147473674Y-121604745D01*
X147473674Y-121604745D02*
X147426055Y-121699983D01*
X147426055Y-121699983D02*
X147378436Y-121747603D01*
X147378436Y-121747603D02*
X147283198Y-121795222D01*
X147283198Y-121795222D02*
X147045103Y-121795222D01*
X147045103Y-121795222D02*
X146949865Y-121747603D01*
X146949865Y-121747603D02*
X146902246Y-121699983D01*
X147551059Y-116706933D02*
X147217726Y-116230742D01*
X146979631Y-116706933D02*
X146979631Y-115706933D01*
X146979631Y-115706933D02*
X147360583Y-115706933D01*
X147360583Y-115706933D02*
X147455821Y-115754552D01*
X147455821Y-115754552D02*
X147503440Y-115802171D01*
X147503440Y-115802171D02*
X147551059Y-115897409D01*
X147551059Y-115897409D02*
X147551059Y-116040266D01*
X147551059Y-116040266D02*
X147503440Y-116135504D01*
X147503440Y-116135504D02*
X147455821Y-116183123D01*
X147455821Y-116183123D02*
X147360583Y-116230742D01*
X147360583Y-116230742D02*
X146979631Y-116230742D01*
X147932012Y-115802171D02*
X147979631Y-115754552D01*
X147979631Y-115754552D02*
X148074869Y-115706933D01*
X148074869Y-115706933D02*
X148312964Y-115706933D01*
X148312964Y-115706933D02*
X148408202Y-115754552D01*
X148408202Y-115754552D02*
X148455821Y-115802171D01*
X148455821Y-115802171D02*
X148503440Y-115897409D01*
X148503440Y-115897409D02*
X148503440Y-115992647D01*
X148503440Y-115992647D02*
X148455821Y-116135504D01*
X148455821Y-116135504D02*
X147884393Y-116706933D01*
X147884393Y-116706933D02*
X148503440Y-116706933D01*
X148103907Y-123141217D02*
X148103907Y-122141217D01*
X148103907Y-122141217D02*
X148484859Y-122141217D01*
X148484859Y-122141217D02*
X148580097Y-122188836D01*
X148580097Y-122188836D02*
X148627716Y-122236455D01*
X148627716Y-122236455D02*
X148675335Y-122331693D01*
X148675335Y-122331693D02*
X148675335Y-122474550D01*
X148675335Y-122474550D02*
X148627716Y-122569788D01*
X148627716Y-122569788D02*
X148580097Y-122617407D01*
X148580097Y-122617407D02*
X148484859Y-122665026D01*
X148484859Y-122665026D02*
X148103907Y-122665026D01*
X149627716Y-123141217D02*
X149056288Y-123141217D01*
X149342002Y-123141217D02*
X149342002Y-122141217D01*
X149342002Y-122141217D02*
X149246764Y-122284074D01*
X149246764Y-122284074D02*
X149151526Y-122379312D01*
X149151526Y-122379312D02*
X149056288Y-122426931D01*
X150484859Y-122141217D02*
X150294383Y-122141217D01*
X150294383Y-122141217D02*
X150199145Y-122188836D01*
X150199145Y-122188836D02*
X150151526Y-122236455D01*
X150151526Y-122236455D02*
X150056288Y-122379312D01*
X150056288Y-122379312D02*
X150008669Y-122569788D01*
X150008669Y-122569788D02*
X150008669Y-122950740D01*
X150008669Y-122950740D02*
X150056288Y-123045978D01*
X150056288Y-123045978D02*
X150103907Y-123093598D01*
X150103907Y-123093598D02*
X150199145Y-123141217D01*
X150199145Y-123141217D02*
X150389621Y-123141217D01*
X150389621Y-123141217D02*
X150484859Y-123093598D01*
X150484859Y-123093598D02*
X150532478Y-123045978D01*
X150532478Y-123045978D02*
X150580097Y-122950740D01*
X150580097Y-122950740D02*
X150580097Y-122712645D01*
X150580097Y-122712645D02*
X150532478Y-122617407D01*
X150532478Y-122617407D02*
X150484859Y-122569788D01*
X150484859Y-122569788D02*
X150389621Y-122522169D01*
X150389621Y-122522169D02*
X150199145Y-122522169D01*
X150199145Y-122522169D02*
X150103907Y-122569788D01*
X150103907Y-122569788D02*
X150056288Y-122617407D01*
X150056288Y-122617407D02*
X150008669Y-122712645D01*
X149705102Y-118052928D02*
X149371769Y-117576737D01*
X149133674Y-118052928D02*
X149133674Y-117052928D01*
X149133674Y-117052928D02*
X149514626Y-117052928D01*
X149514626Y-117052928D02*
X149609864Y-117100547D01*
X149609864Y-117100547D02*
X149657483Y-117148166D01*
X149657483Y-117148166D02*
X149705102Y-117243404D01*
X149705102Y-117243404D02*
X149705102Y-117386261D01*
X149705102Y-117386261D02*
X149657483Y-117481499D01*
X149657483Y-117481499D02*
X149609864Y-117529118D01*
X149609864Y-117529118D02*
X149514626Y-117576737D01*
X149514626Y-117576737D02*
X149133674Y-117576737D01*
X150038436Y-117052928D02*
X150657483Y-117052928D01*
X150657483Y-117052928D02*
X150324150Y-117433880D01*
X150324150Y-117433880D02*
X150467007Y-117433880D01*
X150467007Y-117433880D02*
X150562245Y-117481499D01*
X150562245Y-117481499D02*
X150609864Y-117529118D01*
X150609864Y-117529118D02*
X150657483Y-117624356D01*
X150657483Y-117624356D02*
X150657483Y-117862451D01*
X150657483Y-117862451D02*
X150609864Y-117957689D01*
X150609864Y-117957689D02*
X150562245Y-118005309D01*
X150562245Y-118005309D02*
X150467007Y-118052928D01*
X150467007Y-118052928D02*
X150181293Y-118052928D01*
X150181293Y-118052928D02*
X150086055Y-118005309D01*
X150086055Y-118005309D02*
X150038436Y-117957689D01*
X150257949Y-124487212D02*
X150257949Y-123487212D01*
X150257949Y-123487212D02*
X150638901Y-123487212D01*
X150638901Y-123487212D02*
X150734139Y-123534831D01*
X150734139Y-123534831D02*
X150781758Y-123582450D01*
X150781758Y-123582450D02*
X150829377Y-123677688D01*
X150829377Y-123677688D02*
X150829377Y-123820545D01*
X150829377Y-123820545D02*
X150781758Y-123915783D01*
X150781758Y-123915783D02*
X150734139Y-123963402D01*
X150734139Y-123963402D02*
X150638901Y-124011021D01*
X150638901Y-124011021D02*
X150257949Y-124011021D01*
X151781758Y-124487212D02*
X151210330Y-124487212D01*
X151496044Y-124487212D02*
X151496044Y-123487212D01*
X151496044Y-123487212D02*
X151400806Y-123630069D01*
X151400806Y-123630069D02*
X151305568Y-123725307D01*
X151305568Y-123725307D02*
X151210330Y-123772926D01*
X152400806Y-123487212D02*
X152496044Y-123487212D01*
X152496044Y-123487212D02*
X152591282Y-123534831D01*
X152591282Y-123534831D02*
X152638901Y-123582450D01*
X152638901Y-123582450D02*
X152686520Y-123677688D01*
X152686520Y-123677688D02*
X152734139Y-123868164D01*
X152734139Y-123868164D02*
X152734139Y-124106259D01*
X152734139Y-124106259D02*
X152686520Y-124296735D01*
X152686520Y-124296735D02*
X152638901Y-124391973D01*
X152638901Y-124391973D02*
X152591282Y-124439593D01*
X152591282Y-124439593D02*
X152496044Y-124487212D01*
X152496044Y-124487212D02*
X152400806Y-124487212D01*
X152400806Y-124487212D02*
X152305568Y-124439593D01*
X152305568Y-124439593D02*
X152257949Y-124391973D01*
X152257949Y-124391973D02*
X152210330Y-124296735D01*
X152210330Y-124296735D02*
X152162711Y-124106259D01*
X152162711Y-124106259D02*
X152162711Y-123868164D01*
X152162711Y-123868164D02*
X152210330Y-123677688D01*
X152210330Y-123677688D02*
X152257949Y-123582450D01*
X152257949Y-123582450D02*
X152305568Y-123534831D01*
X152305568Y-123534831D02*
X152400806Y-123487212D01*
X151287716Y-119398923D02*
X151287716Y-118398923D01*
X151287716Y-118398923D02*
X151668668Y-118398923D01*
X151668668Y-118398923D02*
X151763906Y-118446542D01*
X151763906Y-118446542D02*
X151811525Y-118494161D01*
X151811525Y-118494161D02*
X151859144Y-118589399D01*
X151859144Y-118589399D02*
X151859144Y-118732256D01*
X151859144Y-118732256D02*
X151811525Y-118827494D01*
X151811525Y-118827494D02*
X151763906Y-118875113D01*
X151763906Y-118875113D02*
X151668668Y-118922732D01*
X151668668Y-118922732D02*
X151287716Y-118922732D01*
X152335335Y-119398923D02*
X152525811Y-119398923D01*
X152525811Y-119398923D02*
X152621049Y-119351304D01*
X152621049Y-119351304D02*
X152668668Y-119303684D01*
X152668668Y-119303684D02*
X152763906Y-119160827D01*
X152763906Y-119160827D02*
X152811525Y-118970351D01*
X152811525Y-118970351D02*
X152811525Y-118589399D01*
X152811525Y-118589399D02*
X152763906Y-118494161D01*
X152763906Y-118494161D02*
X152716287Y-118446542D01*
X152716287Y-118446542D02*
X152621049Y-118398923D01*
X152621049Y-118398923D02*
X152430573Y-118398923D01*
X152430573Y-118398923D02*
X152335335Y-118446542D01*
X152335335Y-118446542D02*
X152287716Y-118494161D01*
X152287716Y-118494161D02*
X152240097Y-118589399D01*
X152240097Y-118589399D02*
X152240097Y-118827494D01*
X152240097Y-118827494D02*
X152287716Y-118922732D01*
X152287716Y-118922732D02*
X152335335Y-118970351D01*
X152335335Y-118970351D02*
X152430573Y-119017970D01*
X152430573Y-119017970D02*
X152621049Y-119017970D01*
X152621049Y-119017970D02*
X152716287Y-118970351D01*
X152716287Y-118970351D02*
X152763906Y-118922732D01*
X152763906Y-118922732D02*
X152811525Y-118827494D01*
D11*
%TO.C,D1*%
X42069459Y-172035532D02*
X42173415Y-171546458D01*
X42460718Y-172118697D02*
X41944712Y-172622421D01*
X41678200Y-171952367D02*
X42460718Y-172118697D01*
X41944712Y-172622421D02*
X41678200Y-171952367D01*
X41944712Y-172622421D02*
X42482693Y-172736772D01*
X41944712Y-172622421D02*
X41406731Y-172508069D01*
X41861547Y-173013680D02*
X41944712Y-172622421D01*
%TO.C,D2*%
X46019783Y-153450729D02*
X46123739Y-152961655D01*
X46411042Y-153533894D02*
X45895036Y-154037618D01*
X45628524Y-153367564D02*
X46411042Y-153533894D01*
X45895036Y-154037618D02*
X45628524Y-153367564D01*
X45895036Y-154037618D02*
X46433017Y-154151969D01*
X45895036Y-154037618D02*
X45357055Y-153923266D01*
X45811871Y-154428877D02*
X45895036Y-154037618D01*
%TO.C,D3*%
X49970104Y-134865928D02*
X50074060Y-134376854D01*
X50361363Y-134949093D02*
X49845357Y-135452817D01*
X49578845Y-134782763D02*
X50361363Y-134949093D01*
X49845357Y-135452817D02*
X49578845Y-134782763D01*
X49845357Y-135452817D02*
X50383338Y-135567168D01*
X49845357Y-135452817D02*
X49307376Y-135338465D01*
X49762192Y-135844076D02*
X49845357Y-135452817D01*
%TO.C,D4*%
X66368618Y-162809881D02*
X66555921Y-162346289D01*
X66739491Y-162959724D02*
X66143854Y-163366191D01*
X65997744Y-162660038D02*
X66739491Y-162959724D01*
X66143854Y-163366191D02*
X65997744Y-162660038D01*
X66143854Y-163366191D02*
X66653805Y-163572225D01*
X66143854Y-163366191D02*
X65633903Y-163160158D01*
X65994011Y-163737065D02*
X66143854Y-163366191D01*
%TO.C,D5*%
X73486142Y-145193388D02*
X73673445Y-144729796D01*
X73857015Y-145343231D02*
X73261378Y-145749698D01*
X73115268Y-145043545D02*
X73857015Y-145343231D01*
X73261378Y-145749698D02*
X73115268Y-145043545D01*
X73261378Y-145749698D02*
X73771329Y-145955732D01*
X73261378Y-145749698D02*
X72751427Y-145543665D01*
X73111535Y-146120572D02*
X73261378Y-145749698D01*
%TO.C,D6*%
X80603668Y-127576894D02*
X80790971Y-127113302D01*
X80974541Y-127726737D02*
X80378904Y-128133204D01*
X80232794Y-127427051D02*
X80974541Y-127726737D01*
X80378904Y-128133204D02*
X80232794Y-127427051D01*
X80378904Y-128133204D02*
X80888855Y-128339238D01*
X80378904Y-128133204D02*
X79868953Y-127927171D01*
X80229061Y-128504078D02*
X80378904Y-128133204D01*
%TO.C,D7*%
X89918635Y-159274130D02*
X90145630Y-158828627D01*
X90275037Y-159455727D02*
X89646240Y-159808734D01*
X89562232Y-159092534D02*
X90275037Y-159455727D01*
X89646240Y-159808734D02*
X89562232Y-159092534D01*
X89646240Y-159808734D02*
X90136294Y-160058429D01*
X89646240Y-159808734D02*
X89156187Y-159559040D01*
X89464644Y-160165137D02*
X89646240Y-159808734D01*
%TO.C,D8*%
X98544456Y-142345004D02*
X98771451Y-141899501D01*
X98900858Y-142526601D02*
X98272061Y-142879608D01*
X98188053Y-142163408D02*
X98900858Y-142526601D01*
X98272061Y-142879608D02*
X98188053Y-142163408D01*
X98272061Y-142879608D02*
X98762115Y-143129303D01*
X98272061Y-142879608D02*
X97782008Y-142629914D01*
X98090465Y-143236011D02*
X98272061Y-142879608D01*
%TO.C,D9*%
X107170273Y-125415881D02*
X107397268Y-124970378D01*
X107526675Y-125597478D02*
X106897878Y-125950485D01*
X106813870Y-125234285D02*
X107526675Y-125597478D01*
X106897878Y-125950485D02*
X106813870Y-125234285D01*
X106897878Y-125950485D02*
X107387932Y-126200180D01*
X106897878Y-125950485D02*
X106407825Y-125700791D01*
X106716282Y-126306888D02*
X106897878Y-125950485D01*
%TO.C,D10*%
X102791426Y-179188509D02*
X103056385Y-178764485D01*
X103130645Y-179400477D02*
X102473474Y-179697338D01*
X102452207Y-178976541D02*
X103130645Y-179400477D01*
X102473474Y-179697338D02*
X102452207Y-178976541D01*
X102473474Y-179697338D02*
X102939901Y-179988793D01*
X102473474Y-179697338D02*
X102007048Y-179405882D01*
X102261507Y-180036557D02*
X102473474Y-179697338D01*
%TO.C,D11*%
X112859894Y-163075596D02*
X113124853Y-162651572D01*
X113199113Y-163287564D02*
X112541942Y-163584425D01*
X112520675Y-162863628D02*
X113199113Y-163287564D01*
X112541942Y-163584425D02*
X112520675Y-162863628D01*
X112541942Y-163584425D02*
X113008369Y-163875880D01*
X112541942Y-163584425D02*
X112075516Y-163292969D01*
X112329975Y-163923644D02*
X112541942Y-163584425D01*
%TO.C,D12*%
X122928363Y-146962683D02*
X123193322Y-146538659D01*
X123267582Y-147174651D02*
X122610411Y-147471512D01*
X122589144Y-146750715D02*
X123267582Y-147174651D01*
X122610411Y-147471512D02*
X122589144Y-146750715D01*
X122610411Y-147471512D02*
X123076838Y-147762967D01*
X122610411Y-147471512D02*
X122143985Y-147180056D01*
X122398444Y-147810731D02*
X122610411Y-147471512D01*
%TO.C,D13*%
X117844505Y-190953073D02*
X118109464Y-190529049D01*
X118183724Y-191165041D02*
X117526553Y-191461902D01*
X117505286Y-190741105D02*
X118183724Y-191165041D01*
X117526553Y-191461902D02*
X117505286Y-190741105D01*
X117526553Y-191461902D02*
X117992980Y-191753357D01*
X117526553Y-191461902D02*
X117060127Y-191170446D01*
X117314586Y-191801121D02*
X117526553Y-191461902D01*
%TO.C,D14*%
X127912970Y-174840159D02*
X128177929Y-174416135D01*
X128252189Y-175052127D02*
X127595018Y-175348988D01*
X127573751Y-174628191D02*
X128252189Y-175052127D01*
X127595018Y-175348988D02*
X127573751Y-174628191D01*
X127595018Y-175348988D02*
X128061445Y-175640443D01*
X127595018Y-175348988D02*
X127128592Y-175057532D01*
X127383051Y-175688207D02*
X127595018Y-175348988D01*
%TO.C,D15*%
X137981434Y-158727244D02*
X138246393Y-158303220D01*
X138320653Y-158939212D02*
X137663482Y-159236073D01*
X137642215Y-158515276D02*
X138320653Y-158939212D01*
X137663482Y-159236073D02*
X137642215Y-158515276D01*
X137663482Y-159236073D02*
X138129909Y-159527528D01*
X137663482Y-159236073D02*
X137197056Y-158944617D01*
X137451515Y-159575292D02*
X137663482Y-159236073D01*
%TO.C,D16*%
X104383847Y-204946309D02*
X104648806Y-204522285D01*
X104723066Y-205158277D02*
X104065895Y-205455138D01*
X104044628Y-204734341D02*
X104723066Y-205158277D01*
X104065895Y-205455138D02*
X104044628Y-204734341D01*
X104065895Y-205455138D02*
X104532322Y-205746593D01*
X104065895Y-205455138D02*
X103599469Y-205163682D01*
X103853928Y-205794357D02*
X104065895Y-205455138D01*
%TO.C,D17*%
X118339582Y-221430677D02*
X118722604Y-221109283D01*
X118596697Y-221737095D02*
X117879955Y-221816350D01*
X118082467Y-221124259D02*
X118596697Y-221737095D01*
X117879955Y-221816350D02*
X118082467Y-221124259D01*
X117879955Y-221816350D02*
X118233489Y-222237674D01*
X117879955Y-221816350D02*
X117526422Y-221395025D01*
X117573538Y-222073465D02*
X117879955Y-221816350D01*
%TO.C,D18*%
X126652416Y-241340235D02*
X127116008Y-241152932D01*
X126802259Y-241711109D02*
X126096106Y-241564999D01*
X126502573Y-240969362D02*
X126802259Y-241711109D01*
X126096106Y-241564999D02*
X126502573Y-240969362D01*
X126096106Y-241564999D02*
X126302139Y-242074950D01*
X126096106Y-241564999D02*
X125890072Y-241055048D01*
X125725232Y-241714842D02*
X126096106Y-241564999D01*
%TO.C,D19*%
X248675315Y-172035534D02*
X248571359Y-171546460D01*
X249066574Y-171952369D02*
X248800062Y-172622423D01*
X248284056Y-172118699D02*
X249066574Y-171952369D01*
X248800062Y-172622423D02*
X248284056Y-172118699D01*
X248800062Y-172622423D02*
X249338043Y-172508071D01*
X248800062Y-172622423D02*
X248262081Y-172736774D01*
X248883227Y-173013682D02*
X248800062Y-172622423D01*
%TO.C,D20*%
X244724991Y-153450729D02*
X244621035Y-152961655D01*
X245116250Y-153367564D02*
X244849738Y-154037618D01*
X244333732Y-153533894D02*
X245116250Y-153367564D01*
X244849738Y-154037618D02*
X244333732Y-153533894D01*
X244849738Y-154037618D02*
X245387719Y-153923266D01*
X244849738Y-154037618D02*
X244311757Y-154151969D01*
X244932903Y-154428877D02*
X244849738Y-154037618D01*
%TO.C,D21*%
X240774671Y-134865925D02*
X240670715Y-134376851D01*
X241165930Y-134782760D02*
X240899418Y-135452814D01*
X240383412Y-134949090D02*
X241165930Y-134782760D01*
X240899418Y-135452814D02*
X240383412Y-134949090D01*
X240899418Y-135452814D02*
X241437399Y-135338462D01*
X240899418Y-135452814D02*
X240361437Y-135567165D01*
X240982583Y-135844073D02*
X240899418Y-135452814D01*
%TO.C,D22*%
X224376156Y-162809881D02*
X224188853Y-162346289D01*
X224747030Y-162660038D02*
X224600920Y-163366191D01*
X224005283Y-162959724D02*
X224747030Y-162660038D01*
X224600920Y-163366191D02*
X224005283Y-162959724D01*
X224600920Y-163366191D02*
X225110871Y-163160158D01*
X224600920Y-163366191D02*
X224090969Y-163572225D01*
X224750763Y-163737065D02*
X224600920Y-163366191D01*
%TO.C,D23*%
X217258632Y-145193389D02*
X217071329Y-144729797D01*
X217629506Y-145043546D02*
X217483396Y-145749699D01*
X216887759Y-145343232D02*
X217629506Y-145043546D01*
X217483396Y-145749699D02*
X216887759Y-145343232D01*
X217483396Y-145749699D02*
X217993347Y-145543666D01*
X217483396Y-145749699D02*
X216973445Y-145955733D01*
X217633239Y-146120573D02*
X217483396Y-145749699D01*
%TO.C,D24*%
X210141106Y-127576893D02*
X209953803Y-127113301D01*
X210511980Y-127427050D02*
X210365870Y-128133203D01*
X209770233Y-127726736D02*
X210511980Y-127427050D01*
X210365870Y-128133203D02*
X209770233Y-127726736D01*
X210365870Y-128133203D02*
X210875821Y-127927170D01*
X210365870Y-128133203D02*
X209855919Y-128339237D01*
X210515713Y-128504077D02*
X210365870Y-128133203D01*
%TO.C,D25*%
X200826138Y-159274128D02*
X200599143Y-158828625D01*
X201182541Y-159092532D02*
X201098533Y-159808732D01*
X200469736Y-159455725D02*
X201182541Y-159092532D01*
X201098533Y-159808732D02*
X200469736Y-159455725D01*
X201098533Y-159808732D02*
X201588586Y-159559038D01*
X201098533Y-159808732D02*
X200608479Y-160058427D01*
X201280129Y-160165135D02*
X201098533Y-159808732D01*
%TO.C,D26*%
X192200316Y-142345004D02*
X191973321Y-141899501D01*
X192556719Y-142163408D02*
X192472711Y-142879608D01*
X191843914Y-142526601D02*
X192556719Y-142163408D01*
X192472711Y-142879608D02*
X191843914Y-142526601D01*
X192472711Y-142879608D02*
X192962764Y-142629914D01*
X192472711Y-142879608D02*
X191982657Y-143129303D01*
X192654307Y-143236011D02*
X192472711Y-142879608D01*
%TO.C,D27*%
X183574499Y-125415882D02*
X183347504Y-124970379D01*
X183930902Y-125234286D02*
X183846894Y-125950486D01*
X183218097Y-125597479D02*
X183930902Y-125234286D01*
X183846894Y-125950486D02*
X183218097Y-125597479D01*
X183846894Y-125950486D02*
X184336947Y-125700792D01*
X183846894Y-125950486D02*
X183356840Y-126200181D01*
X184028490Y-126306889D02*
X183846894Y-125950486D01*
%TO.C,D28*%
X187953346Y-179188511D02*
X187688387Y-178764487D01*
X188292565Y-178976543D02*
X188271298Y-179697340D01*
X187614127Y-179400479D02*
X188292565Y-178976543D01*
X188271298Y-179697340D02*
X187614127Y-179400479D01*
X188271298Y-179697340D02*
X188737724Y-179405884D01*
X188271298Y-179697340D02*
X187804871Y-179988795D01*
X188483265Y-180036559D02*
X188271298Y-179697340D01*
%TO.C,D29*%
X177884880Y-163075597D02*
X177619921Y-162651573D01*
X178224099Y-162863629D02*
X178202832Y-163584426D01*
X177545661Y-163287565D02*
X178224099Y-162863629D01*
X178202832Y-163584426D02*
X177545661Y-163287565D01*
X178202832Y-163584426D02*
X178669258Y-163292970D01*
X178202832Y-163584426D02*
X177736405Y-163875881D01*
X178414799Y-163923645D02*
X178202832Y-163584426D01*
%TO.C,D30*%
X167816414Y-146962682D02*
X167551455Y-146538658D01*
X168155633Y-146750714D02*
X168134366Y-147471511D01*
X167477195Y-147174650D02*
X168155633Y-146750714D01*
X168134366Y-147471511D02*
X167477195Y-147174650D01*
X168134366Y-147471511D02*
X168600792Y-147180055D01*
X168134366Y-147471511D02*
X167667939Y-147762966D01*
X168346333Y-147810730D02*
X168134366Y-147471511D01*
%TO.C,D31*%
X172900272Y-190953071D02*
X172635313Y-190529047D01*
X173239491Y-190741103D02*
X173218224Y-191461900D01*
X172561053Y-191165039D02*
X173239491Y-190741103D01*
X173218224Y-191461900D02*
X172561053Y-191165039D01*
X173218224Y-191461900D02*
X173684650Y-191170444D01*
X173218224Y-191461900D02*
X172751797Y-191753355D01*
X173430191Y-191801119D02*
X173218224Y-191461900D01*
%TO.C,D32*%
X162831805Y-174840160D02*
X162566846Y-174416136D01*
X163171024Y-174628192D02*
X163149757Y-175348989D01*
X162492586Y-175052128D02*
X163171024Y-174628192D01*
X163149757Y-175348989D02*
X162492586Y-175052128D01*
X163149757Y-175348989D02*
X163616183Y-175057533D01*
X163149757Y-175348989D02*
X162683330Y-175640444D01*
X163361724Y-175688208D02*
X163149757Y-175348989D01*
%TO.C,D33*%
X152763339Y-158727246D02*
X152498380Y-158303222D01*
X153102558Y-158515278D02*
X153081291Y-159236075D01*
X152424120Y-158939214D02*
X153102558Y-158515278D01*
X153081291Y-159236075D02*
X152424120Y-158939214D01*
X153081291Y-159236075D02*
X153547717Y-158944619D01*
X153081291Y-159236075D02*
X152614864Y-159527530D01*
X153293258Y-159575294D02*
X153081291Y-159236075D01*
%TO.C,D34*%
X186360928Y-204946311D02*
X186095969Y-204522287D01*
X186700147Y-204734343D02*
X186678880Y-205455140D01*
X186021709Y-205158279D02*
X186700147Y-204734343D01*
X186678880Y-205455140D02*
X186021709Y-205158279D01*
X186678880Y-205455140D02*
X187145306Y-205163684D01*
X186678880Y-205455140D02*
X186212453Y-205746595D01*
X186890847Y-205794359D02*
X186678880Y-205455140D01*
%TO.C,D35*%
X172405194Y-221430675D02*
X172022172Y-221109281D01*
X172662309Y-221124257D02*
X172864821Y-221816348D01*
X172148079Y-221737093D02*
X172662309Y-221124257D01*
X172864821Y-221816348D02*
X172148079Y-221737093D01*
X172864821Y-221816348D02*
X173218354Y-221395023D01*
X172864821Y-221816348D02*
X172511287Y-222237672D01*
X173171238Y-222073463D02*
X172864821Y-221816348D01*
%TO.C,D36*%
X164092359Y-241340234D02*
X163628767Y-241152931D01*
X164242202Y-240969361D02*
X164648669Y-241564998D01*
X163942516Y-241711108D02*
X164242202Y-240969361D01*
X164648669Y-241564998D02*
X163942516Y-241711108D01*
X164648669Y-241564998D02*
X164854703Y-241055047D01*
X164648669Y-241564998D02*
X164442636Y-242074949D01*
X165019543Y-241714841D02*
X164648669Y-241564998D01*
D10*
%TO.C,B1*%
X161349942Y-111422644D02*
X159282991Y-111899837D01*
X162674740Y-109302524D02*
X162197547Y-107235573D01*
X162674740Y-109302524D02*
X161349942Y-111422644D01*
X157162871Y-110575039D02*
X159282991Y-111899837D01*
X160077427Y-105910775D02*
X162197547Y-107235573D01*
X156685678Y-108508088D02*
X157162871Y-110575039D01*
X158010476Y-106387968D02*
X160077427Y-105910775D01*
X158010476Y-106387968D02*
X156685678Y-108508088D01*
D12*
%TO.C,LED1*%
X30349630Y-165608396D02*
X31914667Y-165941054D01*
X30682289Y-164043360D02*
X30349630Y-165608396D01*
%TO.C,LED2*%
X34299951Y-147023592D02*
X35864988Y-147356250D01*
X34632610Y-145458556D02*
X34299951Y-147023592D01*
%TO.C,LED3*%
X38250274Y-128438789D02*
X39815311Y-128771447D01*
X38582933Y-126873753D02*
X38250274Y-128438789D01*
%TO.C,LED4*%
X55942903Y-154445258D02*
X57426397Y-155044629D01*
X56542273Y-152961764D02*
X55942903Y-154445258D01*
%TO.C,LED5*%
X63060425Y-136828765D02*
X64543919Y-137428136D01*
X63659795Y-135345271D02*
X63060425Y-136828765D01*
%TO.C,LED6*%
X70177950Y-119212271D02*
X71661444Y-119811642D01*
X70777320Y-117728777D02*
X70177950Y-119212271D01*
%TO.C,LED7*%
X80261616Y-150032678D02*
X81687227Y-150759062D01*
X80988001Y-148607067D02*
X80261616Y-150032678D01*
%TO.C,LED8*%
X88887434Y-133103553D02*
X90313045Y-133829937D01*
X89613819Y-131677942D02*
X88887434Y-133103553D01*
%TO.C,LED9*%
X97513256Y-116174428D02*
X98938867Y-116900812D01*
X98239641Y-114748817D02*
X97513256Y-116174428D01*
%TO.C,LED10*%
X93976600Y-169140558D02*
X95333477Y-169988429D01*
X94824471Y-167783681D02*
X93976600Y-169140558D01*
%TO.C,LED11*%
X104045068Y-153027645D02*
X105401945Y-153875516D01*
X104892939Y-151670768D02*
X104045068Y-153027645D01*
%TO.C,LED12*%
X114113534Y-136914732D02*
X115470411Y-137762603D01*
X114961405Y-135557855D02*
X114113534Y-136914732D01*
%TO.C,LED13*%
X109029675Y-180905123D02*
X110386552Y-181752994D01*
X109877546Y-179548246D02*
X109029675Y-180905123D01*
%TO.C,LED14*%
X119098140Y-164792208D02*
X120455017Y-165640079D01*
X119946011Y-163435331D02*
X119098140Y-164792208D01*
%TO.C,LED15*%
X129166608Y-148679293D02*
X130523485Y-149527164D01*
X130014479Y-147322416D02*
X129166608Y-148679293D01*
%TO.C,LED16*%
X95569017Y-194898354D02*
X96925894Y-195746225D01*
X96416888Y-193541477D02*
X95569017Y-194898354D01*
%TO.C,LED17*%
X113061171Y-209150577D02*
X114089631Y-210376248D01*
X114286842Y-208122117D02*
X113061171Y-209150577D01*
%TO.C,LED18*%
X125427112Y-228030046D02*
X126026482Y-229513540D01*
X126910606Y-227430675D02*
X125427112Y-228030046D01*
%TO.C,LED19*%
X252961222Y-167188527D02*
X254526258Y-166855868D01*
X252628563Y-165623490D02*
X252961222Y-167188527D01*
%TO.C,LED20*%
X249010900Y-148603720D02*
X250575936Y-148271061D01*
X248678241Y-147038683D02*
X249010900Y-148603720D01*
%TO.C,LED21*%
X245060578Y-130018914D02*
X246625614Y-129686255D01*
X244727919Y-128453877D02*
X245060578Y-130018914D01*
%TO.C,LED22*%
X227755276Y-157292268D02*
X229238770Y-156692898D01*
X227155905Y-155808774D02*
X227755276Y-157292268D01*
%TO.C,LED23*%
X220637753Y-139675776D02*
X222121247Y-139076406D01*
X220038382Y-138192282D02*
X220637753Y-139675776D01*
%TO.C,LED24*%
X213520227Y-122059283D02*
X215003721Y-121459913D01*
X212920856Y-120575789D02*
X213520227Y-122059283D01*
%TO.C,LED25*%
X203711511Y-153483004D02*
X205137121Y-152756620D01*
X202985126Y-152057394D02*
X203711511Y-153483004D01*
%TO.C,LED26*%
X195085689Y-136553879D02*
X196511299Y-135827495D01*
X194359304Y-135128269D02*
X195085689Y-136553879D01*
%TO.C,LED27*%
X186459873Y-119624755D02*
X187885483Y-118898371D01*
X185733488Y-118199145D02*
X186459873Y-119624755D01*
%TO.C,LED28*%
X190323007Y-173167945D02*
X191679884Y-172320074D01*
X189475136Y-171811068D02*
X190323007Y-173167945D01*
%TO.C,LED29*%
X180254543Y-157055030D02*
X181611420Y-156207159D01*
X179406672Y-155698153D02*
X180254543Y-157055030D01*
%TO.C,LED30*%
X170186073Y-140942118D02*
X171542950Y-140094247D01*
X169338202Y-139585241D02*
X170186073Y-140942118D01*
%TO.C,LED31*%
X175269934Y-184932506D02*
X176626811Y-184084635D01*
X174422063Y-183575629D02*
X175269934Y-184932506D01*
%TO.C,LED32*%
X165201467Y-168819594D02*
X166558344Y-167971723D01*
X164353596Y-167462717D02*
X165201467Y-168819594D01*
%TO.C,LED33*%
X155133002Y-152706679D02*
X156489879Y-151858808D01*
X154285131Y-151349802D02*
X155133002Y-152706679D01*
%TO.C,LED34*%
X188730590Y-198925740D02*
X190087467Y-198077869D01*
X187882719Y-197568863D02*
X188730590Y-198925740D01*
%TO.C,LED35*%
X172798418Y-214972514D02*
X173826878Y-213746843D01*
X171572747Y-213944054D02*
X172798418Y-214972514D01*
%TO.C,LED36*%
X162470654Y-235076643D02*
X163070025Y-233593149D01*
X160987160Y-234477273D02*
X162470654Y-235076643D01*
%TD*%
M02*
