M48
; DRILL file {KiCad 7.0.9} date Mon Nov 27 23:54:16 2023
; FORMAT={-:-/ absolute / inch / decimal}
; #@! TF.CreationDate,2023-11-27T23:54:16-05:00
; #@! TF.GenerationSoftware,Kicad,Pcbnew,7.0.9
; #@! TF.FileFunction,Plated,1,2,PTH
FMAT,2
INCH
; #@! TA.AperFunction,Plated,PTH,ViaDrill
T1C0.0118
; #@! TA.AperFunction,Plated,PTH,ViaDrill
T2C0.0157
; #@! TA.AperFunction,Plated,PTH,ComponentDrill
T3C0.0157
; #@! TA.AperFunction,Plated,PTH,ComponentDrill
T4C0.0390
; #@! TA.AperFunction,Plated,PTH,ComponentDrill
T5C0.0394
; #@! TA.AperFunction,Plated,PTH,ComponentDrill
T6C0.0500
; #@! TA.AperFunction,Plated,PTH,ComponentDrill
T7C0.0866
%
G90
G05
T1
X1.1698Y-6.4215
X1.1926Y-6.4827
X1.3253Y-5.6898
X1.3481Y-5.751
X1.4808Y-4.9581
X1.5036Y-5.0194
X1.5053Y-6.5492
X1.551Y-6.5025
X1.6608Y-5.8175
X1.7065Y-5.7709
X1.8163Y-5.0858
X1.862Y-5.0392
X2.1948Y-5.9791
X2.2066Y-6.0433
X2.4513Y-5.4391
X2.475Y-5.2855
X2.4868Y-5.3497
X2.503Y-6.1631
X2.5158Y-6.0478
X2.5561Y-6.1251
X2.73Y-4.745
X2.7552Y-4.592
X2.767Y-4.6562
X2.7832Y-5.4695
X2.7883Y-5.3501
X2.8364Y-5.4315
X3.0635Y-4.776
X3.1166Y-4.738
X3.161Y-5.8051
X3.1672Y-5.8701
X3.4521Y-6.0152
X3.5006Y-5.1386
X3.5068Y-5.2036
X3.5083Y-5.982
X3.7098Y-6.5578
X3.7103Y-6.6231
X3.7725Y-7.5719
X3.773Y-7.6372
X3.7917Y-5.3487
X3.8402Y-4.472
X3.8464Y-4.5371
X3.8479Y-5.3155
X3.9814Y-6.7925
X4.0182Y-6.6761
X4.0404Y-6.7643
X4.0441Y-7.8066
X4.0591Y-6.0655
X4.103Y-7.7784
X4.1062Y-5.9234
X4.1067Y-5.9887
X4.1313Y-4.6822
X4.1875Y-4.649
X4.3024Y-7.021
X4.303Y-7.0862
X4.3778Y-6.1581
X4.4083Y-6.0356
X4.4367Y-6.1299
X4.456Y-5.4309
X4.4721Y-8.2031
X4.4919Y-8.1409
X4.5026Y-5.289
X4.5031Y-5.3544
X4.5741Y-7.2557
X4.633Y-7.2275
X4.6776Y-8.4481
X4.6989Y-6.3866
X4.6994Y-6.4519
X4.7424Y-8.4394
X4.7742Y-5.5238
X4.8331Y-5.4956
X4.9674Y-8.9543
X4.9705Y-6.6213
X5.0054Y-8.9012
X5.0269Y-6.4588
X5.0294Y-6.5931
X5.0872Y-9.2507
X5.0952Y-5.7522
X5.0957Y-5.8175
X5.0962Y-6.4226
X5.1514Y-9.2625
X5.3669Y-5.987
X5.4258Y-5.9588
X5.5317Y-6.0324
X6.0216Y-5.9588
X6.0805Y-5.987
X6.1417Y-6.0206
X6.178Y-4.3077
X6.2568Y-4.1852
X6.2959Y-9.2625
X6.3516Y-5.8175
X6.3521Y-5.7522
X6.3602Y-9.2507
X6.418Y-6.5931
X6.4419Y-8.9012
X6.4769Y-6.6213
X6.4799Y-8.9543
X6.5403Y-6.6548
X6.6142Y-5.4956
X6.6473Y-6.3436
X6.6732Y-5.5238
X6.705Y-8.4394
X6.748Y-6.4519
X6.7485Y-6.3866
X6.7697Y-8.4481
X6.8144Y-7.2275
X6.8733Y-7.2557
X6.9313Y-7.2851
X6.9443Y-5.3544
X6.9448Y-5.289
X6.9555Y-8.1409
X6.9752Y-8.2031
X7.0106Y-6.1299
X7.0443Y-6.9791
X7.0695Y-6.1581
X7.1444Y-7.0862
X7.1449Y-7.021
X7.2585Y-4.6471
X7.3148Y-4.6804
X7.3406Y-5.9887
X7.3411Y-5.9234
X7.3443Y-7.7784
X7.3728Y-4.7193
X7.4032Y-7.8066
X7.407Y-6.7643
X7.4659Y-6.7925
X7.5486Y-7.5158
X7.5981Y-5.3136
X7.5996Y-4.5352
X7.6058Y-4.4702
X7.6544Y-5.3469
X7.6743Y-7.6372
X7.6748Y-7.5719
X7.7146Y-5.3857
X7.737Y-6.6231
X7.7376Y-6.5578
X7.8483Y-5.085
X7.9377Y-5.9801
X7.9392Y-5.2017
X7.9454Y-5.1367
X7.994Y-6.0133
X8.1884Y-5.7527
X8.2788Y-5.8682
X8.285Y-5.8032
X8.3309Y-4.7365
X8.384Y-4.7745
X8.6111Y-5.43
X8.6642Y-5.468
X8.6804Y-4.6547
X8.6922Y-4.5905
X8.8913Y-6.1236
X8.9444Y-6.1616
X8.9606Y-5.3483
X8.9724Y-5.284
X9.2408Y-6.0418
X9.2527Y-5.9776
X9.5843Y-5.0372
X9.6301Y-5.0839
X9.6761Y-5.1365
X9.7398Y-5.7689
X9.7856Y-5.8156
X9.8337Y-5.8687
X9.8954Y-6.5006
X9.9411Y-6.5472
X9.9427Y-5.0174
X10.0407Y-5.6128
X10.0983Y-5.7491
X10.1211Y-5.6879
X10.1963Y-6.3458
X10.2538Y-6.4807
X10.2766Y-6.4196
T2
X3.5882Y-4.8559
X3.748Y-4.7397
X3.8186Y-7.2223
X5.1642Y-6.4618
X5.3382Y-6.7132
X5.3488Y-6.6633
X5.3594Y-6.6134
X5.3701Y-6.5634
X6.3172Y-5.5912
T3
X4.9641Y-4.309
X5.0489Y-4.362
X5.1002Y-4.0912
X5.1337Y-4.415
X5.185Y-4.1442
X5.2185Y-4.468
X5.2698Y-4.1972
X5.3033Y-4.521
X5.3546Y-4.2502
X5.3881Y-4.574
X5.4394Y-4.3031
X5.4729Y-4.627
X5.5242Y-4.3561
X5.5577Y-4.6799
X5.609Y-4.4091
X5.6425Y-4.7329
X5.6938Y-4.4621
X5.7273Y-4.7859
X5.7786Y-4.5151
X5.8121Y-4.8389
X5.8634Y-4.5681
X5.8969Y-4.8919
X5.9482Y-4.6211
X6.0331Y-4.6741
T4
X1.623Y-6.9294
X1.6854Y-6.636
X1.7786Y-6.1977
X1.8409Y-5.9043
X1.9341Y-5.466
X1.9965Y-5.1726
X2.5531Y-6.558
X2.6654Y-6.2799
X2.8333Y-5.8645
X2.9457Y-5.5863
X3.1135Y-5.1709
X3.2259Y-4.8928
X3.4675Y-6.4131
X3.6037Y-6.1458
X3.8071Y-5.7466
X3.9433Y-5.4793
X3.9622Y-7.1902
X4.0249Y-8.2043
X4.1212Y-6.9358
X4.1467Y-5.0801
X4.1839Y-7.9499
X4.2829Y-4.8128
X4.3586Y-6.5559
X4.5176Y-6.3014
X4.5366Y-8.8205
X4.5548Y-7.6534
X4.7138Y-7.399
X4.755Y-5.9215
X4.7664Y-8.6277
X4.8381Y-9.5615
X4.914Y-5.6671
X4.9512Y-7.019
X5.1102Y-6.7646
X5.1163Y-9.4491
X5.3476Y-6.3847
X5.5066Y-6.1302
X5.94Y-6.1302
X6.099Y-6.3847
X6.3304Y-9.4491
X6.3364Y-6.7646
X6.4954Y-7.019
X6.5327Y-5.6671
X6.6085Y-9.5615
X6.6802Y-8.6277
X6.6916Y-5.9215
X6.7328Y-7.399
X6.8918Y-7.6534
X6.9101Y-8.8205
X6.9291Y-6.3014
X7.088Y-6.5559
X7.1637Y-4.8128
X7.2628Y-7.9499
X7.2999Y-5.0801
X7.3255Y-6.9358
X7.4217Y-8.2043
X7.4844Y-7.1902
X7.5033Y-5.4793
X7.6395Y-5.7466
X7.8429Y-6.1458
X7.9791Y-6.4131
X8.2208Y-4.8928
X8.3331Y-5.1709
X8.501Y-5.5863
X8.6134Y-5.8645
X8.7812Y-6.2799
X8.8936Y-6.558
X9.4502Y-5.1726
X9.5126Y-5.466
X9.6057Y-5.9043
X9.6681Y-6.1977
X9.7612Y-6.636
X9.8236Y-6.9294
T5
X4.8732Y-4.4545
X4.958Y-4.5075
X5.0428Y-4.5605
X5.1276Y-4.6135
X5.1911Y-3.9457
X5.2124Y-4.6665
X5.2759Y-3.9987
X5.2972Y-4.7195
X5.3607Y-4.0517
X5.382Y-4.7725
X5.4455Y-4.1047
X5.4668Y-4.8254
X5.5303Y-4.1576
X5.5516Y-4.8784
X5.6151Y-4.2106
X5.6364Y-4.9314
X5.6999Y-4.2636
X5.7212Y-4.9844
X5.7848Y-4.3166
X5.806Y-5.0374
X5.8696Y-4.3696
X5.9544Y-4.4226
X6.0392Y-4.4756
X6.124Y-4.5286
T6
X1.0922Y-6.7759
X1.2477Y-6.0442
X1.2675Y-6.8977
X1.2675Y-6.8977
X1.4032Y-5.3125
X1.4231Y-6.166
X1.4231Y-6.166
X1.4773Y-6.8578
X1.5786Y-5.4343
X1.5786Y-5.4343
X1.6328Y-6.1261
X1.7883Y-5.3944
X2.0569Y-6.3147
X2.2085Y-6.4651
X2.2085Y-6.4651
X2.3371Y-5.6211
X2.4219Y-6.4622
X2.4887Y-5.7715
X2.4887Y-5.7715
X2.6173Y-4.9276
X2.7022Y-5.7686
X2.7689Y-5.078
X2.7689Y-5.078
X2.9824Y-5.0751
X2.9945Y-6.1274
X3.1323Y-6.2904
X3.1323Y-6.2904
X3.3341Y-5.4609
X3.3453Y-6.3061
X3.4719Y-5.6239
X3.4719Y-5.6239
X3.5158Y-6.8644
X3.5785Y-7.8785
X3.639Y-7.0388
X3.639Y-7.0388
X3.6737Y-4.7944
X3.6849Y-5.6396
X3.7017Y-8.0529
X3.7017Y-8.0529
X3.8115Y-4.9574
X3.8115Y-4.9574
X3.8497Y-7.073
X3.9122Y-6.2301
X3.9124Y-8.0871
X4.0245Y-4.9731
X4.0354Y-6.4045
X4.0354Y-6.4045
X4.1085Y-7.3276
X4.2128Y-8.3727
X4.2316Y-7.502
X4.2316Y-7.502
X4.2461Y-6.4387
X4.276Y-8.5766
X4.276Y-8.5766
X4.3086Y-5.5957
X4.4318Y-5.7701
X4.4318Y-5.7701
X4.4424Y-7.5362
X4.4658Y-8.6743
X4.5049Y-6.6932
X4.628Y-6.8677
X4.628Y-6.8677
X4.6425Y-5.8043
X4.6656Y-9.249
X4.6656Y-9.249
X4.6685Y-9.0355
X4.816Y-9.4006
X4.8388Y-6.9019
X4.9013Y-6.0589
X5.0244Y-6.2333
X5.0244Y-6.2333
X5.2352Y-6.2675
X6.2115Y-6.2675
X6.4222Y-6.2333
X6.4222Y-6.2333
X6.5454Y-6.0589
X6.6079Y-6.9019
X6.6307Y-9.4006
X6.7781Y-9.0355
X6.7811Y-9.249
X6.7811Y-9.249
X6.8041Y-5.8043
X6.8186Y-6.8677
X6.8186Y-6.8677
X6.9418Y-6.6932
X6.9808Y-8.6743
X7.0043Y-7.5362
X7.0149Y-5.7701
X7.0149Y-5.7701
X7.138Y-5.5957
X7.1707Y-8.5766
X7.1707Y-8.5766
X7.2005Y-6.4387
X7.215Y-7.502
X7.215Y-7.502
X7.2339Y-8.3727
X7.3382Y-7.3276
X7.4113Y-6.4045
X7.4113Y-6.4045
X7.4222Y-4.9731
X7.5342Y-8.0871
X7.5344Y-6.2301
X7.5969Y-7.073
X7.6351Y-4.9574
X7.6351Y-4.9574
X7.745Y-8.0529
X7.745Y-8.0529
X7.7618Y-5.6396
X7.773Y-4.7944
X7.8077Y-7.0388
X7.8077Y-7.0388
X7.8681Y-7.8785
X7.9308Y-6.8644
X7.9747Y-5.6239
X7.9747Y-5.6239
X8.1014Y-6.3061
X8.1126Y-5.4609
X8.3143Y-6.2904
X8.3143Y-6.2904
X8.4522Y-6.1274
X8.4643Y-5.0751
X8.6778Y-5.078
X8.6778Y-5.078
X8.7445Y-5.7686
X8.8293Y-4.9276
X8.958Y-5.7715
X8.958Y-5.7715
X9.0247Y-6.4622
X9.1095Y-5.6211
X9.2382Y-6.4651
X9.2382Y-6.4651
X9.3897Y-6.3147
X9.6583Y-5.3944
X9.8138Y-6.1261
X9.8681Y-5.4343
X9.8681Y-5.4343
X9.9694Y-6.8578
X10.0236Y-6.166
X10.0236Y-6.166
X10.0434Y-5.3125
X10.1791Y-6.8977
X10.1791Y-6.8977
X10.1989Y-6.0442
X10.3545Y-6.7759
T7
X1.8911Y-6.994
X2.2585Y-4.6974
X4.6883Y-4.9137
X5.3577Y-9.6063
X6.0889Y-9.6063
X6.7583Y-4.9137
X9.1882Y-4.6974
X9.5556Y-6.994
T0
M30
