0
SECTION
2
HEADER
9
$INSUNITS
70
4
9
$ACADVER
1
AC1014
9
$HANDSEED
5
FFFF
0
ENDSEC
0
SECTION
2
TABLES
0
TABLE
2
VPORT
5
8
100
AcDbSymbolTable
0
ENDTAB
0
TABLE
2
LTYPE
5
5
100
AcDbSymbolTable
0
LTYPE
5
14
100
AcDbSymbolTableRecord
100
AcDbLinetypeTableRecord
2
BYBLOCK
70
0
0
LTYPE
5
15
100
AcDbSymbolTableRecord
100
AcDbLinetypeTableRecord
2
BYLAYER
70
0
0
ENDTAB
0
TABLE
2
LAYER
5
2
100
AcDbSymbolTable
70
2
0
LAYER
5
50
100
AcDbSymbolTableRecord
100
AcDbLayerTableRecord
2
0
70
0
6
CONTINUOUS
0
ENDTAB
0
TABLE
2
STYLE
5
3
100
AcDbSymbolTable
70
1
0
STYLE
5
11
100
AcDbSymbolTableRecord
100
AcDbTextStyleTableRecord
2
STANDARD
70
0
0
ENDTAB
0
TABLE
2
VIEW
5
6
100
AcDbSymbolTable
70
0
0
ENDTAB
0
TABLE
2
UCS
5
7
100
AcDbSymbolTable
70
0
0
ENDTAB
0
TABLE
2
APPID
5
9
100
AcDbSymbolTable
70
2
0
APPID
5
12
100
AcDbSymbolTableRecord
100
AcDbRegAppTableRecord
2
ACAD
70
0
0
ENDTAB
0
TABLE
2
DIMSTYLE
5
A
100
AcDbSymbolTable
70
1
0
ENDTAB
0
TABLE
2
BLOCK_RECORD
5
1
100
AcDbSymbolTable
70
1
0
BLOCK_RECORD
5
1F
100
AcDbSymbolTableRecord
100
AcDbBlockTableRecord
2
*MODEL_SPACE
0
BLOCK_RECORD
5
1B
100
AcDbSymbolTableRecord
100
AcDbBlockTableRecord
2
*PAPER_SPACE
0
ENDTAB
0
ENDSEC
0
SECTION
2
BLOCKS
0
BLOCK
5
20
100
AcDbEntity
100
AcDbBlockBegin
2
*MODEL_SPACE
0
ENDBLK
5
21
100
AcDbEntity
100
AcDbBlockEnd
0
BLOCK
5
1C
100
AcDbEntity
100
AcDbBlockBegin
2
*PAPER_SPACE
0
ENDBLK
5
1D
100
AcDbEntity
100
AcDbBlockEnd
0
ENDSEC
0
SECTION
2
ENTITIES
0
LWPOLYLINE
5
100
100
AcDbEntity
8
0
100
AcDbPolyline
90
42
70
1
43
0.0
10
108.13564340000001
20
-101.32463990000002
10
76.047469899999996
20
-110.84560440000001
42
0.27485314612063805
10
74.660085099999989
20
-112.34715970000002
10
63.264290199999998
20
-165.96015940000001
42
0.41421356237309681
10
64.804761999999997
20
-168.332278
10
92.828972017102259
20
-174.28900761954012
42
-0.086769847720695889
10
93.468142900000004
20
-174.54618919999999
10
140.12038038825173
20
-203.51296291892112
42
-0.07941955706112426
10
140.597475
20
-203.92650130000004
10
151.18969487542364
20
-216.54981742062205
42
-0.075009692561739588
10
151.50077480000002
20
-217.05903660000001
10
160.19613630000003
20
-237.70294060000001
42
0.30172176457858613
10
162.03930510000004
20
-238.92658460000001
10
211.27945850000003
20
-238.92658460000001
42
0.30172176457858418
10
213.1226273
20
-237.70294060000001
10
221.8179887704336
20
-217.05903658754639
42
-0.075009692561738478
10
222.1290687
20
-216.54981740000005
10
232.72128858293885
20
-203.92650128568405
42
-0.079419557061127161
10
233.19838320000002
20
-203.51296289999999
10
279.85062074339049
20
-174.54618926988232
42
-0.086769847720701926
10
280.48979160000005
20
-174.28900769999998
10
308.51400160000003
20
-168.332278
42
0.41421356237308377
10
310.05447339999995
20
-165.96015940000001
10
298.65867850000001
20
-112.34715970000002
42
0.27485314612064077
10
297.2712937
20
-110.84560440000001
10
265.18312020000002
20
-101.32463990000002
42
0.043090162117232739
10
264.84605540000007
20
-101.2555021
10
237.51106050000001
20
-98.065244100000015
42
0.14792064545765027
10
236.37123390000002
20
-98.269747499999994
10
225.57854061632469
20
-103.76889943203899
42
-0.21074472994075216
10
223.96679259999999
20
-103.85897400000002
10
207.4675599350802
20
-97.656477906683449
42
-0.044455698210244698
10
207.14771040000002
20
-97.502589700000016
10
202.12734929999999
20
-94.511711900000023
42
0.059917891086207403
10
201.69076509999999
20
-94.318003099999999
10
173.70569380000003
20
-85.725465599999993
42
0.33922043409526709
10
171.4247263
20
-86.5740847
10
158.47991342571993
20
-107.19657871614451
42
-0.38829293475767318
10
155.87799740000003
20
-107.91530250000001
10
136.94752969999999
20
-98.269747499999994
42
0.14792064545765249
10
135.8077031
20
-98.065244100000015
10
108.4727082
20
-101.2555021
42
0.043090162117232739
0
LWPOLYLINE
5
101
100
AcDbEntity
8
0
100
AcDbPolyline
90
4
70
1
43
0.0
10
204.3339143
20
-132.47212260000001
10
189.4930726
20
-141.74570980000001
10
198.2367405
20
-155.73850340000001
10
213.07758219999997
20
-146.4649162
0
LWPOLYLINE
5
102
100
AcDbEntity
8
0
100
AcDbPolyline
90
4
70
1
43
0.0
10
209.63000460000001
20
-173.97153740000005
10
218.3736725
20
-187.96433100000002
10
233.21451420000002
20
-178.69074380000001
10
224.47084630000003
20
-164.69795019999998
0
LWPOLYLINE
5
103
100
AcDbEntity
8
0
100
AcDbPolyline
90
4
70
1
43
0.0
10
262.52348769999998
20
-145.15495170000003
10
268.7044965
20
-160.45348530000001
10
284.93021390000001
20
-153.89786989999999
10
278.74920510000004
20
-138.5993363
0
LWPOLYLINE
5
104
100
AcDbEntity
8
0
100
AcDbPolyline
90
4
70
1
43
0.0
10
160.24118139999999
20
-146.4649162
10
175.08202309999999
20
-155.73850340000001
10
183.82569099999998
20
-141.74570980000001
10
168.98484930000001
20
-132.47212260000001
0
LWPOLYLINE
5
105
100
AcDbEntity
8
0
100
AcDbPolyline
90
4
70
1
43
0.0
10
81.552579800000004
20
-170.10304049999999
10
84.98312270000001
20
-153.9636051
10
67.865539599999991
20
-150.32515049999998
10
64.434996699999999
20
-166.46458590000003
0
LWPOLYLINE
5
106
100
AcDbEntity
8
0
100
AcDbPolyline
90
4
70
1
43
0.0
10
233.42674770000002
20
-176.19976860000003
10
248.26758940000002
20
-166.92618140000002
10
239.52392149999997
20
-152.93338779999999
10
224.68307980000003
20
-162.206975
0
LWPOLYLINE
5
107
100
AcDbEntity
8
0
100
AcDbPolyline
90
4
70
1
43
0.0
10
231.8343309
20
-201.95756780000005
10
246.67517259999997
20
-192.68398059999998
10
237.9315047
20
-178.69118700000001
10
223.09066299999998
20
-187.96477419999999
0
LWPOLYLINE
5
108
100
AcDbEntity
8
0
100
AcDbPolyline
90
4
70
1
43
0.0
10
127.57795000000002
20
-156.62655900000001
10
135.06879319999999
20
-141.9249513
10
119.476179
20
-133.9801176
10
111.98533580000002
20
-148.68172530000004
0
LWPOLYLINE
5
109
100
AcDbEntity
8
0
100
AcDbPolyline
90
4
70
1
43
0.0
10
291.76618380000002
20
-170.10304049999999
10
308.88376689999996
20
-166.46458590000003
10
305.45322400000003
20
-150.32515049999998
10
288.33564089999999
20
-153.9636051
0
LWPOLYLINE
5
110
100
AcDbEntity
8
0
100
AcDbPolyline
90
4
70
1
43
0.0
10
208.3052065
20
-171.85141720000001
10
223.1460482
20
-162.57783000000001
10
214.40238030000003
20
-148.58503640000004
10
199.56153860000001
20
-157.85862360000004
0
LWPOLYLINE
5
111
100
AcDbEntity
8
0
100
AcDbPolyline
90
4
70
1
43
0.0
10
197.12834960000004
20
-228.52035640000003
10
212.42688319999999
20
-234.70136519999997
10
218.98249860000004
20
-218.47564780000002
10
203.68396500000003
20
-212.29463900000002
0
LWPOLYLINE
5
112
100
AcDbEntity
8
0
100
AcDbPolyline
90
4
70
1
43
0.0
10
219.59821780000004
20
-216.84345150000001
10
230.84700090000001
20
-203.4376737
10
218.20726759999999
20
-192.83167810000003
10
206.9584845
20
-206.23745590000001
0
LWPOLYLINE
5
113
100
AcDbEntity
8
0
100
AcDbPolyline
90
4
70
1
43
0.0
10
133.79484209999998
20
-152.93338779999999
10
125.05117420000002
20
-166.92618140000002
10
139.89201589999999
20
-176.19976860000003
10
148.63568380000001
20
-162.206975
0
LWPOLYLINE
5
114
100
AcDbEntity
8
0
100
AcDbPolyline
90
4
70
1
43
0.0
10
135.11964019999996
20
-150.81326759999999
10
149.96048190000005
20
-160.08685480000003
10
158.70414980000001
20
-146.0940612
10
143.86330810000001
20
-136.82047399999999
0
LWPOLYLINE
5
115
100
AcDbEntity
8
0
100
AcDbPolyline
90
4
70
1
43
0.0
10
223.35828169999999
20
-160.08685480000003
10
238.19912340000002
20
-150.81326759999999
10
229.45545550000006
20
-136.82047399999999
10
214.61461380000003
20
-146.0940612
0
LWPOLYLINE
5
116
100
AcDbEntity
8
0
100
AcDbPolyline
90
4
70
1
43
0.0
10
245.74081360000002
20
-156.62655900000001
10
261.33342779999998
20
-148.68172530000004
10
253.84258459999998
20
-133.9801176
10
238.2499704
20
-141.9249513
0
LWPOLYLINE
5
117
100
AcDbEntity
8
0
100
AcDbPolyline
90
4
70
1
43
0.0
10
244.08178880000006
20
-114.82347740000002
10
236.5909456
20
-100.12186970000002
10
220.99833140000001
20
-108.06670339999999
10
228.48917459999998
20
-122.76831110000002
0
LWPOLYLINE
5
118
100
AcDbEntity
8
0
100
AcDbPolyline
90
4
70
1
43
0.0
10
169.63479860000004
20
-212.29463900000002
10
154.336265
20
-218.47564780000002
10
160.89188039999999
20
-234.70136519999997
10
176.19041399999998
20
-228.52035640000003
0
LWPOLYLINE
5
119
100
AcDbEntity
8
0
100
AcDbPolyline
90
4
70
1
43
0.0
10
165.01355709999999
20
-171.85141720000001
10
173.75722500000001
20
-157.85862360000004
10
158.91638330000001
20
-148.58503640000004
10
150.17271540000002
20
-162.57783000000001
0
LWPOLYLINE
5
120
100
AcDbEntity
8
0
100
AcDbPolyline
90
4
70
1
43
0.0
10
163.68875900000003
20
-173.97153740000005
10
148.84791730000001
20
-164.69795019999998
10
140.10424940000001
20
-178.69074380000001
10
154.94509109999998
20
-187.96433100000002
0
LWPOLYLINE
5
121
100
AcDbEntity
8
0
100
AcDbPolyline
90
4
70
1
43
0.0
10
141.48443269999999
20
-201.95756780000005
10
150.2281006
20
-187.96477419999999
10
135.38725890000001
20
-178.69118700000001
10
126.64359099999999
20
-192.68398059999998
0
LWPOLYLINE
5
122
100
AcDbEntity
8
0
100
AcDbPolyline
90
4
70
1
43
0.0
10
284.38531879999999
20
-135.3788007
10
287.81586170000003
20
-151.51823610000002
10
304.93344480000007
20
-147.87978150000001
10
301.50290189999998
20
-131.74034610000001
0
LWPOLYLINE
5
123
100
AcDbEntity
8
0
100
AcDbPolyline
90
4
70
1
43
0.0
10
104.61426709999999
20
-160.45348530000001
10
110.79527590000001
20
-145.15495170000003
10
94.569558499999999
20
-138.5993363
10
88.388549699999999
20
-153.89786989999999
0
LWPOLYLINE
5
124
100
AcDbEntity
8
0
100
AcDbPolyline
90
4
70
1
43
0.0
10
143.69461269999999
20
-124.99582740000001
10
128.10199850000001
20
-117.05099369999999
10
120.61115530000002
20
-131.7526014
10
136.20376950000002
20
-139.69743510000001
0
LWPOLYLINE
5
125
100
AcDbEntity
8
0
100
AcDbPolyline
90
4
70
1
43
0.0
10
153.93177409999998
20
-120.70756019999999
10
145.18810619999999
20
-134.70035380000002
10
160.02894789999999
20
-143.973941
10
168.77261580000004
20
-129.98114740000003
0
LWPOLYLINE
5
126
100
AcDbEntity
8
0
100
AcDbPolyline
90
4
70
1
43
0.0
10
204.5461478
20
-129.98114740000003
10
213.28981569999996
20
-143.973941
10
228.13065739999999
20
-134.70035380000002
10
219.38698950000003
20
-120.70756019999999
0
LWPOLYLINE
5
127
100
AcDbEntity
8
0
100
AcDbPolyline
90
4
70
1
43
0.0
10
277.81268870000008
20
-136.28137670000001
10
271.63167989999994
20
-120.98284309999998
10
255.40596249999999
20
-127.53845849999999
10
261.58697130000002
20
-142.83699209999997
0
LWPOLYLINE
5
128
100
AcDbEntity
8
0
100
AcDbPolyline
90
4
70
1
43
0.0
10
300.9831226
20
-129.29497709999998
10
297.55257969999997
20
-113.15554170000001
10
280.43499659999998
20
-116.7939963
10
283.86553950000001
20
-132.9334317
0
LWPOLYLINE
5
129
100
AcDbEntity
8
0
100
AcDbPolyline
90
4
70
1
43
0.0
10
129.23697479999998
20
-114.82347740000002
10
144.829589
20
-122.76831110000002
10
152.32043220000003
20
-108.06670339999999
10
136.72781799999998
20
-100.12186970000002
0
LWPOLYLINE
5
130
100
AcDbEntity
8
0
100
AcDbPolyline
90
4
70
1
43
0.0
10
142.4717627
20
-203.4376737
10
153.7205458
20
-216.84345150000001
10
166.36027909999999
20
-206.23745590000001
10
155.11149599999999
20
-192.83167810000003
0
LWPOLYLINE
5
131
100
AcDbEntity
8
0
100
AcDbPolyline
90
4
70
1
43
0.0
10
252.7076083
20
-131.7526014
10
245.21676510000003
20
-117.05099369999999
10
229.62415090000005
20
-124.99582740000001
10
237.11499410000002
20
-139.69743510000001
0
LWPOLYLINE
5
132
100
AcDbEntity
8
0
100
AcDbPolyline
90
4
70
1
43
0.0
10
264.51415459999998
20
-103.3663499
10
248.28843720000003
20
-109.92196530000001
10
254.469446
20
-125.22049890000002
10
270.69516339999996
20
-118.6648835
0
LWPOLYLINE
5
133
100
AcDbEntity
8
0
100
AcDbPolyline
90
4
70
1
43
0.0
10
89.4532241
20
-132.9334317
10
92.883767000000006
20
-116.7939963
10
75.766183900000001
20
-113.15554170000001
10
72.33564100000001
20
-129.29497709999998
0
LWPOLYLINE
5
134
100
AcDbEntity
8
0
100
AcDbPolyline
90
4
70
1
43
0.0
10
117.91280110000001
20
-127.53845849999999
10
101.68708370000002
20
-120.98284309999998
10
95.506074900000016
20
-136.28137670000001
10
111.73179230000001
20
-142.83699209999997
0
LWPOLYLINE
5
135
100
AcDbEntity
8
0
100
AcDbPolyline
90
4
70
1
43
0.0
10
102.62360020000001
20
-118.6648835
10
118.84931760000001
20
-125.22049890000002
10
125.03032640000001
20
-109.92196530000001
10
108.80460900000003
20
-103.3663499
0
LWPOLYLINE
5
136
100
AcDbEntity
8
0
100
AcDbPolyline
90
4
70
1
43
0.0
10
85.502901900000012
20
-151.51823610000002
10
88.933444800000018
20
-135.3788007
10
71.815861700000013
20
-131.74034610000001
10
68.385318799999993
20
-147.87978150000001
0
LWPOLYLINE
5
137
100
AcDbEntity
8
0
100
AcDbPolyline
90
44
70
1
43
0.0
10
166.33545680000003
20
-125.69777940000002
10
163.34617700000001
20
-112.52869050000001
42
0.22266086889365172
10
162.3037741
20
-111.18939930000002
10
136.94752969999999
20
-98.269747499999994
42
0.14792064545765249
10
135.8077031
20
-98.065244100000015
10
108.4727082
20
-101.2555021
42
0.043090162117232739
10
108.13564340000001
20
-101.32463990000002
10
76.047469899999996
20
-110.84560440000001
42
0.27485314612063805
10
74.660085099999989
20
-112.34715970000002
10
63.264290199999998
20
-165.96015940000001
42
0.41421356237309681
10
64.804761999999997
20
-168.332278
10
92.828972017102259
20
-174.28900761954012
42
-0.086769847720695889
10
93.468142900000004
20
-174.54618919999999
10
140.12038038825173
20
-203.51296291892112
42
-0.07941955706112426
10
140.597475
20
-203.92650130000004
10
151.18969487542364
20
-216.54981742062205
42
-0.075009692561739588
10
151.50077480000002
20
-217.05903660000001
10
160.19613630000003
20
-237.70294060000001
42
0.30172176457858613
10
162.03930510000004
20
-238.92658460000001
10
211.27945850000003
20
-238.92658460000001
42
0.30172176457858418
10
213.1226273
20
-237.70294060000001
10
221.8179887704336
20
-217.05903658754639
42
-0.075009692561738478
10
222.1290687
20
-216.54981740000005
10
232.72128858293885
20
-203.92650128568405
42
-0.079419557061127161
10
233.19838320000002
20
-203.51296289999999
10
279.85062074339049
20
-174.54618926988232
42
-0.086769847720701926
10
280.48979160000005
20
-174.28900769999998
10
308.51400160000003
20
-168.332278
42
0.41421356237308377
10
310.05447339999995
20
-165.96015940000001
10
298.65867850000001
20
-112.34715970000002
42
0.27485314612064077
10
297.2712937
20
-110.84560440000001
10
265.18312020000002
20
-101.32463990000002
42
0.043090162117232739
10
264.84605540000007
20
-101.2555021
10
237.51106050000001
20
-98.065244100000015
42
0.14792064545765027
10
236.37123390000002
20
-98.269747499999994
10
211.01498950000004
20
-111.18939930000002
42
0.22266086889365172
10
209.9725866
20
-112.52869050000001
10
206.98330685561763
20
-125.69777941262478
42
-0.19986972426207611
10
206.09276149999999
20
-126.95115380000001
10
190.32435537645773
20
-136.80434736232453
42
-0.14054084191590596
10
189.2645168
20
-137.10825119999998
10
184.05424680000004
20
-137.10825124442613
42
-0.14054084191590982
10
182.99440819999998
20
-136.80434740000004
10
167.22600213022261
20
-126.95115375163368
42
-0.19986972426206825
0
ENDSEC
0
SECTION
2
OBJECTS
0
DICTIONARY
5
C
100
AcDbDictionary
3
ACAD_GROUP
350
D
3
ACAD_MLINESTYLE
350
17
0
DICTIONARY
5
D
100
AcDbDictionary
0
DICTIONARY
5
1A
330
C
100
AcDbDictionary
0
DICTIONARY
5
17
100
AcDbDictionary
0
ENDSEC
0
EOF
