0
SECTION
2
HEADER
9
$INSUNITS
70
4
0
ENDSEC
0
SECTION
2
TABLES
0
TABLE
2
LTYPE
0
LTYPE
72
65
70
64
2
CONTINUOUS
3
______
73
0
40
0
0
ENDTAB
0
TABLE
2
LAYER
0
ENDTAB
0
ENDSEC
0
SECTION
2
ENTITIES
0
LINE
8
0
10
108.1356434
20
-101.3246399
11
76.0474699
21
-110.8456044
0
LINE
8
0
10
74.6600851
20
-112.3471597
11
63.2642902
21
-165.9601594
0
LINE
8
0
10
64.804762
20
-168.332278
11
92.828972
21
-174.2890077
0
LINE
8
0
10
93.4681429
20
-174.5461892
11
140.1203804
21
-203.5129629
0
LINE
8
0
10
140.597475
20
-203.9265013
11
151.1896949
21
-216.5498174
0
LINE
8
0
10
151.5007748
20
-217.0590366
11
160.1961363
21
-237.7029406
0
LINE
8
0
10
162.0393051
20
-238.9265846
11
211.2794585
21
-238.9265846
0
LINE
8
0
10
213.1226273
20
-237.7029406
11
221.8179888
21
-217.0590366
0
LINE
8
0
10
222.1290687
20
-216.5498174
11
232.7212886
21
-203.9265013
0
LINE
8
0
10
233.1983832
20
-203.5129629
11
279.8506207
21
-174.5461892
0
LINE
8
0
10
280.4897916
20
-174.2890077
11
308.5140016
21
-168.332278
0
LINE
8
0
10
310.0544734
20
-165.9601594
11
298.6586785
21
-112.3471597
0
LINE
8
0
10
297.2712937
20
-110.8456044
11
265.1831202
21
-101.3246399
0
LINE
8
0
10
264.8460554
20
-101.2555021
11
237.5110605
21
-98.0652441
0
LINE
8
0
10
236.3712339
20
-98.2697475
11
225.5785406
21
-103.7688994
0
LINE
8
0
10
223.9667926
20
-103.858974
11
207.4675599
21
-97.656478
0
LINE
8
0
10
207.1477104
20
-97.5025897
11
202.1273493
21
-94.5117119
0
LINE
8
0
10
201.6907651
20
-94.3180031
11
173.7056938
21
-85.7254656
0
LINE
8
0
10
171.4247263
20
-86.5740847
11
158.4799134
21
-107.1965787
0
LINE
8
0
10
155.8779974
20
-107.9153025
11
136.9475297
21
-98.2697475
0
LINE
8
0
10
135.8077031
20
-98.0652441
11
108.4727082
21
-101.2555021
0
ARC
8
0
10
76.6163803
20
-112.7629831
40
2
50
106.5262866
51
167.9999995
0
ARC
8
0
10
65.2205854
20
-166.3759828
40
2
50
167.9999995
51
257.9999995
0
ARC
8
0
10
92.4131486
20
-176.2453029
40
2
50
58.1634996
51
77.9999995
0
ARC
8
0
10
139.0653861
20
-205.2120766
40
2
50
40.0000012
51
58.1634996
0
ARC
8
0
10
149.657606
20
-217.8353926
40
2
50
22.8411771
51
40.0000012
0
ARC
8
0
10
162.0393051
20
-236.9265846
40
2
50
202.8411771
51
270
0
ARC
8
0
10
211.2794585
20
-236.9265846
40
2
50
270
51
337.1588229
0
ARC
8
0
10
223.6611576
20
-217.8353926
40
2
50
139.9999988
51
157.1588229
0
ARC
8
0
10
234.2533775
20
-205.2120766
40
2
50
121.8365004
51
139.9999988
0
ARC
8
0
10
280.905615
20
-176.2453029
40
2
50
102.0000005
51
121.8365004
0
ARC
8
0
10
308.0981782
20
-166.3759828
40
2
50
282.0000005
51
12.0000005
0
ARC
8
0
10
296.7023833
20
-112.7629831
40
2
50
12.0000005
51
73.4737134
0
ARC
8
0
10
264.6142098
20
-103.2420186
40
2
50
73.4737134
51
83.3431462
0
ARC
8
0
10
237.2792149
20
-100.0517605
40
2
50
83.3431462
51
117.0000006
0
ARC
8
0
10
224.6705596
20
-101.9868864
40
2
50
249.3974382
51
297.0000006
0
ARC
8
0
10
208.1713269
20
-95.7843904
40
2
50
239.2156456
51
249.3974382
0
ARC
8
0
10
201.1037327
20
-96.2299113
40
2
50
59.2156456
51
72.9314165
0
ARC
8
0
10
173.1186614
20
-87.6373738
40
2
50
72.9314165
51
147.8833604
0
ARC
8
0
10
156.7859784
20
-106.1332895
40
2
50
242.9999994
51
327.8833604
0
ARC
8
0
10
136.0395487
20
-100.0517605
40
2
50
62.9999994
51
96.6568538
0
ARC
8
0
10
108.7045538
20
-103.2420186
40
2
50
96.6568538
51
106.5262866
0
ENDSEC
0
EOF