0
SECTION
2
HEADER
9
$INSUNITS
70
4
0
ENDSEC
0
SECTION
2
TABLES
0
TABLE
2
LTYPE
0
LTYPE
72
65
70
64
2
CONTINUOUS
3
______
73
0
40
0
0
ENDTAB
0
TABLE
2
LAYER
0
ENDTAB
0
ENDSEC
0
SECTION
2
ENTITIES
0
LINE
8
0
10
105.402701
20
-96.3405724
11
72.4787298
21
-106.4033732
0
LINE
8
0
10
71.107015
20
-107.9002091
11
58.2119587
21
-168.5666793
0
LINE
8
0
10
59.7524305
20
-170.9387979
11
85.6468389
21
-176.4428243
0
LINE
8
0
10
86.2483983
20
-176.6772217
11
139.075056
21
-207.889839
0
LINE
8
0
10
139.589762
20
-208.3261616
11
148.4273465
21
-218.8583846
0
LINE
8
0
10
148.7437971
20
-219.3804796
11
156.8629771
21
-239.0386485
0
LINE
8
0
10
158.7115166
20
-240.2751683
11
214.607247
21
-240.2751683
0
LINE
8
0
10
216.4557865
20
-239.0386485
11
224.5749665
21
-219.3804796
0
LINE
8
0
10
224.8914171
20
-218.8583846
11
233.7290016
21
-208.3261616
0
LINE
8
0
10
234.2437076
20
-207.889839
11
287.0703653
21
-176.6772217
0
LINE
8
0
10
287.6719247
20
-176.4428243
11
313.5663331
21
-170.9387979
0
LINE
8
0
10
315.1068049
20
-168.5666793
11
302.2117486
21
-107.9002091
0
LINE
8
0
10
300.8400338
20
-106.4033732
11
267.9160626
21
-96.3405724
0
LINE
8
0
10
267.5747872
20
-96.2680863
11
239.8029661
21
-92.8642952
0
LINE
8
0
10
238.6516801
20
-93.0674277
11
223.7890521
21
-100.6403149
0
LINE
8
0
10
222.4655553
20
-100.8146624
11
207.6245375
21
-97.6625447
0
LINE
8
0
10
207.0164367
20
-97.4243835
11
202.1273493
21
-94.5117119
0
LINE
8
0
10
201.6907651
20
-94.3180031
11
173.708058
21
-85.7261915
0
LINE
8
0
10
171.4254374
20
-86.5774487
11
160.4341461
21
-104.148455
0
LINE
8
0
10
157.8305769
20
-104.869817
11
134.6670835
21
-93.0674277
0
LINE
8
0
10
133.5157975
20
-92.8642952
11
105.7439764
21
-96.2680863
0
ARC
8
0
10
73.0633102
20
-108.3160325
40
2
50
106.9951163
51
167.9999995
0
ARC
8
0
10
60.1682539
20
-168.9825027
40
2
50
167.9999995
51
257.9999995
0
ARC
8
0
10
85.2310155
20
-178.3991195
40
2
50
59.4232953
51
77.9999995
0
ARC
8
0
10
138.0576732
20
-209.6117368
40
2
50
40.0000012
51
59.4232953
0
ARC
8
0
10
146.8952577
20
-220.1439599
40
2
50
22.4415104
51
40.0000012
0
ARC
8
0
10
158.7115166
20
-238.2751683
40
2
50
202.4415104
51
270
0
ARC
8
0
10
214.607247
20
-238.2751683
40
2
50
270
51
337.5584896
0
ARC
8
0
10
226.4235059
20
-220.1439599
40
2
50
139.9999988
51
157.5584896
0
ARC
8
0
10
235.2610904
20
-209.6117368
40
2
50
120.5767047
51
139.9999988
0
ARC
8
0
10
288.0877481
20
-178.3991195
40
2
50
102.0000005
51
120.5767047
0
ARC
8
0
10
313.1505097
20
-168.9825027
40
2
50
282.0000005
51
12.0000005
0
ARC
8
0
10
300.2554534
20
-108.3160325
40
2
50
12.0000005
51
73.0048837
0
ARC
8
0
10
267.3314823
20
-98.2532318
40
2
50
73.0048837
51
83.0125177
0
ARC
8
0
10
239.5596611
20
-94.8494407
40
2
50
83.0125177
51
117.0000006
0
ARC
8
0
10
222.8810711
20
-98.8583019
40
2
50
258.0090085
51
297.0000006
0
ARC
8
0
10
208.0400533
20
-95.7061842
40
2
50
239.2156456
51
258.0090085
0
ARC
8
0
10
201.1037327
20
-96.2299113
40
2
50
59.2156456
51
72.9314165
0
ARC
8
0
10
173.1210256
20
-87.6380997
40
2
50
72.9314165
51
147.9725493
0
ARC
8
0
10
158.7385579
20
-103.087804
40
2
50
242.9999994
51
327.9725493
0
ARC
8
0
10
133.7591025
20
-94.8494407
40
2
50
62.9999994
51
96.9874823
0
ARC
8
0
10
105.9872813
20
-98.2532318
40
2
50
96.9874823
51
106.9951163
0
ENDSEC
0
EOF