0
SECTION
2
HEADER
9
$INSUNITS
70
4
0
ENDSEC
0
SECTION
2
TABLES
0
TABLE
2
LTYPE
0
LTYPE
72
65
70
64
2
CONTINUOUS
3
______
73
0
40
0
0
ENDTAB
0
TABLE
2
LAYER
0
ENDTAB
0
ENDSEC
0
SECTION
2
ENTITIES
0
LINE
8
0
10
64.4349967
20
-166.4645859
11
81.5525798
21
-170.1030405
0
LINE
8
0
10
81.5525798
20
-170.1030405
11
84.9831227
21
-153.9636051
0
LINE
8
0
10
84.9831227
20
-153.9636051
11
67.8655396
21
-150.3251505
0
LINE
8
0
10
67.8655396
20
-150.3251505
11
64.4349967
21
-166.4645859
0
LINE
8
0
10
68.3853188
20
-147.8797815
11
85.5029019
21
-151.5182361
0
LINE
8
0
10
85.5029019
20
-151.5182361
11
88.9334448
21
-135.3788007
0
LINE
8
0
10
88.9334448
20
-135.3788007
11
71.8158617
21
-131.7403461
0
LINE
8
0
10
71.8158617
20
-131.7403461
11
68.3853188
21
-147.8797815
0
LINE
8
0
10
72.335641
20
-129.2949771
11
89.4532241
21
-132.9334317
0
LINE
8
0
10
89.4532241
20
-132.9334317
11
92.883767
21
-116.7939963
0
LINE
8
0
10
92.883767
20
-116.7939963
11
75.7661839
21
-113.1555417
0
LINE
8
0
10
75.7661839
20
-113.1555417
11
72.335641
21
-129.2949771
0
LINE
8
0
10
88.3885497
20
-153.8978699
11
104.6142671
21
-160.4534853
0
LINE
8
0
10
104.6142671
20
-160.4534853
11
110.7952759
21
-145.1549517
0
LINE
8
0
10
110.7952759
20
-145.1549517
11
94.5695585
21
-138.5993363
0
LINE
8
0
10
94.5695585
20
-138.5993363
11
88.3885497
21
-153.8978699
0
LINE
8
0
10
95.5060749
20
-136.2813767
11
111.7317923
21
-142.8369921
0
LINE
8
0
10
111.7317923
20
-142.8369921
11
117.9128011
21
-127.5384585
0
LINE
8
0
10
117.9128011
20
-127.5384585
11
101.6870837
21
-120.9828431
0
LINE
8
0
10
101.6870837
20
-120.9828431
11
95.5060749
21
-136.2813767
0
LINE
8
0
10
102.6236002
20
-118.6648835
11
118.8493176
21
-125.2204989
0
LINE
8
0
10
118.8493176
20
-125.2204989
11
125.0303264
21
-109.9219653
0
LINE
8
0
10
125.0303264
20
-109.9219653
11
108.804609
21
-103.3663499
0
LINE
8
0
10
108.804609
20
-103.3663499
11
102.6236002
21
-118.6648835
0
LINE
8
0
10
111.9853358
20
-148.6817253
11
127.57795
21
-156.626559
0
LINE
8
0
10
127.57795
20
-156.626559
11
135.0687932
21
-141.9249513
0
LINE
8
0
10
135.0687932
20
-141.9249513
11
119.476179
21
-133.9801176
0
LINE
8
0
10
119.476179
20
-133.9801176
11
111.9853358
21
-148.6817253
0
LINE
8
0
10
120.6111553
20
-131.7526014
11
136.2037695
21
-139.6974351
0
LINE
8
0
10
136.2037695
20
-139.6974351
11
143.6946127
21
-124.9958274
0
LINE
8
0
10
143.6946127
20
-124.9958274
11
128.1019985
21
-117.0509937
0
LINE
8
0
10
128.1019985
20
-117.0509937
11
120.6111553
21
-131.7526014
0
LINE
8
0
10
129.2369748
20
-114.8234774
11
144.829589
21
-122.7683111
0
LINE
8
0
10
144.829589
20
-122.7683111
11
152.3204322
21
-108.0667034
0
LINE
8
0
10
152.3204322
20
-108.0667034
11
136.727818
21
-100.1218697
0
LINE
8
0
10
136.727818
20
-100.1218697
11
129.2369748
21
-114.8234774
0
LINE
8
0
10
125.0511742
20
-166.9261814
11
137.7718956
21
-174.8749704
0
LINE
8
0
10
147.5758452
20
-163.9030714
11
148.6356838
21
-162.206975
0
LINE
8
0
10
148.6356838
20
-162.206975
11
133.7948421
21
-152.9333878
0
LINE
8
0
10
133.7948421
20
-152.9333878
11
125.0511742
21
-166.9261814
0
LINE
8
0
10
135.1196402
20
-150.8132676
11
149.9604819
21
-160.0868548
0
LINE
8
0
10
149.9604819
20
-160.0868548
11
158.7041498
21
-146.0940612
0
LINE
8
0
10
158.7041498
20
-146.0940612
11
143.8633081
21
-136.820474
0
LINE
8
0
10
143.8633081
20
-136.820474
11
135.1196402
21
-150.8132676
0
LINE
8
0
10
145.1881062
20
-134.7003538
11
160.0289479
21
-143.973941
0
LINE
8
0
10
160.0289479
20
-143.973941
11
168.7726158
21
-129.9811474
0
LINE
8
0
10
168.7726158
20
-129.9811474
11
153.9317741
21
-120.7075602
0
LINE
8
0
10
153.9317741
20
-120.7075602
11
145.1881062
21
-134.7003538
0
LINE
8
0
10
136.712057
20
-176.5710668
11
154.9450911
21
-187.964331
0
LINE
8
0
10
154.9450911
20
-187.964331
11
163.688759
21
-173.9715374
0
LINE
8
0
10
147.5758452
20
-163.9030714
11
163.688759
21
-173.9715374
0
LINE
8
0
10
150.1727154
20
-162.57783
11
165.0135571
21
-171.8514172
0
LINE
8
0
10
165.0135571
20
-171.8514172
11
173.757225
21
-157.8586236
0
LINE
8
0
10
173.757225
20
-157.8586236
11
158.9163833
21
-148.5850364
0
LINE
8
0
10
158.9163833
20
-148.5850364
11
150.1727154
21
-162.57783
0
LINE
8
0
10
160.2411814
20
-146.4649162
11
175.0820231
21
-155.7385034
0
LINE
8
0
10
175.0820231
20
-155.7385034
11
183.825691
21
-141.7457098
0
LINE
8
0
10
183.825691
20
-141.7457098
11
168.9848493
21
-132.4721226
0
LINE
8
0
10
168.9848493
20
-132.4721226
11
160.2411814
21
-146.4649162
0
LINE
8
0
10
126.643591
20
-192.6839806
11
141.4844327
21
-201.9575678
0
LINE
8
0
10
141.4844327
20
-201.9575678
11
150.2281006
21
-187.9647742
0
LINE
8
0
10
150.2281006
20
-187.9647742
11
135.3872589
21
-178.691187
0
LINE
8
0
10
135.3872589
20
-178.691187
11
126.643591
21
-192.6839806
0
LINE
8
0
10
137.7718956
20
-174.8749704
11
136.712057
21
-176.5710668
0
LINE
8
0
10
142.4717627
20
-203.4376737
11
153.7205458
21
-216.8434515
0
LINE
8
0
10
153.7205458
20
-216.8434515
11
166.3602791
21
-206.2374559
0
LINE
8
0
10
166.3602791
20
-206.2374559
11
155.111496
21
-192.8316781
0
LINE
8
0
10
155.111496
20
-192.8316781
11
142.4717627
21
-203.4376737
0
LINE
8
0
10
157.0266071
20
-191.2247091
11
168.2753902
21
-204.6304869
0
LINE
8
0
10
168.2753902
20
-204.6304869
11
168.4415486
21
-204.4910635
0
LINE
8
0
10
169.7021617
20
-180.6614037
11
169.6663404
21
-180.6187135
0
LINE
8
0
10
169.6663404
20
-180.6187135
11
157.0266071
21
-191.2247091
0
LINE
8
0
10
154.336265
20
-218.4756478
11
160.8918804
21
-234.7013652
0
LINE
8
0
10
160.8918804
20
-234.7013652
11
176.190414
21
-228.5203564
0
LINE
8
0
10
176.190414
20
-228.5203564
11
169.6347986
21
-212.294639
0
LINE
8
0
10
169.6347986
20
-212.294639
11
154.336265
21
-218.4756478
0
LINE
8
0
10
171.9527582
20
-211.3581226
11
178.5083736
21
-227.58384
0
LINE
8
0
10
178.5083736
20
-227.58384
11
186.6593818
21
-224.2906189
0
LINE
8
0
10
187.4822335
20
-205.7487146
11
187.2512918
21
-205.1771138
0
LINE
8
0
10
187.2512918
20
-205.1771138
11
186.6593818
21
-205.416261
0
LINE
8
0
10
185.8365301
20
-205.7487146
11
171.9527582
21
-211.3581226
0
LINE
8
0
10
168.4415486
20
-204.4910635
11
168.4773699
21
-204.5337537
0
LINE
8
0
10
168.4773699
20
-204.5337537
11
181.1171032
21
-193.9277581
0
LINE
8
0
10
181.1171032
20
-193.9277581
11
169.8683201
21
-180.5219803
0
LINE
8
0
10
169.8683201
20
-180.5219803
11
169.7021617
21
-180.6614037
0
LINE
8
0
10
171.7834312
20
-178.9150113
11
183.0322143
21
-192.3207891
0
LINE
8
0
10
183.0322143
20
-192.3207891
11
186.6593818
21
-189.2772342
0
LINE
8
0
10
186.6593818
20
-170.9740357
11
184.4231645
21
-168.3090157
0
LINE
8
0
10
184.4231645
20
-168.3090157
11
171.7834312
21
-178.9150113
0
LINE
8
0
10
291.7661838
20
-170.1030405
11
308.8837669
21
-166.4645859
0
LINE
8
0
10
308.8837669
20
-166.4645859
11
305.453224
21
-150.3251505
0
LINE
8
0
10
305.453224
20
-150.3251505
11
288.3356409
21
-153.9636051
0
LINE
8
0
10
288.3356409
20
-153.9636051
11
291.7661838
21
-170.1030405
0
LINE
8
0
10
287.8158617
20
-151.5182361
11
304.9334448
21
-147.8797815
0
LINE
8
0
10
304.9334448
20
-147.8797815
11
301.5029019
21
-131.7403461
0
LINE
8
0
10
301.5029019
20
-131.7403461
11
284.3853188
21
-135.3788007
0
LINE
8
0
10
284.3853188
20
-135.3788007
11
287.8158617
21
-151.5182361
0
LINE
8
0
10
283.8655395
20
-132.9334317
11
300.9831226
21
-129.2949771
0
LINE
8
0
10
300.9831226
20
-129.2949771
11
297.5525797
21
-113.1555417
0
LINE
8
0
10
297.5525797
20
-113.1555417
11
280.4349966
21
-116.7939963
0
LINE
8
0
10
280.4349966
20
-116.7939963
11
283.8655395
21
-132.9334317
0
LINE
8
0
10
268.7044965
20
-160.4534853
11
284.9302139
21
-153.8978699
0
LINE
8
0
10
284.9302139
20
-153.8978699
11
278.7492051
21
-138.5993363
0
LINE
8
0
10
278.7492051
20
-138.5993363
11
262.5234877
21
-145.1549517
0
LINE
8
0
10
262.5234877
20
-145.1549517
11
268.7044965
21
-160.4534853
0
LINE
8
0
10
261.5869713
20
-142.8369921
11
277.8126887
21
-136.2813767
0
LINE
8
0
10
277.8126887
20
-136.2813767
11
271.6316799
21
-120.9828431
0
LINE
8
0
10
271.6316799
20
-120.9828431
11
255.4059625
21
-127.5384585
0
LINE
8
0
10
255.4059625
20
-127.5384585
11
261.5869713
21
-142.8369921
0
LINE
8
0
10
254.469446
20
-125.2204989
11
270.6951634
21
-118.6648835
0
LINE
8
0
10
270.6951634
20
-118.6648835
11
264.5141546
21
-103.3663499
0
LINE
8
0
10
264.5141546
20
-103.3663499
11
248.2884372
21
-109.9219653
0
LINE
8
0
10
248.2884372
20
-109.9219653
11
254.469446
21
-125.2204989
0
LINE
8
0
10
245.7408136
20
-156.626559
11
261.3334278
21
-148.6817253
0
LINE
8
0
10
261.3334278
20
-148.6817253
11
253.8425846
21
-133.9801176
0
LINE
8
0
10
253.8425846
20
-133.9801176
11
238.2499704
21
-141.9249513
0
LINE
8
0
10
238.2499704
20
-141.9249513
11
245.7408136
21
-156.626559
0
LINE
8
0
10
237.1149941
20
-139.6974351
11
252.7076083
21
-131.7526014
0
LINE
8
0
10
252.7076083
20
-131.7526014
11
245.2167651
21
-117.0509937
0
LINE
8
0
10
245.2167651
20
-117.0509937
11
229.6241509
21
-124.9958274
0
LINE
8
0
10
229.6241509
20
-124.9958274
11
237.1149941
21
-139.6974351
0
LINE
8
0
10
228.4891746
20
-122.7683111
11
244.0817888
21
-114.8234774
0
LINE
8
0
10
244.0817888
20
-114.8234774
11
236.5909456
21
-100.1218697
0
LINE
8
0
10
236.5909456
20
-100.1218697
11
220.9983314
21
-108.0667034
0
LINE
8
0
10
220.9983314
20
-108.0667034
11
228.4891746
21
-122.7683111
0
LINE
8
0
10
235.546868
20
-174.8749704
11
248.2675894
21
-166.9261814
0
LINE
8
0
10
248.2675894
20
-166.9261814
11
239.5239215
21
-152.9333878
0
LINE
8
0
10
239.5239215
20
-152.9333878
11
224.6830798
21
-162.206975
0
LINE
8
0
10
224.6830798
20
-162.206975
11
225.7429184
21
-163.9030714
0
LINE
8
0
10
223.3582817
20
-160.0868548
11
238.1991234
21
-150.8132676
0
LINE
8
0
10
238.1991234
20
-150.8132676
11
229.4554555
21
-136.820474
0
LINE
8
0
10
229.4554555
20
-136.820474
11
214.6146138
21
-146.0940612
0
LINE
8
0
10
214.6146138
20
-146.0940612
11
223.3582817
21
-160.0868548
0
LINE
8
0
10
213.2898157
20
-143.973941
11
228.1306574
21
-134.7003538
0
LINE
8
0
10
228.1306574
20
-134.7003538
11
219.3869895
21
-120.7075602
0
LINE
8
0
10
219.3869895
20
-120.7075602
11
204.5461478
21
-129.9811474
0
LINE
8
0
10
204.5461478
20
-129.9811474
11
213.2898157
21
-143.973941
0
LINE
8
0
10
218.3736725
20
-187.964331
11
236.6067066
21
-176.5710668
0
LINE
8
0
10
209.6300046
20
-173.9715374
11
225.7429184
21
-163.9030714
0
LINE
8
0
10
209.6300046
20
-173.9715374
11
218.3736725
21
-187.964331
0
LINE
8
0
10
208.3052065
20
-171.8514172
11
223.1460482
21
-162.57783
0
LINE
8
0
10
223.1460482
20
-162.57783
11
214.4023803
21
-148.5850364
0
LINE
8
0
10
214.4023803
20
-148.5850364
11
199.5615386
21
-157.8586236
0
LINE
8
0
10
199.5615386
20
-157.8586236
11
208.3052065
21
-171.8514172
0
LINE
8
0
10
198.2367405
20
-155.7385034
11
213.0775822
21
-146.4649162
0
LINE
8
0
10
213.0775822
20
-146.4649162
11
204.3339143
21
-132.4721226
0
LINE
8
0
10
204.3339143
20
-132.4721226
11
189.4930726
21
-141.7457098
0
LINE
8
0
10
189.4930726
20
-141.7457098
11
198.2367405
21
-155.7385034
0
LINE
8
0
10
231.8343309
20
-201.9575678
11
246.6751726
21
-192.6839806
0
LINE
8
0
10
246.6751726
20
-192.6839806
11
237.9315047
21
-178.691187
0
LINE
8
0
10
237.9315047
20
-178.691187
11
223.090663
21
-187.9647742
0
LINE
8
0
10
223.090663
20
-187.9647742
11
231.8343309
21
-201.9575678
0
LINE
8
0
10
236.6067066
20
-176.5710668
11
235.546868
21
-174.8749704
0
LINE
8
0
10
219.5982178
20
-216.8434515
11
230.8470009
21
-203.4376737
0
LINE
8
0
10
230.8470009
20
-203.4376737
11
218.2072676
21
-192.8316781
0
LINE
8
0
10
218.2072676
20
-192.8316781
11
206.9584845
21
-206.2374559
0
LINE
8
0
10
206.9584845
20
-206.2374559
11
219.5982178
21
-216.8434515
0
LINE
8
0
10
205.0433734
20
-204.6304869
11
216.2921565
21
-191.2247091
0
LINE
8
0
10
216.2921565
20
-191.2247091
11
203.6524232
21
-180.6187135
0
LINE
8
0
10
203.6524232
20
-180.6187135
11
203.6166019
21
-180.6614037
0
LINE
8
0
10
204.877215
20
-204.4910635
11
205.0433734
21
-204.6304869
0
LINE
8
0
10
212.4268832
20
-234.7013652
11
218.9824986
21
-218.4756478
0
LINE
8
0
10
218.9824986
20
-218.4756478
11
203.683965
21
-212.294639
0
LINE
8
0
10
203.683965
20
-212.294639
11
197.1283496
21
-228.5203564
0
LINE
8
0
10
197.1283496
20
-228.5203564
11
212.4268832
21
-234.7013652
0
LINE
8
0
10
194.81039
20
-227.58384
11
201.3660054
21
-211.3581226
0
LINE
8
0
10
201.3660054
20
-211.3581226
11
187.4822335
21
-205.7487146
0
LINE
8
0
10
186.6593818
20
-205.416261
11
186.0674718
21
-205.1771138
0
LINE
8
0
10
186.0674718
20
-205.1771138
11
185.8365301
21
-205.7487146
0
LINE
8
0
10
186.6593818
20
-224.2906189
11
194.81039
21
-227.58384
0
LINE
8
0
10
204.8413937
20
-204.5337537
11
204.877215
21
-204.4910635
0
LINE
8
0
10
203.6166019
20
-180.6614037
11
203.4504435
21
-180.5219803
0
LINE
8
0
10
203.4504435
20
-180.5219803
11
192.2016604
21
-193.9277581
0
LINE
8
0
10
192.2016604
20
-193.9277581
11
204.8413937
21
-204.5337537
0
LINE
8
0
10
190.2865493
20
-192.3207891
11
201.5353324
21
-178.9150113
0
LINE
8
0
10
201.5353324
20
-178.9150113
11
188.8955991
21
-168.3090157
0
LINE
8
0
10
188.8955991
20
-168.3090157
11
186.6593818
21
-170.9740357
0
LINE
8
0
10
186.6593818
20
-189.2772342
11
190.2865493
21
-192.3207891
0
ENDSEC
0
EOF