0
SECTION
2
HEADER
9
$INSUNITS
70
4
0
ENDSEC
0
SECTION
2
TABLES
0
TABLE
2
LTYPE
0
LTYPE
72
65
70
64
2
CONTINUOUS
3
______
73
0
40
0
0
ENDTAB
0
TABLE
2
LAYER
0
ENDTAB
0
ENDSEC
0
SECTION
2
ENTITIES
0
LINE
8
0
10
61.1733337
20
-168.5827347
11
83.6707285
21
-173.3647036
0
LINE
8
0
10
83.6707285
20
-173.3647036
11
85.5419337
21
-164.5613752
0
LINE
8
0
10
61.1733337
20
-168.5827347
11
73.6480352
21
-109.8938786
0
LINE
8
0
10
96.6886976
20
-160.2173179
11
95.3234097
21
-166.6404921
0
LINE
8
0
10
95.3234097
20
-166.6404921
11
85.5419337
21
-164.5613752
0
LINE
8
0
10
73.6480352
20
-109.8938786
11
90.9317039
21
-113.5676358
0
LINE
8
0
10
96.6886976
20
-160.2173179
11
106.1338546
21
-164.033409
0
LINE
8
0
10
106.1338546
20
-164.033409
11
109.5053139
21
-155.6887544
0
LINE
8
0
10
120.0026368
20
-156.4016401
11
118.7771524
21
-159.4348203
0
LINE
8
0
10
118.7771524
20
-159.4348203
11
109.5053139
21
-155.6887544
0
LINE
8
0
10
94.6417236
20
-104.3850149
11
103.9135622
21
-108.1310809
0
LINE
8
0
10
90.9317039
20
-113.5676358
11
94.6417236
21
-104.3850149
0
LINE
8
0
10
107.2850215
20
-99.7864262
11
119.9764062
21
-104.9140784
0
LINE
8
0
10
107.2850215
20
-99.7864262
11
103.9135622
21
-108.1310809
0
LINE
8
0
10
151.9332595
20
-114.8839681
11
160.8433248
21
-119.4238731
0
LINE
8
0
10
160.8433248
20
-119.4238731
11
159.9313321
21
-121.2137595
0
LINE
8
0
10
122.5300442
20
-99.9022816
11
131.4401095
21
-104.4421866
0
LINE
8
0
10
119.9764062
20
-104.9140784
11
122.5300442
21
-99.9022816
0
LINE
8
0
10
151.9332595
20
-114.8839681
11
156.019174
21
-106.8649094
0
LINE
8
0
10
156.019174
20
-106.8649094
11
135.526024
21
-96.4231279
0
LINE
8
0
10
135.526024
20
-96.4231279
11
131.4401095
21
-104.4421866
0
LINE
8
0
10
121.261764
20
-167.8010357
11
133.9824854
21
-175.7498247
0
LINE
8
0
10
126.0310374
20
-160.1686029
11
121.261764
21
-167.8010357
0
LINE
8
0
10
126.0310374
20
-160.1686029
11
120.0026368
21
-156.4016401
0
LINE
8
0
10
171.5021874
20
-130.8023894
11
172.562026
21
-129.1062931
0
LINE
8
0
10
159.9313321
20
-121.2137595
11
172.562026
21
-129.1062931
0
LINE
8
0
10
167.2503723
20
-173.4612344
11
186.6593818
21
-142.4003263
0
LINE
8
0
10
171.5021874
20
-130.8023894
11
186.6593818
21
-140.2736557
0
LINE
8
0
10
122.8541808
20
-193.5588349
11
139.1224834
21
-203.7243986
0
LINE
8
0
10
122.8541808
20
-193.5588349
11
133.9824854
21
-175.7498247
0
LINE
8
0
10
139.1224834
20
-203.7243986
11
151.2496117
21
-218.1769474
0
LINE
8
0
10
164.4655775
20
-211.4171693
11
168.1025923
21
-208.3653516
0
LINE
8
0
10
167.2503723
20
-173.4612344
11
170.041118
21
-176.7871156
0
LINE
8
0
10
151.2496117
20
-218.1769474
11
159.3722929
21
-238.281289
0
LINE
8
0
10
159.3722929
20
-238.281289
11
186.6593818
21
-227.2565894
0
LINE
8
0
10
164.4655775
20
-211.4171693
11
183.7240549
21
-203.6362394
0
LINE
8
0
10
189.5947088
20
-203.6362395
11
188.7708793
21
-201.59719
0
LINE
8
0
10
188.7708793
20
-201.59719
11
186.6593818
21
-202.4502904
0
LINE
8
0
10
168.1025923
20
-208.3653516
11
168.1384136
21
-208.4080418
0
LINE
8
0
10
168.1384136
20
-208.4080418
11
186.6593818
21
-192.8671043
0
LINE
8
0
10
170.041118
20
-176.7871156
11
184.7621208
21
-164.4347276
0
LINE
8
0
10
186.6593818
20
-166.6957952
11
184.7621208
21
-164.4347276
0
LINE
8
0
10
289.6480351
20
-173.3647036
11
312.1454299
21
-168.5827347
0
LINE
8
0
10
299.6707284
20
-109.8938786
11
312.1454299
21
-168.5827347
0
LINE
8
0
10
287.7768299
20
-164.5613752
11
289.6480351
21
-173.3647036
0
LINE
8
0
10
287.7768299
20
-164.5613752
11
277.9953539
21
-166.6404921
0
LINE
8
0
10
277.9953539
20
-166.6404921
11
276.630066
21
-160.2173179
0
LINE
8
0
10
282.3870597
20
-113.5676358
11
299.6707284
21
-109.8938786
0
LINE
8
0
10
267.184909
20
-164.033409
11
276.630066
21
-160.2173179
0
LINE
8
0
10
263.8134497
20
-155.6887544
11
267.184909
21
-164.033409
0
LINE
8
0
10
269.4052014
20
-108.1310809
11
278.67704
21
-104.3850149
0
LINE
8
0
10
278.67704
20
-104.3850149
11
282.3870597
21
-113.5676358
0
LINE
8
0
10
263.8134497
20
-155.6887544
11
254.5416112
21
-159.4348203
0
LINE
8
0
10
254.5416112
20
-159.4348203
11
253.3161268
21
-156.4016401
0
LINE
8
0
10
269.4052014
20
-108.1310809
11
266.0337421
21
-99.7864262
0
LINE
8
0
10
253.3423574
20
-104.9140784
11
266.0337421
21
-99.7864262
0
LINE
8
0
10
241.8786541
20
-104.4421866
11
250.7887194
21
-99.9022816
0
LINE
8
0
10
250.7887194
20
-99.9022816
11
253.3423574
21
-104.9140784
0
LINE
8
0
10
212.4754388
20
-119.4238731
11
221.3855041
21
-114.8839681
0
LINE
8
0
10
213.3874315
20
-121.2137595
11
212.4754388
21
-119.4238731
0
LINE
8
0
10
241.8786541
20
-104.4421866
11
237.7927396
21
-96.4231279
0
LINE
8
0
10
237.7927396
20
-96.4231279
11
217.2995896
21
-106.8649094
0
LINE
8
0
10
217.2995896
20
-106.8649094
11
221.3855041
21
-114.8839681
0
LINE
8
0
10
239.3362782
20
-175.7498247
11
252.0569996
21
-167.8010357
0
LINE
8
0
10
252.0569996
20
-167.8010357
11
247.2877262
21
-160.1686029
0
LINE
8
0
10
253.3161268
20
-156.4016401
11
247.2877262
21
-160.1686029
0
LINE
8
0
10
200.7567376
20
-129.1062931
11
213.3874315
21
-121.2137595
0
LINE
8
0
10
200.7567376
20
-129.1062931
11
201.8165762
21
-130.8023894
0
LINE
8
0
10
186.6593818
20
-142.4003263
11
206.0683913
21
-173.4612344
0
LINE
8
0
10
186.6593818
20
-140.2736557
11
201.8165762
21
-130.8023894
0
LINE
8
0
10
234.1962802
20
-203.7243986
11
250.4645828
21
-193.5588349
0
LINE
8
0
10
239.3362782
20
-175.7498247
11
250.4645828
21
-193.5588349
0
LINE
8
0
10
222.0691519
20
-218.1769474
11
234.1962802
21
-203.7243986
0
LINE
8
0
10
205.2161713
20
-208.3653516
11
208.8531861
21
-211.4171693
0
LINE
8
0
10
203.2776456
20
-176.7871156
11
206.0683913
21
-173.4612344
0
LINE
8
0
10
213.9464707
20
-238.281289
11
222.0691519
21
-218.1769474
0
LINE
8
0
10
189.5947088
20
-203.6362395
11
208.8531861
21
-211.4171693
0
LINE
8
0
10
186.6593818
20
-227.2565894
11
213.9464707
21
-238.281289
0
LINE
8
0
10
186.6593818
20
-202.4502904
11
184.5478843
21
-201.59719
0
LINE
8
0
10
184.5478843
20
-201.59719
11
183.7240549
21
-203.6362394
0
LINE
8
0
10
205.18035
20
-208.4080418
11
205.2161713
21
-208.3653516
0
LINE
8
0
10
188.5566428
20
-164.4347276
11
203.2776456
21
-176.7871156
0
LINE
8
0
10
186.6593818
20
-192.8671043
11
205.18035
21
-208.4080418
0
LINE
8
0
10
188.5566428
20
-164.4347276
11
186.6593818
21
-166.6957952
0
ENDSEC
0
EOF